if (_typeface_js && _typeface_js.loadFace) _typeface_js.loadFace({"glyphs":{"¦":{"x_min":116,"x_max":217,"ha":312,"o":"m 217 -240 q 200 -250 210 -245 q 180 -260 191 -255 q 159 -268 169 -265 q 140 -275 148 -272 l 116 -259 l 116 331 q 153 351 135 343 q 192 366 171 360 l 217 349 l 217 -240 m 217 520 q 200 509 210 514 q 180 500 191 504 q 159 491 169 495 q 140 485 148 488 l 116 500 l 116 1099 q 153 1118 135 1110 q 192 1132 171 1127 l 217 1117 l 217 520 "},"Ő":{"x_min":47,"x_max":757,"ha":817,"o":"m 653 426 q 645 519 653 473 q 622 606 637 565 q 584 682 606 647 q 534 742 562 716 q 473 782 506 767 q 402 797 439 797 q 295 771 342 797 q 216 698 249 746 q 167 584 184 651 q 150 434 150 517 q 170 290 150 358 q 224 171 190 223 q 304 90 259 120 q 402 61 350 61 q 503 84 457 61 q 583 153 549 107 q 635 268 616 200 q 653 426 653 337 m 757 439 q 727 263 757 346 q 645 117 697 180 q 526 17 594 54 q 382 -20 458 -20 q 240 15 302 -20 q 135 112 177 51 q 69 251 92 172 q 47 415 47 329 q 76 590 47 507 q 156 737 105 674 q 274 837 206 800 q 421 875 342 875 q 566 838 503 875 q 671 740 628 801 q 735 600 713 679 q 757 439 757 521 m 300 927 q 282 933 289 929 q 263 945 276 937 l 380 1226 q 399 1223 388 1225 q 420 1219 409 1222 q 442 1215 431 1217 q 459 1209 452 1212 l 473 1182 l 300 927 m 494 927 q 475 933 481 929 q 456 945 468 937 l 573 1226 q 592 1223 581 1225 q 613 1219 602 1222 q 635 1215 624 1217 q 652 1209 645 1212 l 667 1182 l 494 927 "},"Ž":{"x_min":39.578125,"x_max":655,"ha":712,"o":"m 655 198 q 655 150 655 177 q 655 97 655 124 q 655 45 655 70 q 655 0 655 19 l 58 0 l 39 30 l 512 787 l 207 787 q 183 779 196 787 q 159 755 171 772 q 136 714 147 739 q 118 653 125 688 l 80 661 l 100 865 q 132 858 118 861 q 162 855 147 855 q 191 855 176 855 l 635 855 l 652 825 l 183 68 l 531 68 q 556 74 545 68 q 578 96 567 80 q 599 139 588 112 q 622 208 609 166 l 655 198 m 405 943 l 333 943 l 158 1151 q 166 1162 163 1157 q 172 1170 169 1167 q 179 1176 175 1174 q 188 1183 183 1179 l 371 1039 l 550 1183 q 566 1170 561 1176 q 579 1151 571 1164 l 405 943 "},"Á":{"x_min":0,"x_max":796,"ha":810,"o":"m 504 363 l 386 711 l 272 363 l 504 363 m 252 302 l 179 75 q 197 45 172 54 q 276 29 221 35 l 276 0 l 0 0 l 0 29 q 71 46 45 37 q 104 75 98 55 l 352 839 q 390 869 367 855 q 430 893 412 883 l 709 75 q 718 58 712 66 q 734 45 724 51 q 759 36 744 40 q 796 29 774 32 l 796 0 l 516 0 l 516 31 q 587 41 567 31 q 600 75 607 52 l 524 302 l 252 302 m 310 927 q 293 938 298 931 q 280 957 288 944 l 537 1172 q 555 1162 544 1168 q 579 1148 567 1155 q 600 1134 590 1141 q 616 1122 610 1127 l 622 1091 l 310 927 "},"ĥ":{"x_min":37,"x_max":732,"ha":752,"o":"m 446 0 l 446 29 q 516 51 493 42 q 539 70 539 61 l 539 429 q 534 496 539 470 q 518 537 529 522 q 491 557 507 552 q 453 563 475 563 q 403 550 430 563 q 347 514 376 538 q 288 455 318 491 q 230 372 258 419 l 230 70 q 254 49 230 60 q 323 29 279 38 l 323 0 l 37 0 l 37 29 q 105 50 80 40 q 130 70 130 59 l 130 880 q 127 924 130 908 q 115 949 125 940 q 87 962 106 958 q 37 969 68 965 l 37 997 q 87 1007 64 1002 q 130 1019 110 1013 q 168 1033 150 1026 q 205 1051 186 1041 l 230 1028 l 230 464 q 293 541 258 507 q 363 600 328 576 q 432 638 398 625 q 492 651 466 651 q 547 642 520 651 q 594 615 573 633 q 626 568 614 596 q 639 502 639 540 l 639 70 q 659 52 639 61 q 732 29 679 42 l 732 0 l 446 0 m 594 1127 q 581 1108 586 1114 q 565 1096 577 1102 l 383 1237 l 203 1096 q 194 1102 198 1099 q 187 1108 190 1104 q 181 1116 184 1111 q 173 1127 178 1121 l 348 1337 l 420 1337 l 594 1127 "},"Î":{"x_min":-14.140625,"x_max":406.484375,"ha":406,"o":"m 47 0 l 47 29 q 118 49 92 38 q 144 70 144 61 l 144 782 q 119 803 144 790 q 47 824 95 815 l 47 854 l 346 854 l 346 824 q 275 803 300 815 q 250 782 250 792 l 250 70 q 274 50 250 62 q 346 29 298 38 l 346 0 l 47 0 m 406 957 q 393 938 398 944 q 377 926 389 932 l 196 1067 l 15 926 q 6 931 10 929 q 0 938 3 934 q -6 946 -2 941 q -14 957 -9 950 l 161 1166 l 232 1166 l 406 957 "},"e":{"x_min":53,"x_max":575,"ha":628,"o":"m 329 580 q 266 566 294 580 q 215 528 237 552 q 177 469 192 503 q 156 394 162 435 l 440 394 q 461 399 456 394 q 466 418 466 404 q 461 464 466 436 q 441 517 456 491 q 399 561 426 543 q 329 580 372 580 m 575 378 q 543 353 563 364 q 501 333 523 341 l 153 333 q 166 232 153 280 q 205 147 180 184 q 267 89 231 111 q 349 68 303 68 q 389 70 369 68 q 431 82 408 73 q 481 110 454 92 q 546 160 509 129 q 561 146 555 155 q 571 132 567 137 q 492 52 526 83 q 429 6 459 22 q 371 -14 400 -9 q 308 -20 342 -20 q 211 2 257 -20 q 130 65 165 24 q 73 164 94 106 q 53 294 53 222 q 62 384 53 339 q 91 467 72 428 q 138 539 110 506 q 200 597 165 573 q 232 617 214 607 q 271 634 251 627 q 310 646 290 642 q 348 651 330 651 q 425 638 391 651 q 484 606 458 626 q 526 557 509 585 q 554 500 543 530 q 570 438 565 469 q 575 378 575 406 "},"»":{"x_min":93.171875,"x_max":607,"ha":661,"o":"m 607 291 l 367 11 l 339 31 l 492 316 l 339 598 l 367 619 l 607 341 l 607 291 m 361 291 l 121 11 l 93 31 l 246 316 l 93 598 l 121 619 l 361 341 l 361 291 "},"Ĕ":{"x_min":33,"x_max":633.859375,"ha":675,"o":"m 633 165 q 620 63 628 107 q 606 0 611 19 l 33 0 l 33 29 q 104 49 78 38 q 130 70 130 61 l 130 782 q 105 803 130 790 q 33 824 81 815 l 33 854 l 568 854 l 590 837 q 587 798 590 819 q 580 756 584 777 q 571 716 576 735 q 563 684 567 697 l 533 684 q 528 736 533 715 q 517 770 524 757 q 501 787 511 782 q 479 793 491 793 l 236 793 l 236 498 l 505 498 l 522 479 q 509 458 517 469 q 493 437 501 447 q 476 417 485 426 q 461 403 468 409 q 439 420 451 413 q 413 432 428 427 q 377 438 398 436 q 329 441 357 441 l 236 441 l 236 104 q 240 86 236 94 q 259 72 245 78 q 301 64 274 67 q 371 61 327 61 l 457 61 q 509 64 487 61 q 547 79 530 67 q 577 114 564 91 q 605 177 591 137 l 633 165 m 549 1139 q 504 1046 529 1084 q 452 985 479 1009 q 394 952 424 962 q 335 942 364 942 q 272 952 302 942 q 213 985 241 962 q 162 1046 186 1009 q 117 1139 137 1084 q 133 1157 125 1151 q 153 1169 141 1164 q 191 1104 169 1131 q 236 1062 212 1078 q 285 1039 260 1046 q 332 1032 310 1032 q 381 1039 355 1032 q 431 1062 406 1046 q 476 1104 455 1078 q 514 1169 498 1131 q 533 1157 525 1164 q 549 1139 541 1151 "},"ò":{"x_min":53,"x_max":631.015625,"ha":684,"o":"m 528 309 q 510 411 528 362 q 466 496 493 459 q 404 555 438 533 q 336 577 369 577 q 251 557 285 577 q 195 503 216 537 q 165 422 174 469 q 156 321 156 375 q 174 219 156 267 q 221 133 193 170 q 283 75 249 97 q 347 54 317 54 q 429 72 395 54 q 484 123 462 90 q 517 203 506 157 q 528 309 528 250 m 631 329 q 619 240 631 283 q 588 158 608 197 q 540 86 568 119 q 479 30 512 53 q 407 -6 445 6 q 329 -20 369 -20 q 215 4 266 -20 q 128 71 164 28 q 72 173 92 114 q 53 301 53 232 q 63 389 53 346 q 94 472 74 433 q 141 544 114 511 q 202 600 169 576 q 275 638 236 624 q 355 651 314 651 q 468 627 417 651 q 555 559 519 602 q 611 457 591 516 q 631 329 631 398 m 431 731 q 413 718 422 723 q 393 710 405 713 l 160 966 l 174 994 q 194 998 181 996 q 221 1003 207 1000 q 249 1007 235 1006 q 271 1010 263 1009 l 431 731 "},"^":{"x_min":66.453125,"x_max":602.796875,"ha":670,"o":"m 602 430 q 570 404 586 415 q 532 383 554 393 l 507 401 l 319 891 l 153 430 q 136 416 146 423 q 117 403 127 409 q 98 391 107 396 q 81 383 88 386 l 66 401 l 280 991 q 300 1008 288 999 q 323 1024 311 1016 q 347 1039 335 1032 q 368 1051 359 1046 l 602 430 "},"«":{"x_min":53,"x_max":567.5,"ha":661,"o":"m 53 291 l 53 315 q 53 332 53 325 q 54 341 53 340 l 293 619 l 320 599 l 314 586 q 297 554 307 574 q 272 509 286 534 q 243 457 258 483 q 215 405 229 430 q 191 360 201 380 q 174 328 180 340 q 168 317 167 317 l 321 32 l 293 11 l 53 291 m 299 291 l 299 315 q 299 332 299 325 q 300 341 299 340 l 538 619 l 566 599 l 560 586 q 542 554 553 574 q 518 509 532 534 q 489 457 504 483 q 461 405 475 430 q 437 360 447 380 q 419 328 426 340 q 413 317 413 317 l 567 32 l 538 11 l 299 291 "},"í":{"x_min":47,"x_max":390.828125,"ha":370,"o":"m 47 0 l 47 29 q 115 49 92 38 q 139 70 139 61 l 139 454 q 139 510 139 488 q 130 543 139 531 q 101 560 121 555 q 47 569 82 566 l 47 596 q 90 606 67 600 q 136 619 113 612 q 179 634 158 626 q 217 651 200 642 l 240 651 l 240 70 q 262 50 240 62 q 333 29 284 38 l 333 0 l 47 0 m 161 709 q 140 717 149 712 q 123 728 131 722 l 279 1009 q 300 1007 287 1009 q 327 1003 313 1005 q 354 998 341 1001 q 375 994 368 996 l 390 967 l 161 709 "},"ˆ":{"x_min":32.5625,"x_max":453.265625,"ha":487,"o":"m 453 740 q 440 722 445 728 q 424 710 435 715 l 242 892 l 62 710 q 53 715 57 713 q 46 722 49 718 q 40 730 43 725 q 32 740 37 734 l 208 998 l 279 998 l 453 740 "},"ū":{"x_min":27.265625,"x_max":710.359375,"ha":721,"o":"m 710 55 q 662 25 685 39 q 620 1 639 11 q 585 -14 600 -8 q 563 -20 571 -20 q 524 11 539 -20 q 510 112 510 42 q 432 44 466 70 q 369 4 398 18 q 316 -15 340 -10 q 270 -20 292 -20 q 211 -11 239 -20 q 160 20 182 -2 q 125 84 138 44 q 113 189 113 125 l 113 482 q 111 532 113 514 q 100 559 109 550 q 75 572 92 569 q 27 579 57 575 l 27 606 q 72 613 51 609 q 112 622 93 617 q 152 635 132 628 q 194 651 172 642 l 213 624 l 213 226 q 219 147 213 179 q 239 96 226 115 q 271 69 252 77 q 314 61 290 61 q 357 67 335 61 q 403 87 380 73 q 452 123 427 101 q 508 177 478 145 l 508 482 q 505 531 508 513 q 492 560 502 550 q 463 574 482 570 q 414 578 445 578 l 414 606 q 506 625 462 612 q 588 651 550 638 l 608 624 l 608 172 q 610 103 608 130 q 623 70 613 77 q 650 68 631 65 q 703 86 669 71 l 710 55 m 593 868 q 588 851 591 861 q 581 831 585 841 q 573 812 577 822 q 567 797 570 803 l 159 797 l 144 813 q 148 830 145 821 q 156 850 152 840 q 164 869 160 859 q 171 885 168 878 l 578 885 l 593 868 "},"µ":{"x_min":40.265625,"x_max":720.34375,"ha":734,"o":"m 720 55 q 679 29 700 42 q 637 4 657 15 q 600 -13 617 -6 q 572 -21 583 -21 q 548 -9 558 -21 q 531 21 538 2 q 521 67 525 41 q 518 122 518 93 q 413 14 464 50 q 325 -21 363 -21 q 247 6 285 -21 q 180 82 209 33 l 180 78 q 187 -55 180 3 q 208 -160 195 -114 q 238 -237 221 -205 q 272 -290 255 -269 q 245 -300 262 -294 q 210 -314 228 -307 q 175 -328 192 -321 q 151 -339 159 -334 l 126 -319 l 126 495 q 124 537 126 522 q 114 560 122 552 q 88 572 106 568 q 40 579 71 575 l 40 606 q 87 615 66 611 q 128 624 109 619 q 165 635 147 629 q 199 651 182 641 l 202 647 q 209 639 205 644 q 218 630 213 635 q 225 622 222 625 l 225 248 q 233 196 225 224 q 258 145 242 169 q 296 105 273 121 q 347 89 319 89 q 384 92 365 89 q 424 106 403 95 q 468 138 445 118 q 518 194 491 159 l 518 507 q 516 533 518 518 q 509 563 513 548 q 501 591 506 578 q 492 610 497 604 q 552 629 522 618 q 609 651 582 639 l 627 624 q 621 582 625 607 q 618 514 618 557 l 618 181 q 623 92 618 118 q 643 67 629 67 q 674 72 658 67 q 713 86 691 77 l 720 55 "},"č":{"x_min":53,"x_max":558.40625,"ha":595,"o":"m 558 129 q 482 47 515 76 q 421 2 449 17 q 366 -16 393 -12 q 309 -20 340 -20 q 214 2 260 -20 q 132 65 168 24 q 74 166 96 106 q 53 301 53 226 q 79 438 53 374 q 151 549 105 502 q 258 624 196 596 q 392 651 320 651 q 437 647 414 651 q 480 637 459 644 q 519 620 501 629 q 548 598 537 610 q 546 574 549 589 q 537 543 543 560 q 523 511 531 526 q 510 486 516 496 l 485 493 q 468 519 480 505 q 437 547 456 534 q 392 568 418 560 q 332 577 366 577 q 264 561 297 577 q 207 513 232 545 q 167 433 182 481 q 153 322 153 386 q 169 217 153 264 q 215 137 186 170 q 280 85 243 103 q 357 68 317 68 q 391 69 375 68 q 426 80 407 71 q 470 106 445 89 q 532 156 495 124 l 558 129 m 361 727 l 290 727 l 115 969 q 122 980 119 975 q 129 988 126 985 q 135 994 132 992 q 145 1000 139 997 l 327 830 l 507 1000 q 523 988 518 994 q 535 969 527 982 l 361 727 "},"’":{"x_min":58.59375,"x_max":251,"ha":312,"o":"m 251 878 q 242 821 251 852 q 215 760 233 790 q 173 701 198 729 q 117 652 149 673 l 87 676 q 111 709 101 690 q 129 748 122 729 q 139 785 136 767 q 143 816 143 803 q 125 870 143 847 q 69 893 107 893 l 58 924 q 83 943 64 932 q 126 963 103 953 q 171 979 149 973 q 205 986 193 986 q 239 941 227 964 q 251 878 251 917 "},"-":{"x_min":40.546875,"x_max":418.03125,"ha":459,"o":"m 418 370 q 408 338 414 355 q 397 309 402 320 l 57 309 l 40 325 q 49 356 43 340 q 61 387 55 373 l 401 387 l 418 370 "},"Q":{"x_min":47,"x_max":852.703125,"ha":817,"o":"m 653 426 q 645 519 653 473 q 622 606 637 565 q 584 682 606 647 q 534 742 562 716 q 473 782 506 767 q 402 797 439 797 q 295 771 342 797 q 216 698 249 746 q 167 584 184 651 q 150 434 150 517 q 170 290 150 358 q 224 171 190 223 q 304 90 259 120 q 402 61 350 61 q 503 84 457 61 q 583 153 549 107 q 635 268 616 200 q 653 426 653 337 m 852 -79 q 820 -132 836 -109 q 787 -172 803 -156 q 757 -198 771 -189 q 733 -207 743 -207 q 651 -186 691 -207 q 571 -136 611 -165 q 492 -74 531 -106 q 412 -17 452 -41 q 382 -20 397 -20 q 247 14 309 -20 q 141 108 185 49 q 71 246 96 167 q 47 415 47 325 q 76 590 47 507 q 156 737 105 674 q 274 837 206 800 q 421 875 342 875 q 566 838 503 875 q 671 740 628 801 q 735 600 713 678 q 757 438 757 521 q 738 299 757 367 q 686 176 719 232 q 607 76 653 119 q 509 8 562 32 q 569 -28 539 -7 q 629 -66 600 -48 q 685 -96 657 -84 q 737 -109 712 -109 q 754 -106 745 -109 q 774 -97 762 -103 q 800 -80 785 -91 q 834 -55 814 -70 l 852 -79 "},"M":{"x_min":40,"x_max":1043,"ha":1097,"o":"m 1030 825 q 988 818 1010 825 q 944 800 966 812 l 944 70 q 969 50 944 62 q 1043 29 995 38 l 1043 0 l 741 0 l 741 29 q 813 49 786 38 q 840 70 840 61 l 840 705 l 546 0 l 514 0 l 216 700 l 216 70 q 238 50 216 62 q 309 29 261 38 l 309 0 l 40 0 l 40 29 q 112 49 85 38 q 140 70 140 61 l 140 797 q 90 818 115 812 q 46 825 66 825 l 46 854 l 236 854 q 248 851 243 854 q 257 843 252 849 q 266 826 261 837 q 279 797 271 815 l 543 185 l 797 797 q 811 828 806 817 q 821 845 816 840 q 829 852 825 851 q 840 854 834 854 l 1030 854 l 1030 825 "},"œ":{"x_min":53,"x_max":1026,"ha":1079,"o":"m 786 581 q 727 567 755 581 q 678 528 699 553 q 642 469 656 503 q 621 394 627 435 l 890 394 q 910 399 904 394 q 916 418 916 404 q 911 464 916 436 q 892 517 906 492 q 852 562 878 543 q 786 581 827 581 m 516 309 q 499 411 516 363 q 453 496 482 460 q 389 555 425 533 q 315 577 353 577 q 250 557 279 577 q 199 503 220 537 q 166 422 178 469 q 155 321 155 375 q 172 219 155 267 q 219 133 190 170 q 283 75 248 97 q 355 54 319 54 q 420 73 391 54 q 471 127 450 93 q 504 208 492 161 q 516 309 516 254 m 1026 378 q 992 352 1012 364 q 951 332 972 340 l 618 332 q 631 231 618 279 q 669 148 645 184 q 728 91 693 112 q 806 70 763 70 q 843 72 825 70 q 882 83 861 74 q 931 111 904 93 q 996 160 959 129 q 1011 147 1004 156 q 1020 132 1017 138 q 943 53 976 83 q 880 6 909 22 q 824 -14 851 -9 q 766 -20 797 -20 q 702 -10 733 -20 q 643 18 671 0 q 592 64 615 37 q 552 125 568 90 q 504 66 531 93 q 447 20 477 39 q 383 -9 416 1 q 315 -20 350 -20 q 210 4 259 -20 q 127 71 162 28 q 72 173 92 114 q 53 301 53 232 q 64 389 53 346 q 95 472 75 433 q 144 544 116 511 q 205 600 172 576 q 277 638 239 624 q 355 651 315 651 q 424 641 391 651 q 485 612 457 631 q 537 568 514 594 q 577 509 560 542 q 615 557 594 535 q 661 597 636 579 q 694 617 675 607 q 733 635 713 627 q 771 647 752 643 q 805 652 790 652 q 878 639 846 652 q 935 606 911 627 q 977 558 960 586 q 1005 500 994 531 q 1021 438 1016 470 q 1026 378 1026 406 "},"ě":{"x_min":53,"x_max":575,"ha":628,"o":"m 329 580 q 266 566 294 580 q 215 528 237 552 q 177 469 192 503 q 156 394 162 435 l 440 394 q 461 399 456 394 q 466 418 466 404 q 461 464 466 436 q 441 517 456 491 q 399 561 426 543 q 329 580 372 580 m 575 378 q 543 353 563 364 q 501 333 523 341 l 153 333 q 166 232 153 280 q 205 147 180 184 q 267 89 231 111 q 349 68 303 68 q 389 70 369 68 q 431 82 408 73 q 481 110 454 92 q 546 160 509 129 q 561 146 555 155 q 571 132 567 137 q 492 52 526 83 q 429 6 459 22 q 371 -14 400 -9 q 308 -20 342 -20 q 211 2 257 -20 q 130 65 165 24 q 73 164 94 106 q 53 294 53 222 q 62 384 53 339 q 91 467 72 428 q 138 539 110 506 q 200 597 165 573 q 232 617 214 607 q 271 634 251 627 q 310 646 290 642 q 348 651 330 651 q 425 638 391 651 q 484 606 458 626 q 526 557 509 585 q 554 500 543 530 q 570 438 565 469 q 575 378 575 406 m 374 727 l 303 727 l 128 969 q 136 980 133 975 q 142 988 139 985 q 149 994 145 992 q 158 1000 152 997 l 340 830 l 519 1000 q 535 988 531 994 q 548 969 540 982 l 374 727 "},"ũ":{"x_min":27.265625,"x_max":710.359375,"ha":721,"o":"m 710 55 q 662 25 685 39 q 620 0 639 11 q 585 -15 600 -9 q 563 -21 571 -21 q 524 10 539 -21 q 510 112 510 42 q 432 44 466 70 q 369 3 398 17 q 316 -15 340 -10 q 270 -21 292 -21 q 211 -12 239 -21 q 160 20 182 -3 q 125 84 138 43 q 113 189 113 125 l 113 482 q 111 532 113 514 q 100 559 109 550 q 75 572 92 568 q 27 578 57 575 l 27 606 q 72 612 51 608 q 112 622 93 616 q 152 634 132 627 q 194 650 172 642 l 213 624 l 213 226 q 219 147 213 178 q 239 96 226 115 q 271 69 252 77 q 314 61 290 61 q 357 67 335 61 q 403 87 380 73 q 452 123 427 101 q 508 177 478 145 l 508 482 q 505 531 508 513 q 492 559 502 549 q 463 574 482 570 q 414 578 445 578 l 414 606 q 506 625 462 612 q 588 650 550 637 l 608 624 l 608 172 q 610 103 608 130 q 623 70 613 77 q 650 68 631 65 q 703 86 669 71 l 710 55 m 588 912 q 560 857 576 884 q 523 808 543 830 q 478 773 502 787 q 429 760 455 760 q 384 771 405 760 q 344 798 363 783 q 304 824 324 812 q 265 836 285 836 q 217 814 239 836 q 171 754 195 792 l 135 768 q 163 823 147 795 q 200 872 180 850 q 244 907 221 893 q 294 921 268 921 q 342 909 319 921 q 384 883 364 897 q 422 856 404 868 q 456 845 440 845 q 505 866 481 845 q 552 927 530 888 l 588 912 "},"ŭ":{"x_min":27.265625,"x_max":710.359375,"ha":721,"o":"m 710 55 q 662 25 685 39 q 620 1 639 11 q 585 -14 600 -8 q 563 -20 571 -20 q 524 11 539 -20 q 510 112 510 42 q 432 44 466 70 q 369 4 398 18 q 316 -14 340 -9 q 270 -20 292 -20 q 211 -11 239 -20 q 160 20 182 -2 q 125 84 138 44 q 113 189 113 125 l 113 482 q 111 533 113 515 q 100 560 109 551 q 75 572 92 569 q 27 579 57 576 l 27 606 q 72 613 51 609 q 112 623 93 617 q 152 635 132 628 q 194 651 172 642 l 213 625 l 213 226 q 219 147 213 179 q 239 96 226 115 q 271 69 252 77 q 314 61 290 61 q 357 67 335 61 q 403 87 380 73 q 452 123 427 101 q 508 177 478 145 l 508 483 q 505 532 508 513 q 492 560 502 550 q 463 574 482 570 q 414 579 445 579 l 414 606 q 506 625 462 612 q 588 651 550 638 l 608 625 l 608 172 q 610 103 608 130 q 623 70 613 77 q 650 68 631 65 q 703 86 669 71 l 710 55 m 578 923 q 533 830 558 868 q 480 769 508 793 q 423 736 453 746 q 363 726 393 726 q 300 736 330 726 q 242 769 269 746 q 190 830 214 793 q 146 923 166 868 q 162 941 154 935 q 181 953 170 948 q 219 888 198 915 q 265 846 241 862 q 314 823 289 830 q 360 816 338 816 q 409 823 384 816 q 459 846 435 830 q 505 888 483 862 q 542 953 526 915 q 562 941 554 948 q 578 923 570 935 "},"{":{"x_min":68.078125,"x_max":431.03125,"ha":457,"o":"m 431 1052 q 382 1015 405 1036 q 344 968 360 994 q 318 913 327 943 q 309 848 309 883 q 313 784 309 809 q 322 737 317 759 q 331 689 327 715 q 336 625 336 664 q 327 569 336 597 q 304 518 319 542 q 266 474 288 493 q 216 442 244 454 q 272 421 249 436 q 309 382 295 405 q 329 328 323 359 q 336 260 336 298 q 331 191 336 220 q 322 137 327 163 q 313 87 317 112 q 309 28 309 62 q 313 -37 309 -8 q 331 -89 318 -66 q 366 -132 344 -112 q 424 -172 389 -152 l 409 -213 q 313 -165 353 -190 q 248 -108 273 -140 q 210 -39 222 -77 q 199 48 199 0 q 203 114 199 88 q 212 164 207 140 q 221 216 217 188 q 226 285 226 243 q 199 368 226 340 q 122 397 172 397 l 108 397 q 101 396 104 397 q 93 395 97 396 q 79 392 89 394 l 68 428 q 186 491 146 449 q 226 584 226 533 q 224 631 226 611 q 219 667 222 651 q 212 697 216 683 q 205 726 208 710 q 200 762 202 742 q 199 809 199 782 q 213 895 199 855 q 256 970 228 936 q 324 1033 284 1004 q 413 1084 364 1061 l 431 1052 "},"¼":{"x_min":52.703125,"x_max":743.984375,"ha":797,"o":"m 631 332 l 497 153 l 631 153 l 631 332 m 743 142 q 729 124 735 132 q 713 111 722 116 l 693 111 l 693 39 q 694 34 693 36 q 700 29 695 32 q 715 24 705 27 q 740 19 724 22 l 740 0 l 558 0 l 558 19 q 596 25 581 22 q 618 31 611 28 q 628 37 626 34 q 631 42 631 39 l 631 111 l 446 111 l 433 121 l 619 381 q 651 393 634 387 q 679 405 668 400 l 693 393 l 693 153 l 733 153 l 743 142 m 64 432 l 64 455 q 111 461 93 457 q 140 468 130 465 q 155 476 151 472 q 159 484 159 480 l 159 732 q 158 752 159 745 q 152 763 157 759 q 144 766 150 765 q 128 768 139 768 q 101 765 118 768 q 60 759 85 763 l 52 781 q 90 792 67 785 q 135 806 112 799 q 179 822 158 814 q 211 837 199 831 l 225 825 l 225 484 q 228 477 225 480 q 240 469 231 473 q 267 461 250 465 q 313 455 285 457 l 313 432 l 64 432 m 209 1 q 179 -10 193 -5 q 147 -20 165 -15 l 131 0 l 637 815 q 666 827 650 820 q 696 837 681 833 l 713 818 l 209 1 "},"#":{"x_min":57.828125,"x_max":652.640625,"ha":639,"o":"m 265 400 l 390 400 l 439 574 l 314 574 l 265 400 m 535 652 l 636 652 l 652 635 q 643 602 649 620 q 632 574 637 585 l 513 574 l 465 400 l 565 400 l 580 381 q 571 350 576 368 q 561 322 566 333 l 443 322 l 385 115 q 357 98 373 105 q 324 86 341 92 l 307 99 l 368 322 l 243 322 l 185 115 q 158 98 173 105 q 125 86 142 92 l 108 99 l 170 322 l 72 322 l 57 338 q 66 369 61 352 q 77 400 71 386 l 192 400 l 240 574 l 144 574 l 128 590 q 137 621 131 605 q 148 652 143 638 l 262 652 l 317 848 q 346 864 332 859 q 376 876 361 870 l 395 861 l 336 652 l 461 652 l 516 848 q 545 864 531 859 q 576 876 560 870 l 594 861 l 535 652 "},"ꞌ":{"x_min":117,"x_max":219,"ha":333,"o":"m 219 443 q 198 437 210 440 q 172 433 186 435 q 144 430 158 431 q 117 429 129 429 l 117 963 q 134 973 122 967 q 159 986 146 980 q 184 997 172 992 q 201 1003 195 1002 l 219 985 l 219 443 "},"Ⱡ":{"x_min":29.015625,"x_max":627.09375,"ha":648,"o":"m 627 165 q 613 63 621 106 q 599 0 605 19 l 33 0 l 33 29 q 104 49 78 38 q 130 70 130 60 l 130 296 l 43 296 l 29 312 q 36 334 32 323 q 43 357 39 346 l 130 357 l 130 432 l 43 432 l 29 448 q 36 470 32 459 q 43 493 39 482 l 130 493 l 130 783 q 105 803 130 791 q 33 825 81 815 l 33 854 l 332 854 l 332 825 q 261 804 286 815 q 236 783 236 792 l 236 493 l 395 493 l 411 477 l 395 432 l 236 432 l 236 357 l 395 357 l 411 341 l 395 296 l 236 296 l 236 111 q 241 89 236 98 q 261 74 247 80 q 299 64 275 67 q 359 61 322 61 l 454 61 q 505 64 484 61 q 542 79 526 67 q 571 114 558 91 q 598 177 584 137 l 627 165 "},"Ĳ":{"x_min":47,"x_max":775,"ha":822,"o":"m 47 0 l 47 29 q 118 49 92 38 q 144 70 144 61 l 144 782 q 119 803 144 790 q 47 824 95 815 l 47 854 l 346 854 l 346 824 q 275 803 301 815 q 250 782 250 792 l 250 70 q 274 50 250 62 q 346 29 298 38 l 346 0 l 47 0 m 775 824 q 703 803 729 815 q 678 782 678 792 l 678 138 q 667 4 678 58 q 637 -86 656 -49 q 595 -149 619 -124 q 546 -195 571 -173 q 506 -222 528 -210 q 463 -241 484 -233 q 421 -253 441 -249 q 389 -258 402 -258 q 349 -251 369 -258 q 314 -236 329 -245 q 289 -218 299 -228 q 280 -203 280 -209 q 288 -187 280 -198 q 309 -167 297 -177 q 334 -148 321 -157 q 356 -135 347 -138 q 389 -155 375 -147 q 415 -167 403 -163 q 438 -172 427 -171 q 461 -174 449 -174 q 498 -162 479 -174 q 534 -121 518 -150 q 561 -40 550 -92 q 572 90 572 11 l 572 782 q 566 791 572 786 q 547 801 561 796 q 507 812 532 807 q 443 824 482 818 l 443 854 l 775 854 l 775 824 "},"Ê":{"x_min":33,"x_max":633.859375,"ha":675,"o":"m 633 165 q 620 63 628 107 q 606 0 611 19 l 33 0 l 33 29 q 104 49 78 38 q 130 70 130 61 l 130 782 q 105 803 130 790 q 33 824 81 815 l 33 854 l 568 854 l 590 837 q 587 798 590 819 q 580 756 584 777 q 571 716 576 735 q 563 684 567 697 l 533 684 q 528 736 533 715 q 517 770 524 757 q 501 787 511 782 q 479 793 491 793 l 236 793 l 236 498 l 505 498 l 522 479 q 509 458 517 469 q 493 437 501 447 q 476 417 485 426 q 461 403 468 409 q 439 420 451 413 q 413 432 428 427 q 377 438 398 436 q 329 441 357 441 l 236 441 l 236 104 q 240 86 236 94 q 259 72 245 78 q 301 64 274 67 q 371 61 327 61 l 457 61 q 509 64 487 61 q 547 79 530 67 q 577 114 564 91 q 605 177 591 137 l 633 165 m 543 957 q 531 938 535 944 q 515 926 526 932 l 333 1067 l 153 926 q 144 931 147 929 q 137 938 140 934 q 131 946 134 941 q 123 957 128 950 l 298 1166 l 369 1166 l 543 957 "},")":{"x_min":26.984375,"x_max":352,"ha":431,"o":"m 352 450 q 330 234 352 338 q 268 42 308 130 q 172 -110 228 -44 q 47 -213 116 -176 l 26 -183 q 108 -86 69 -146 q 175 51 146 -27 q 222 225 205 130 q 239 430 239 321 q 225 622 239 528 q 184 798 211 716 q 117 946 157 880 q 26 1054 78 1012 l 47 1085 q 179 987 122 1050 q 274 840 236 923 q 332 657 313 756 q 352 450 352 558 "},"Å":{"x_min":0,"x_max":796,"ha":810,"o":"m 504 363 l 386 711 l 272 363 l 504 363 m 252 302 l 179 75 q 197 45 172 54 q 276 29 221 35 l 276 0 l 0 0 l 0 29 q 71 46 45 37 q 104 75 98 55 l 352 838 q 390 869 367 855 q 430 893 412 883 l 709 75 q 718 58 712 66 q 734 45 724 51 q 759 36 744 40 q 796 29 774 32 l 796 0 l 516 0 l 516 31 q 587 41 567 31 q 600 75 607 52 l 524 302 l 252 302 m 462 1060 q 457 1091 462 1076 q 446 1117 453 1106 q 428 1135 439 1128 q 404 1142 417 1142 q 377 1136 390 1142 q 355 1120 365 1130 q 340 1094 346 1109 q 334 1061 334 1079 q 338 1031 334 1045 q 349 1005 342 1016 q 367 987 356 994 q 391 981 378 981 q 417 986 404 981 q 440 1001 430 991 q 456 1025 450 1011 q 462 1060 462 1040 m 522 1088 q 509 1024 522 1053 q 475 974 496 995 q 428 940 454 952 q 377 929 402 929 q 335 937 354 929 q 302 959 316 945 q 281 992 289 973 q 274 1033 274 1011 q 287 1097 274 1068 q 320 1148 300 1127 q 366 1182 341 1170 q 418 1194 392 1194 q 459 1185 440 1194 q 492 1162 478 1177 q 514 1128 506 1147 q 522 1088 522 1109 "},"¸":{"x_min":51.40625,"x_max":271,"ha":312,"o":"m 271 -155 q 259 -203 271 -180 q 223 -245 247 -226 q 159 -278 198 -264 q 66 -300 120 -292 l 51 -267 q 110 -252 85 -261 q 149 -232 134 -243 q 172 -209 165 -221 q 179 -186 179 -197 q 161 -154 179 -163 q 103 -141 144 -145 q 109 -122 104 -139 q 124 -77 114 -108 q 151 9 133 -47 l 203 9 l 177 -70 q 212 -80 195 -74 q 242 -97 229 -87 q 263 -121 255 -107 q 271 -155 271 -136 "},"a":{"x_min":53,"x_max":615.6875,"ha":625,"o":"m 233 68 q 318 88 273 68 q 414 154 363 109 l 414 329 q 321 311 358 320 q 262 293 285 302 q 225 273 239 284 q 200 252 211 263 q 172 210 183 234 q 162 155 162 187 q 169 111 162 128 q 189 84 177 94 q 212 71 200 74 q 233 68 225 68 m 615 55 q 522 -2 559 15 q 466 -21 485 -21 q 429 10 444 -21 q 415 97 415 41 q 354 44 384 66 q 295 7 324 21 q 241 -14 267 -7 q 194 -21 215 -21 q 145 -12 170 -21 q 99 12 120 -4 q 66 58 79 30 q 53 125 53 86 q 70 211 53 177 q 112 271 88 246 q 149 302 128 288 q 202 330 169 317 q 287 356 236 344 q 414 380 337 368 l 414 475 q 408 518 414 498 q 390 552 403 538 q 356 575 378 567 q 302 583 334 583 q 260 576 281 583 q 224 557 239 569 q 200 527 209 544 q 193 490 191 511 q 180 476 194 484 q 146 463 166 469 q 107 453 126 456 q 80 452 88 450 l 71 478 q 118 543 86 512 q 189 598 149 575 q 274 636 229 622 q 361 651 319 651 q 474 611 434 651 q 514 503 514 572 l 514 120 q 521 80 514 92 q 540 68 528 68 q 564 71 549 68 q 605 86 579 74 l 615 55 "},"=":{"x_min":40.546875,"x_max":556.9375,"ha":597,"o":"m 556 298 q 547 269 553 284 q 537 241 541 253 l 57 241 l 40 259 q 49 287 43 272 q 61 315 55 302 l 540 315 l 556 298 m 556 502 q 547 472 553 488 q 537 444 541 455 l 57 444 l 40 461 q 49 490 43 474 q 61 519 55 506 l 540 519 l 556 502 "},"˚":{"x_min":47,"x_max":294,"ha":341,"o":"m 234 843 q 230 874 234 859 q 218 900 226 889 q 200 918 211 911 q 177 925 190 925 q 150 919 163 925 q 128 903 138 913 q 112 877 118 892 q 107 844 107 862 q 110 814 107 828 q 122 788 114 799 q 140 770 129 777 q 163 764 150 764 q 189 769 177 764 q 212 784 202 774 q 228 808 222 794 q 234 843 234 823 m 294 870 q 281 807 294 836 q 247 757 268 778 q 200 723 226 735 q 149 712 175 712 q 108 720 127 712 q 75 742 89 728 q 54 775 62 756 q 47 816 47 794 q 59 880 47 851 q 93 931 72 910 q 139 965 114 953 q 191 977 165 977 q 231 968 212 977 q 264 945 250 960 q 286 911 278 930 q 294 870 294 892 "},"ú":{"x_min":27.265625,"x_max":710.359375,"ha":721,"o":"m 710 55 q 662 25 685 39 q 620 1 639 11 q 585 -14 600 -8 q 563 -20 571 -20 q 524 11 539 -20 q 510 112 510 42 q 432 44 466 70 q 369 4 398 18 q 316 -14 340 -9 q 270 -20 292 -20 q 211 -11 239 -20 q 160 20 182 -2 q 125 84 138 44 q 113 189 113 125 l 113 482 q 111 533 113 515 q 100 560 109 551 q 75 572 92 569 q 27 579 57 576 l 27 606 q 72 613 51 609 q 112 623 93 617 q 152 635 132 628 q 194 651 172 642 l 213 625 l 213 226 q 219 147 213 179 q 239 96 226 115 q 271 69 252 77 q 314 61 290 61 q 357 67 335 61 q 403 87 380 73 q 452 123 427 101 q 508 177 478 145 l 508 483 q 505 532 508 513 q 492 560 502 550 q 463 574 482 570 q 414 579 445 579 l 414 606 q 506 625 462 612 q 588 651 550 638 l 608 625 l 608 172 q 610 103 608 130 q 623 70 613 77 q 650 68 631 65 q 703 86 669 71 l 710 55 m 333 710 q 312 718 321 712 q 295 729 303 723 l 450 1010 q 471 1007 458 1009 q 499 1004 484 1006 q 526 999 513 1002 q 547 994 540 996 l 562 968 l 333 710 "},"¯":{"x_min":110.984375,"x_max":560.265625,"ha":671,"o":"m 560 868 q 555 851 558 861 q 548 831 552 841 q 540 812 544 822 q 534 797 537 803 l 125 797 l 110 813 q 115 830 112 821 q 122 850 118 840 q 130 869 126 859 q 138 885 134 878 l 545 885 l 560 868 "},"Z":{"x_min":39.578125,"x_max":655,"ha":712,"o":"m 655 198 q 655 150 655 177 q 655 97 655 124 q 655 45 655 70 q 655 0 655 19 l 58 0 l 39 30 l 512 787 l 207 787 q 183 779 196 787 q 159 755 171 772 q 136 714 147 739 q 118 653 125 688 l 80 661 l 100 865 q 132 858 118 861 q 162 855 147 855 q 191 855 176 855 l 635 855 l 652 825 l 183 68 l 531 68 q 556 74 545 68 q 578 96 567 80 q 599 139 588 112 q 622 208 609 166 l 655 198 "},"u":{"x_min":27.265625,"x_max":710.359375,"ha":721,"o":"m 710 55 q 662 25 685 39 q 620 1 639 11 q 585 -14 600 -8 q 563 -20 571 -20 q 524 11 539 -20 q 510 112 510 42 q 432 44 466 70 q 369 4 398 18 q 316 -14 340 -9 q 270 -20 292 -20 q 211 -11 239 -20 q 160 20 182 -2 q 125 84 138 44 q 113 189 113 125 l 113 482 q 111 533 113 515 q 100 560 109 551 q 75 572 92 569 q 27 579 57 576 l 27 606 q 72 613 51 609 q 112 623 93 617 q 152 635 132 628 q 194 651 172 642 l 213 625 l 213 226 q 219 147 213 179 q 239 96 226 115 q 271 69 252 77 q 314 61 290 61 q 357 67 335 61 q 403 87 380 73 q 452 123 427 101 q 508 177 478 145 l 508 483 q 505 532 508 513 q 492 560 502 550 q 463 574 482 570 q 414 579 445 579 l 414 606 q 506 625 462 612 q 588 651 550 638 l 608 625 l 608 172 q 610 103 608 130 q 623 70 613 77 q 650 68 631 65 q 703 86 669 71 l 710 55 "},"k":{"x_min":37,"x_max":681.265625,"ha":681,"o":"m 37 1 l 37 29 q 105 49 80 41 q 130 70 130 58 l 130 879 q 126 927 130 910 q 112 952 122 944 q 83 963 102 961 q 37 970 65 966 l 37 997 q 127 1019 82 1006 q 205 1051 171 1031 l 230 1028 l 230 359 l 434 542 q 461 573 456 561 q 459 591 465 585 q 438 599 453 597 q 406 602 423 602 l 406 631 l 658 631 l 658 602 q 604 590 628 598 q 551 559 579 583 l 324 374 l 574 75 q 594 56 584 64 q 616 45 604 49 q 643 41 628 41 q 677 41 658 41 l 681 13 q 643 4 661 8 q 607 -1 624 1 q 578 -4 591 -3 q 558 -6 565 -6 q 514 2 531 -6 q 482 29 497 10 l 230 354 l 230 70 q 232 61 230 65 q 241 52 234 57 q 263 43 249 48 q 303 29 278 37 l 303 1 l 37 1 "},"Ù":{"x_min":33,"x_max":847,"ha":890,"o":"m 847 825 q 776 804 801 816 q 751 783 751 793 l 751 355 q 729 197 751 266 q 668 79 708 127 q 571 5 628 30 q 442 -20 514 -20 q 316 0 374 -20 q 218 58 259 18 q 153 158 176 98 q 130 301 130 218 l 130 783 q 105 804 130 791 q 33 825 81 816 l 33 855 l 332 855 l 332 825 q 261 804 286 816 q 236 783 236 793 l 236 335 q 250 218 236 270 q 295 131 265 167 q 368 76 325 95 q 468 58 411 58 q 552 81 516 58 q 614 142 589 104 q 652 229 639 180 q 665 327 665 277 l 665 783 q 640 804 665 791 q 568 825 616 816 l 568 855 l 847 855 l 847 825 m 567 958 q 553 938 558 945 q 537 927 548 932 l 226 1092 l 231 1122 q 246 1135 236 1128 q 268 1148 256 1141 q 291 1162 280 1156 q 310 1173 302 1168 l 567 958 "},"Ů":{"x_min":33,"x_max":847,"ha":890,"o":"m 847 825 q 776 804 801 816 q 751 783 751 793 l 751 355 q 729 197 751 266 q 668 79 708 127 q 571 5 628 30 q 442 -20 514 -20 q 316 0 374 -20 q 218 58 259 18 q 153 158 176 98 q 130 301 130 218 l 130 783 q 105 804 130 791 q 33 825 81 816 l 33 855 l 332 855 l 332 825 q 261 804 286 816 q 236 783 236 793 l 236 335 q 250 218 236 270 q 295 131 265 167 q 368 76 325 95 q 468 58 411 58 q 552 81 516 58 q 614 142 589 104 q 652 229 639 180 q 665 327 665 277 l 665 783 q 640 804 665 791 q 568 825 615 816 l 568 855 l 847 855 l 847 825 m 513 1060 q 509 1091 513 1076 q 497 1117 505 1106 q 479 1135 490 1128 q 456 1142 469 1142 q 429 1136 442 1142 q 407 1120 417 1130 q 391 1094 397 1109 q 386 1061 386 1079 q 389 1031 386 1045 q 401 1005 393 1016 q 419 987 408 994 q 442 981 429 981 q 468 986 456 981 q 491 1001 481 991 q 507 1025 501 1011 q 513 1060 513 1040 m 573 1088 q 560 1024 573 1053 q 526 974 547 995 q 479 940 505 952 q 428 929 454 929 q 387 937 406 929 q 354 959 368 945 q 333 992 341 973 q 326 1033 326 1011 q 338 1097 326 1068 q 372 1148 351 1127 q 418 1182 393 1170 q 470 1194 444 1194 q 510 1185 491 1194 q 543 1162 529 1177 q 565 1128 557 1147 q 573 1088 573 1109 "},"¢":{"x_min":69,"x_max":573.71875,"ha":638,"o":"m 170 417 q 181 331 170 370 q 212 264 192 293 q 258 215 231 234 q 315 186 284 196 l 315 655 q 259 632 285 649 q 213 585 232 615 q 181 515 193 556 q 170 417 170 473 m 375 -5 q 364 -14 369 -11 q 355 -19 359 -17 q 345 -23 351 -21 q 331 -27 339 -25 l 315 -11 l 315 88 q 223 109 267 88 q 145 169 179 130 q 89 265 110 208 q 69 396 69 322 q 87 509 69 456 q 137 604 105 562 q 215 675 170 646 q 315 719 261 705 l 315 823 q 328 832 324 829 q 335 837 332 835 q 343 840 338 838 q 357 844 347 841 l 375 829 l 375 730 q 390 731 382 731 q 407 731 398 731 q 452 727 429 731 q 496 716 475 723 q 535 699 517 709 q 564 677 553 690 q 562 655 565 670 q 553 623 559 640 q 539 592 547 607 q 526 568 532 577 l 503 575 q 486 598 497 585 q 461 623 476 611 q 424 643 445 634 q 375 656 402 653 l 375 178 q 408 179 392 178 q 443 189 424 181 q 487 215 462 198 q 547 265 511 233 l 573 237 q 512 169 539 196 q 461 125 485 142 q 417 100 438 109 q 375 90 396 92 l 375 -5 "},"é":{"x_min":53,"x_max":575,"ha":628,"o":"m 329 580 q 266 566 294 580 q 215 528 237 552 q 177 469 192 503 q 156 394 162 435 l 440 394 q 461 399 456 394 q 466 418 466 404 q 461 464 466 436 q 441 517 456 491 q 399 561 426 543 q 329 580 372 580 m 575 378 q 543 353 563 364 q 501 333 523 341 l 153 333 q 166 232 153 280 q 205 147 180 184 q 267 89 231 111 q 349 68 303 68 q 389 70 369 68 q 431 82 408 73 q 481 110 454 92 q 546 160 509 129 q 561 146 555 155 q 571 132 567 137 q 492 52 526 83 q 429 6 459 22 q 371 -14 400 -9 q 308 -20 342 -20 q 211 2 257 -20 q 130 65 165 24 q 73 164 94 106 q 53 294 53 222 q 62 384 53 339 q 91 467 72 428 q 138 539 110 506 q 200 597 165 573 q 232 617 214 607 q 271 634 251 627 q 310 646 290 642 q 348 651 330 651 q 425 638 391 651 q 484 606 458 626 q 526 557 509 585 q 554 500 543 530 q 570 438 565 469 q 575 378 575 406 m 310 709 q 288 717 298 712 q 272 728 279 722 l 427 1009 q 448 1007 435 1009 q 475 1003 461 1005 q 503 998 489 1001 q 523 994 516 996 l 539 967 l 310 709 "},"B":{"x_min":27.015625,"x_max":675,"ha":748,"o":"m 273 817 q 254 817 264 817 q 235 817 244 817 l 235 491 l 257 491 q 380 506 333 491 q 453 545 427 521 q 488 598 479 568 q 497 657 497 628 q 486 720 497 691 q 450 771 476 749 q 381 804 424 792 q 273 817 338 817 m 344 440 q 285 436 312 440 q 235 429 258 433 l 235 70 q 240 60 235 64 q 266 53 252 55 q 296 49 281 50 q 327 48 312 48 q 356 48 342 48 q 442 60 404 48 q 509 95 481 73 q 551 149 536 117 q 566 218 566 180 q 553 294 566 255 q 513 366 540 333 q 444 419 486 398 q 344 440 402 440 m 675 243 q 652 140 675 186 q 590 62 630 94 q 493 12 549 29 q 370 -5 438 -5 q 335 -5 356 -5 q 292 -5 315 -5 q 244 -5 269 -5 q 196 -5 219 -5 q 81 -5 141 -5 l 33 -5 l 33 28 q 103 49 78 38 q 129 70 129 60 l 129 806 q 79 799 103 803 q 33 791 55 795 l 27 834 q 87 848 52 841 q 159 861 121 855 q 236 871 197 867 q 311 875 275 875 q 431 862 377 875 q 522 826 485 849 q 580 768 560 802 q 601 691 601 734 q 567 565 601 618 q 474 489 533 512 q 553 459 517 481 q 617 404 590 437 q 659 330 644 372 q 675 243 675 289 "},"…":{"x_min":87,"x_max":843,"ha":910,"o":"m 245 83 q 238 39 245 59 q 218 4 231 19 q 189 -18 206 -10 q 153 -27 172 -27 q 102 -7 117 -27 q 87 48 87 12 q 94 91 87 71 q 114 127 101 111 q 143 151 126 142 q 179 160 160 160 q 228 140 212 160 q 245 83 245 120 m 544 83 q 537 39 544 59 q 517 4 530 19 q 488 -18 505 -10 q 452 -27 471 -27 q 401 -7 416 -27 q 386 48 386 12 q 393 91 386 71 q 413 127 400 111 q 442 151 425 142 q 478 160 459 160 q 527 140 511 160 q 544 83 544 120 m 843 83 q 836 39 843 59 q 816 4 829 19 q 787 -18 804 -10 q 751 -27 770 -27 q 700 -7 715 -27 q 685 48 685 12 q 692 91 685 71 q 712 127 699 111 q 741 151 724 142 q 777 160 758 160 q 826 140 810 160 q 843 83 843 120 "},"ē":{"x_min":53,"x_max":575,"ha":628,"o":"m 329 580 q 266 566 294 580 q 215 528 237 552 q 177 469 192 503 q 156 394 162 435 l 440 394 q 461 399 456 394 q 466 418 466 404 q 461 464 466 436 q 441 517 456 491 q 399 561 426 543 q 329 580 372 580 m 575 378 q 543 353 563 364 q 501 333 523 341 l 153 333 q 166 232 153 280 q 205 147 180 184 q 267 89 231 111 q 349 68 303 68 q 389 70 369 68 q 431 82 408 73 q 481 110 454 92 q 546 160 509 129 q 561 146 555 155 q 571 132 567 137 q 492 52 526 83 q 429 6 459 22 q 371 -14 400 -9 q 308 -20 342 -20 q 211 2 257 -20 q 130 65 165 24 q 73 164 94 106 q 53 294 53 222 q 62 384 53 339 q 91 467 72 428 q 138 539 110 506 q 200 597 165 573 q 232 617 214 607 q 271 634 251 627 q 310 646 290 642 q 348 651 330 651 q 425 638 391 651 q 484 606 458 626 q 526 557 509 585 q 554 500 543 530 q 570 438 565 469 q 575 378 575 406 m 569 868 q 565 851 568 861 q 557 831 561 841 q 550 812 553 822 q 543 797 546 803 l 135 797 l 121 813 q 125 830 122 821 q 133 850 129 840 q 141 869 137 859 q 148 885 145 878 l 555 885 l 569 868 "},"H":{"x_min":33,"x_max":844,"ha":890,"o":"m 33 0 l 33 29 q 104 49 78 38 q 130 70 130 60 l 130 783 q 105 803 130 791 q 33 825 81 815 l 33 854 l 332 854 l 332 825 q 261 804 286 815 q 236 783 236 792 l 236 478 l 641 478 l 641 783 q 617 803 641 791 q 545 825 592 815 l 545 854 l 844 854 l 844 825 q 772 804 798 815 q 747 783 747 792 l 747 70 q 771 50 747 62 q 844 29 795 38 l 844 0 l 545 0 l 545 29 q 615 49 590 38 q 641 70 641 60 l 641 417 l 236 417 l 236 70 q 259 50 236 62 q 332 29 283 38 l 332 0 l 33 0 "},"î":{"x_min":-20.78125,"x_max":400.125,"ha":370,"o":"m 47 0 l 47 29 q 115 49 92 38 q 139 70 139 61 l 139 454 q 139 510 139 488 q 130 543 139 531 q 101 560 121 555 q 47 569 82 566 l 47 596 q 90 606 67 600 q 136 619 113 612 q 179 634 158 626 q 217 651 200 642 l 240 651 l 240 70 q 262 50 240 62 q 333 29 284 38 l 333 0 l 47 0 m 400 740 q 387 721 392 727 q 371 710 382 715 l 189 891 l 9 710 q 0 715 3 712 q -6 721 -3 718 q -12 729 -9 724 q -20 740 -16 734 l 154 997 l 226 997 l 400 740 "},"¥":{"x_min":-44.375,"x_max":663,"ha":638,"o":"m 157 0 l 157 29 q 241 55 217 42 q 266 78 266 68 l 266 296 l 85 296 l 70 313 q 77 335 73 323 q 85 358 81 347 l 266 358 l 266 393 q 217 493 242 443 q 166 588 192 542 q 115 673 140 634 q 67 742 89 713 q 53 756 61 750 q 34 768 46 763 q 4 776 22 773 q -41 780 -13 780 l -44 809 q 34 819 -5 814 q 101 823 73 823 q 153 797 131 823 q 200 730 177 764 q 243 657 222 695 q 286 577 265 619 q 331 486 308 534 l 474 742 q 467 770 484 760 q 400 787 451 780 l 400 817 l 663 817 l 663 787 q 593 769 618 778 q 559 742 569 760 l 372 392 l 372 358 l 552 358 l 569 342 l 552 296 l 372 296 l 372 78 q 377 68 372 74 q 396 55 383 62 q 430 42 409 49 q 483 29 451 35 l 483 0 l 157 0 "},"Ĥ":{"x_min":33,"x_max":844,"ha":890,"o":"m 33 0 l 33 29 q 104 49 78 38 q 130 70 130 60 l 130 783 q 105 803 130 791 q 33 825 81 815 l 33 854 l 332 854 l 332 825 q 261 804 286 815 q 236 783 236 792 l 236 478 l 641 478 l 641 783 q 617 803 641 791 q 545 825 592 815 l 545 854 l 844 854 l 844 825 q 772 804 798 815 q 747 783 747 792 l 747 70 q 771 50 747 62 q 844 29 795 38 l 844 0 l 545 0 l 545 29 q 615 49 590 38 q 641 70 641 60 l 641 417 l 236 417 l 236 70 q 259 50 236 62 q 332 29 283 38 l 332 0 l 33 0 m 648 957 q 636 938 640 944 q 620 926 631 932 l 437 1067 l 257 926 q 248 932 252 929 q 242 938 245 935 q 236 946 239 941 q 228 957 232 951 l 403 1166 l 474 1166 l 648 957 "},"U":{"x_min":33,"x_max":847,"ha":890,"o":"m 847 825 q 776 804 801 816 q 751 783 751 793 l 751 355 q 729 197 751 266 q 668 79 708 127 q 571 5 628 30 q 442 -20 514 -20 q 316 0 374 -20 q 218 58 259 18 q 153 158 176 98 q 130 301 130 218 l 130 783 q 105 804 130 791 q 33 825 81 816 l 33 855 l 332 855 l 332 825 q 261 804 286 816 q 236 783 236 793 l 236 335 q 250 218 236 270 q 295 131 265 167 q 368 76 325 95 q 468 58 411 58 q 552 81 516 58 q 614 142 589 104 q 652 229 639 180 q 665 327 665 277 l 665 783 q 640 804 665 791 q 568 825 616 816 l 568 855 l 847 855 l 847 825 "},"Ñ":{"x_min":33,"x_max":851,"ha":884,"o":"m 33 0 l 33 29 q 105 48 82 35 q 129 70 129 61 l 129 778 q 83 810 107 799 q 33 824 58 820 l 33 854 l 173 854 q 190 852 183 854 q 203 845 196 850 q 217 829 209 839 q 237 801 224 818 l 674 187 l 674 782 q 652 804 674 790 q 578 824 630 817 l 578 854 l 851 854 l 851 824 q 778 805 802 818 q 754 782 754 792 l 754 -20 q 701 -6 720 -16 q 674 14 682 2 l 209 673 l 209 70 q 231 49 209 62 q 305 29 253 36 l 305 0 l 33 0 m 668 1103 q 639 1048 656 1075 q 602 999 622 1020 q 558 963 582 977 q 508 950 534 950 q 464 961 485 950 q 423 988 443 973 q 383 1015 403 1003 q 345 1027 364 1027 q 296 1004 318 1027 q 250 944 274 982 l 214 958 q 243 1013 226 986 q 280 1062 259 1041 q 324 1098 300 1084 q 373 1112 347 1112 q 421 1100 398 1112 q 464 1073 444 1088 q 502 1046 484 1058 q 535 1035 520 1035 q 585 1056 561 1035 q 632 1118 609 1078 l 668 1103 "},"F":{"x_min":33,"x_max":595,"ha":650,"o":"m 33 0 l 33 28 q 104 49 78 38 q 130 70 130 60 l 130 782 q 105 803 130 790 q 33 824 81 815 l 33 854 l 575 854 l 595 837 q 592 798 595 819 q 586 756 589 777 q 578 716 582 735 q 569 684 573 697 l 538 684 q 534 736 538 715 q 523 770 530 757 q 507 787 516 782 q 484 793 497 793 l 236 793 l 236 498 l 484 498 l 503 479 q 489 458 497 469 q 472 437 481 447 q 455 417 464 426 q 441 403 447 409 q 419 420 431 413 q 393 432 408 427 q 358 438 378 436 q 310 441 338 441 l 236 441 l 236 70 q 261 51 236 61 q 352 28 287 41 l 352 0 l 33 0 "},"ā":{"x_min":53,"x_max":615.6875,"ha":625,"o":"m 233 68 q 318 88 273 68 q 414 154 363 109 l 414 329 q 321 311 358 320 q 262 293 285 302 q 225 273 239 284 q 200 252 211 263 q 172 210 183 234 q 162 155 162 187 q 169 111 162 128 q 189 84 177 94 q 212 71 200 74 q 233 68 225 68 m 615 55 q 522 -2 559 15 q 466 -20 485 -20 q 429 11 444 -20 q 415 97 415 42 q 354 44 384 66 q 295 7 324 21 q 241 -13 267 -6 q 194 -20 215 -20 q 145 -12 170 -20 q 99 13 120 -3 q 66 59 79 31 q 53 126 53 86 q 70 212 53 177 q 112 271 88 246 q 149 302 128 288 q 202 330 169 317 q 287 356 236 344 q 414 380 337 368 l 414 475 q 408 518 414 498 q 390 552 403 538 q 356 575 378 567 q 302 583 334 583 q 260 576 281 583 q 224 557 239 569 q 200 527 209 544 q 193 490 191 511 q 180 476 194 484 q 146 463 166 469 q 107 453 126 456 q 80 452 88 450 l 71 478 q 118 543 86 512 q 189 598 149 575 q 274 636 229 622 q 361 651 319 651 q 474 611 434 651 q 514 503 514 572 l 514 120 q 521 80 514 92 q 540 68 528 68 q 564 71 549 68 q 605 86 579 74 l 615 55 m 550 868 q 545 851 549 861 q 538 831 542 841 q 530 812 534 822 q 524 797 527 803 l 115 797 l 100 813 q 105 830 102 821 q 112 850 108 840 q 120 869 116 859 q 128 885 124 878 l 535 885 l 550 868 "},"Ĩ":{"x_min":-30.09375,"x_max":423.09375,"ha":406,"o":"m 47 0 l 47 29 q 118 49 92 38 q 144 70 144 61 l 144 782 q 119 803 144 790 q 47 824 95 815 l 47 854 l 346 854 l 346 824 q 275 803 300 815 q 250 782 250 792 l 250 70 q 274 50 250 62 q 346 29 298 38 l 346 0 l 47 0 m 423 1103 q 394 1048 411 1075 q 357 999 378 1020 q 313 963 337 977 q 263 950 289 950 q 219 961 240 950 q 179 988 198 973 q 139 1015 159 1003 q 100 1027 119 1027 q 51 1004 73 1027 q 5 944 29 982 l -30 958 q -1 1013 -18 986 q 35 1062 14 1041 q 79 1098 55 1084 q 129 1112 103 1112 q 177 1100 154 1112 q 219 1073 199 1088 q 257 1046 239 1058 q 291 1035 275 1035 q 340 1056 316 1035 q 387 1118 364 1078 l 423 1103 "},"ă":{"x_min":53,"x_max":615.6875,"ha":625,"o":"m 233 68 q 318 88 273 68 q 414 154 363 109 l 414 329 q 321 311 358 320 q 262 293 285 302 q 225 273 239 284 q 200 252 211 263 q 172 210 183 234 q 162 155 162 187 q 169 111 162 128 q 189 84 177 94 q 212 71 200 74 q 233 68 225 68 m 615 55 q 522 -2 559 15 q 466 -21 485 -21 q 429 10 444 -21 q 415 97 415 41 q 354 44 384 66 q 295 7 324 21 q 241 -14 267 -7 q 194 -21 215 -21 q 145 -12 170 -21 q 99 12 120 -4 q 66 58 79 30 q 53 125 53 86 q 70 211 53 177 q 112 271 88 246 q 149 302 128 288 q 202 330 169 317 q 287 356 236 344 q 414 380 337 368 l 414 475 q 408 518 414 498 q 390 552 403 538 q 356 575 378 567 q 302 583 334 583 q 260 576 281 583 q 224 557 239 569 q 200 527 209 544 q 193 490 191 511 q 180 476 194 484 q 146 463 166 469 q 107 453 126 456 q 80 452 88 450 l 71 478 q 118 543 86 512 q 189 598 149 575 q 274 636 229 622 q 361 651 319 651 q 474 611 434 651 q 514 503 514 572 l 514 120 q 521 80 514 92 q 540 68 528 68 q 564 71 549 68 q 605 86 579 74 l 615 55 m 535 922 q 490 829 515 867 q 437 768 465 792 q 380 735 410 745 q 320 725 350 725 q 257 735 287 725 q 198 768 226 745 q 147 829 171 792 q 102 922 122 867 q 118 940 110 934 q 138 952 126 947 q 176 887 154 914 q 221 845 197 861 q 270 822 245 829 q 317 815 295 815 q 366 822 341 815 q 416 845 392 829 q 462 887 440 861 q 500 952 484 914 q 519 940 511 947 q 535 922 527 934 "},"*":{"x_min":47,"x_max":561,"ha":608,"o":"m 324 805 l 498 938 q 530 916 512 929 q 561 893 549 904 l 561 865 l 345 769 l 544 682 q 544 642 544 665 q 537 604 544 619 l 512 588 l 325 731 l 350 512 q 334 503 343 508 q 316 494 325 498 q 297 485 306 489 q 281 480 288 482 l 255 493 l 283 731 l 109 598 q 93 609 102 603 q 75 621 84 615 q 59 633 66 627 q 47 644 51 638 l 47 673 l 262 768 l 61 855 q 63 874 63 863 q 63 895 63 884 q 64 916 63 906 q 69 933 66 926 l 92 948 l 282 804 l 256 1026 q 273 1034 263 1030 q 292 1044 282 1039 q 311 1052 301 1049 q 327 1058 320 1056 l 351 1044 l 324 805 "},"†":{"x_min":46.734375,"x_max":602.578125,"ha":649,"o":"m 602 728 q 578 676 593 705 q 548 622 564 647 q 456 646 502 638 q 355 654 410 654 q 360 557 355 607 q 379 461 366 508 q 360 310 360 386 q 360 169 360 234 q 360 85 360 130 q 360 0 360 40 q 332 -15 348 -9 q 301 -26 316 -21 l 282 -12 q 286 80 286 32 q 286 169 286 128 q 286 311 286 236 q 266 461 286 386 q 284 558 279 508 q 290 655 290 608 q 231 652 259 655 q 175 645 203 649 q 120 635 148 641 q 63 622 93 629 l 46 651 q 70 703 56 674 q 101 757 84 731 q 190 733 145 741 q 290 725 235 725 q 282 842 290 786 q 256 948 274 897 q 310 979 281 965 q 360 1003 338 994 l 389 986 q 365 856 373 922 q 357 727 357 790 q 415 727 387 727 q 472 731 444 727 q 528 743 500 736 q 585 757 556 750 l 602 728 "},"°":{"x_min":93,"x_max":394,"ha":487,"o":"m 322 674 q 317 712 322 694 q 302 744 312 730 q 280 766 293 758 q 251 775 267 775 q 219 768 234 775 q 192 748 204 761 q 173 717 180 735 q 166 677 166 699 q 170 639 166 657 q 184 607 175 621 q 206 585 193 594 q 236 577 219 577 q 267 583 252 577 q 294 602 282 589 q 314 633 307 615 q 322 674 322 651 m 394 709 q 378 631 394 667 q 336 570 362 596 q 280 529 311 544 q 218 515 249 515 q 168 525 191 515 q 128 553 144 535 q 102 593 111 570 q 93 643 93 616 q 108 720 93 685 q 149 782 124 756 q 205 823 174 808 q 268 838 237 838 q 317 827 294 838 q 357 799 340 816 q 384 758 374 781 q 394 709 394 734 "},"å":{"x_min":53,"x_max":615.6875,"ha":625,"o":"m 233 68 q 318 88 273 68 q 414 154 363 109 l 414 329 q 321 311 358 320 q 262 293 285 302 q 225 273 239 284 q 200 252 211 263 q 172 210 183 234 q 162 155 162 187 q 169 111 162 128 q 189 84 177 94 q 212 71 200 74 q 233 68 225 68 m 615 55 q 522 -2 559 15 q 466 -21 485 -21 q 429 10 444 -21 q 415 97 415 41 q 354 44 384 66 q 295 7 324 21 q 241 -14 267 -7 q 194 -21 216 -21 q 145 -12 170 -21 q 99 12 120 -4 q 66 58 79 30 q 53 125 53 86 q 70 211 53 177 q 112 271 88 246 q 149 302 128 288 q 202 330 169 317 q 287 356 236 344 q 414 380 337 368 l 414 475 q 408 518 414 498 q 390 552 403 538 q 356 575 378 567 q 302 583 334 583 q 260 576 280 583 q 224 557 239 569 q 200 527 209 544 q 193 490 191 511 q 180 476 194 484 q 146 463 165 469 q 107 453 126 456 q 80 452 88 450 l 71 478 q 118 543 86 512 q 189 598 149 575 q 274 636 229 622 q 361 651 319 651 q 474 611 434 651 q 514 503 514 572 l 514 120 q 521 80 514 92 q 540 68 528 68 q 564 71 549 68 q 605 86 579 74 l 615 55 m 383 843 q 379 874 383 859 q 367 900 375 889 q 349 918 360 911 q 325 925 339 925 q 299 919 311 925 q 276 903 286 913 q 261 877 267 892 q 255 844 255 862 q 259 814 255 828 q 270 788 263 799 q 288 770 277 777 q 312 764 299 764 q 338 769 325 764 q 361 784 351 774 q 377 808 371 794 q 383 843 383 823 m 443 870 q 430 807 443 836 q 396 757 417 778 q 349 723 375 735 q 298 712 323 712 q 256 720 275 712 q 224 742 237 728 q 202 775 210 756 q 195 816 195 794 q 208 880 195 851 q 241 931 221 910 q 287 965 262 953 q 339 977 313 977 q 380 968 361 977 q 413 945 399 960 q 435 911 427 930 q 443 870 443 892 "},"0":{"x_min":51,"x_max":589,"ha":640,"o":"m 480 383 q 465 547 480 476 q 427 664 451 617 q 372 735 403 711 q 307 760 340 760 q 245 741 273 760 q 199 683 218 722 q 170 583 180 644 q 160 437 160 522 q 173 273 160 344 q 209 154 186 202 q 264 82 232 106 q 332 58 295 58 q 394 76 367 58 q 441 134 422 95 q 470 236 460 174 q 480 383 480 297 m 589 408 q 568 243 589 321 q 511 106 548 165 q 422 14 474 48 q 307 -20 370 -20 q 195 14 243 -20 q 115 106 148 48 q 67 243 83 165 q 51 408 51 321 q 71 574 51 496 q 129 710 92 652 q 217 803 166 769 q 332 838 269 838 q 444 804 396 838 q 524 711 491 770 q 572 575 556 653 q 589 408 589 496 "},"ō":{"x_min":53,"x_max":631.015625,"ha":684,"o":"m 528 309 q 510 411 528 362 q 466 496 493 459 q 404 555 438 533 q 336 577 369 577 q 251 557 285 577 q 195 503 216 537 q 165 422 174 469 q 156 321 156 375 q 174 219 156 267 q 221 133 193 170 q 283 75 249 97 q 347 54 317 54 q 429 72 395 54 q 484 123 462 90 q 517 203 506 157 q 528 309 528 250 m 631 329 q 619 240 631 283 q 588 158 608 197 q 540 86 568 119 q 479 30 512 53 q 407 -6 445 6 q 329 -20 369 -20 q 215 4 266 -20 q 128 71 164 28 q 72 173 92 114 q 53 301 53 232 q 63 389 53 346 q 94 472 74 433 q 141 544 114 511 q 202 600 169 576 q 275 638 236 624 q 355 651 314 651 q 468 627 417 651 q 555 559 519 602 q 611 457 591 516 q 631 329 631 398 m 586 868 q 581 851 585 861 q 574 831 578 841 q 566 812 570 822 q 560 797 563 803 l 152 797 l 137 813 q 142 830 138 821 q 149 850 145 840 q 157 869 153 859 q 164 885 161 878 l 571 885 l 586 868 "},"”":{"x_min":58.59375,"x_max":531,"ha":593,"o":"m 251 878 q 242 821 251 852 q 215 760 233 790 q 173 701 198 729 q 117 652 149 673 l 87 676 q 111 709 101 690 q 129 748 122 729 q 139 785 136 767 q 143 816 143 803 q 125 870 143 847 q 69 893 107 893 l 58 924 q 83 943 64 932 q 126 963 103 953 q 171 979 149 973 q 205 986 193 986 q 239 941 227 964 q 251 878 251 917 m 531 878 q 522 821 531 852 q 495 760 513 790 q 454 701 478 729 q 397 652 429 673 l 369 676 q 393 709 383 690 q 410 748 403 729 q 421 785 417 767 q 425 816 425 803 q 406 870 425 847 q 349 893 387 893 l 339 924 q 363 943 344 932 q 406 963 383 953 q 451 979 429 973 q 485 986 474 986 q 519 941 507 964 q 531 878 531 917 "},"ŵ":{"x_min":13,"x_max":947,"ha":961,"o":"m 947 601 q 914 592 926 597 q 895 583 902 588 q 885 573 888 579 q 880 559 882 567 l 733 40 q 718 14 729 25 q 692 -2 706 4 q 664 -13 678 -9 q 642 -20 651 -17 l 484 439 l 348 40 q 332 14 343 24 q 307 -3 321 3 q 281 -14 294 -10 q 259 -20 268 -17 l 85 559 q 13 601 79 586 l 13 631 l 270 631 l 270 601 q 218 594 237 598 q 192 583 200 589 q 184 572 184 578 q 186 559 184 565 l 311 129 l 475 631 l 521 631 l 693 129 l 808 559 q 794 584 812 575 q 731 601 776 594 l 731 631 l 947 631 l 947 601 m 708 740 q 695 721 700 728 q 679 710 691 715 l 497 892 l 317 710 q 308 715 312 713 q 302 721 305 718 q 295 730 299 725 q 287 740 292 734 l 463 998 l 534 998 l 708 740 "},"ö":{"x_min":53,"x_max":631.015625,"ha":684,"o":"m 528 309 q 510 411 528 362 q 466 496 493 459 q 404 555 438 533 q 336 577 369 577 q 251 557 285 577 q 195 503 216 537 q 165 422 174 469 q 156 321 156 375 q 174 219 156 267 q 221 133 193 170 q 283 75 249 97 q 347 54 317 54 q 429 72 395 54 q 484 123 462 90 q 517 203 506 157 q 528 309 528 250 m 631 329 q 619 240 631 283 q 588 158 608 197 q 540 86 568 119 q 479 30 512 53 q 407 -6 445 6 q 329 -20 369 -20 q 215 4 266 -20 q 128 71 164 28 q 72 173 92 114 q 53 301 53 232 q 63 389 53 346 q 94 472 74 433 q 141 544 114 511 q 202 600 169 576 q 275 638 236 624 q 355 651 314 651 q 468 627 417 651 q 555 559 519 602 q 611 457 591 516 q 631 329 631 398 m 555 855 q 549 819 555 836 q 532 790 543 802 q 508 770 522 777 q 477 763 494 763 q 434 779 447 763 q 422 827 422 796 q 427 863 422 846 q 444 893 433 880 q 468 912 455 905 q 498 920 482 920 q 555 855 555 920 m 289 855 q 283 819 289 836 q 266 790 277 802 q 242 770 256 777 q 211 763 228 763 q 168 779 181 763 q 156 827 156 796 q 161 863 156 846 q 178 893 167 880 q 202 912 189 905 q 232 920 216 920 q 289 855 289 920 "},"Õ":{"x_min":47,"x_max":757,"ha":817,"o":"m 653 426 q 645 519 653 473 q 622 606 637 565 q 584 682 606 647 q 534 742 562 716 q 473 782 506 767 q 402 797 439 797 q 295 771 342 797 q 216 698 249 746 q 167 584 184 651 q 150 434 150 517 q 170 290 150 358 q 224 171 190 223 q 304 90 259 120 q 402 61 350 61 q 503 84 457 61 q 583 153 549 107 q 635 268 616 200 q 653 426 653 337 m 757 439 q 727 263 757 346 q 645 117 697 180 q 526 17 594 54 q 382 -20 458 -20 q 240 15 302 -20 q 135 112 177 51 q 69 251 92 172 q 47 415 47 329 q 76 590 47 507 q 156 737 105 674 q 274 837 206 800 q 421 875 342 875 q 566 838 503 875 q 671 740 628 801 q 735 600 713 679 q 757 439 757 521 m 636 1103 q 607 1048 624 1075 q 570 999 590 1020 q 526 963 550 977 q 476 950 502 950 q 432 961 453 950 q 391 988 411 973 q 351 1015 371 1003 q 312 1027 332 1027 q 264 1004 286 1027 q 217 944 242 982 l 182 958 q 210 1013 194 986 q 247 1062 227 1041 q 291 1098 268 1084 q 341 1112 315 1112 q 389 1100 366 1112 q 431 1073 411 1088 q 469 1046 451 1058 q 503 1035 487 1035 q 553 1056 528 1035 q 600 1118 577 1078 l 636 1103 "},"ć":{"x_min":53,"x_max":558.40625,"ha":595,"o":"m 558 129 q 482 47 515 76 q 421 2 449 17 q 366 -16 393 -12 q 309 -20 340 -20 q 214 2 260 -20 q 132 65 168 24 q 74 166 96 106 q 53 301 53 226 q 79 438 53 374 q 151 549 105 502 q 258 624 196 596 q 392 651 320 651 q 437 647 414 651 q 480 637 459 644 q 519 620 501 629 q 548 598 537 610 q 546 574 549 589 q 537 543 543 560 q 523 511 531 526 q 510 486 516 496 l 485 493 q 468 519 480 505 q 437 547 456 534 q 392 568 418 560 q 332 577 366 577 q 264 561 297 577 q 207 513 232 545 q 167 433 182 481 q 153 322 153 386 q 169 217 153 264 q 215 137 186 170 q 280 85 243 103 q 357 68 317 68 q 391 69 375 68 q 426 80 407 71 q 470 106 445 89 q 532 156 495 124 l 558 129 m 297 710 q 275 718 285 712 q 259 729 266 723 l 414 1010 q 435 1007 422 1009 q 463 1004 448 1006 q 490 999 477 1002 q 511 994 503 996 l 526 968 l 297 710 "},"þ":{"x_min":37,"x_max":669,"ha":722,"o":"m 579 276 q 565 397 579 343 q 529 488 551 450 q 476 546 506 526 q 414 566 446 566 q 383 558 402 566 q 339 533 364 551 q 287 486 315 515 q 230 413 259 456 l 230 144 q 327 82 281 103 q 420 61 374 61 q 487 79 458 61 q 537 128 516 97 q 568 197 557 158 q 579 276 579 235 m 669 333 q 658 253 669 294 q 629 172 648 211 q 585 97 611 133 q 527 36 559 62 q 458 -4 495 10 q 381 -20 421 -20 q 354 -16 371 -20 q 318 -4 338 -12 q 275 17 298 4 q 230 50 253 30 l 230 -253 q 255 -275 230 -264 q 343 -295 280 -286 l 343 -325 l 37 -325 l 37 -295 q 105 -275 80 -285 q 130 -253 130 -265 l 130 878 q 126 926 130 909 q 111 951 122 943 q 83 963 101 960 q 37 969 64 966 l 37 996 q 125 1017 84 1006 q 205 1051 165 1029 l 230 1028 l 230 496 q 297 567 263 538 q 360 615 330 596 q 414 642 389 634 q 459 651 440 651 q 543 629 504 651 q 609 566 581 607 q 653 466 637 525 q 669 333 669 407 "},"]":{"x_min":27.640625,"x_max":326,"ha":420,"o":"m 50 -227 l 28 -207 q 35 -174 30 -191 q 45 -149 40 -157 l 233 -149 l 233 1007 l 50 1007 l 27 1024 q 35 1056 29 1039 q 45 1085 40 1073 l 326 1085 l 326 -227 l 50 -227 "},"ĭ":{"x_min":-26.09375,"x_max":406.109375,"ha":370,"o":"m 47 0 l 47 29 q 115 49 92 38 q 139 70 139 61 l 139 454 q 139 510 139 488 q 130 543 139 531 q 101 560 121 555 q 47 569 82 566 l 47 596 q 90 606 67 600 q 136 619 113 612 q 179 634 158 626 q 217 651 200 642 l 240 651 l 240 70 q 262 50 240 62 q 333 29 284 38 l 333 0 l 47 0 m 406 922 q 361 829 386 867 q 308 768 336 792 q 251 735 281 745 q 191 725 221 725 q 128 735 158 725 q 69 768 97 745 q 18 829 42 792 q -26 922 -6 867 q -10 940 -18 934 q 9 952 -2 947 q 47 887 25 914 q 92 845 68 861 q 141 822 116 829 q 188 815 166 815 q 237 822 211 815 q 287 845 263 829 q 333 887 311 861 q 370 952 354 914 q 390 940 382 947 q 406 922 398 934 "},"8":{"x_min":62,"x_max":576,"ha":638,"o":"m 182 644 q 196 592 182 614 q 234 553 210 570 q 289 521 258 536 q 353 492 320 506 q 422 563 402 527 q 443 636 443 599 q 432 697 443 671 q 403 740 422 723 q 358 765 385 757 q 299 774 331 774 q 247 762 269 774 q 210 732 225 750 q 189 690 196 713 q 182 644 182 667 m 470 210 q 454 286 470 254 q 413 341 438 318 q 355 381 387 364 q 287 414 322 398 q 233 367 255 390 q 196 321 210 344 q 174 271 181 297 q 168 214 168 244 q 179 148 168 178 q 212 95 190 117 q 263 60 233 73 q 332 48 294 48 q 395 62 368 48 q 438 99 421 76 q 462 151 454 122 q 470 210 470 180 m 576 239 q 554 139 576 186 q 494 56 532 92 q 406 0 456 21 q 299 -20 355 -20 q 198 -2 242 -20 q 123 45 154 15 q 77 113 93 74 q 62 193 62 151 q 74 264 62 230 q 109 329 86 298 q 164 387 132 360 q 236 437 196 414 q 182 466 207 450 q 137 504 156 483 q 107 554 118 526 q 96 620 96 582 q 114 707 96 667 q 164 776 132 747 q 240 821 196 805 q 333 838 283 838 q 422 824 383 838 q 488 787 461 810 q 529 730 515 763 q 543 657 543 696 q 532 603 543 629 q 504 554 522 578 q 461 509 486 531 q 407 466 436 487 q 470 430 440 450 q 524 383 501 410 q 562 321 548 356 q 576 239 576 285 "},"꞊":{"x_min":39.875,"x_max":410.0625,"ha":450,"o":"m 410 247 q 400 215 406 232 q 390 186 394 198 l 56 186 l 39 204 q 48 234 43 217 q 60 264 54 250 l 393 264 l 410 247 m 410 422 q 400 391 406 409 l 390 363 l 56 363 l 39 380 q 48 410 43 393 q 60 440 54 427 l 393 440 l 410 422 "},"R":{"x_min":27.015625,"x_max":756.890625,"ha":764,"o":"m 33 0 l 33 29 q 104 49 78 38 q 130 70 130 60 l 130 806 q 82 799 106 803 q 33 792 57 795 l 27 834 q 90 849 58 842 q 156 862 122 856 q 229 871 191 868 q 311 875 267 875 q 445 859 388 875 q 540 816 502 843 q 597 750 578 788 q 616 669 616 712 q 602 581 616 620 q 563 510 588 541 q 504 458 538 480 q 428 424 469 437 l 629 94 q 651 69 639 78 q 677 56 663 60 q 709 52 691 52 q 749 54 726 52 l 756 25 q 673 0 713 10 q 608 -9 633 -9 q 570 1 588 -9 q 542 27 552 12 l 341 408 q 324 407 332 407 l 306 407 q 271 408 288 407 q 236 414 254 410 l 236 70 q 259 50 236 62 q 332 29 283 38 l 332 0 l 33 0 m 287 817 q 236 817 261 817 l 236 469 q 267 465 253 465 q 295 465 280 465 q 456 511 400 465 q 512 648 512 558 q 500 716 512 685 q 459 769 487 747 q 389 804 431 792 q 287 817 346 817 "},"Ż":{"x_min":38.828125,"x_max":654,"ha":711,"o":"m 654 198 q 654 150 654 177 q 654 97 654 124 q 654 45 654 70 q 654 0 654 19 l 58 0 l 38 30 l 511 787 l 206 787 q 183 779 195 787 q 158 755 170 772 q 135 714 146 739 q 117 653 125 688 l 80 661 l 99 865 q 132 858 117 861 q 161 855 147 855 q 191 855 175 855 l 634 855 l 651 825 l 183 68 l 530 68 q 555 74 544 68 q 577 96 567 80 q 598 139 587 112 q 621 208 608 166 l 654 198 m 435 1044 q 429 1008 435 1025 q 412 979 423 991 q 388 959 402 966 q 357 952 374 952 q 314 968 327 952 q 302 1016 302 985 q 307 1052 302 1035 q 324 1082 313 1069 q 348 1101 335 1094 q 378 1109 362 1109 q 435 1044 435 1109 "},"o":{"x_min":53,"x_max":631.015625,"ha":684,"o":"m 528 309 q 510 411 528 362 q 466 496 493 459 q 404 555 438 533 q 336 577 369 577 q 251 557 285 577 q 195 503 216 537 q 165 422 174 469 q 156 321 156 375 q 174 219 156 267 q 221 133 193 170 q 283 75 249 97 q 347 54 317 54 q 429 72 395 54 q 484 123 462 90 q 517 203 506 157 q 528 309 528 250 m 631 329 q 619 240 631 283 q 588 158 608 197 q 540 86 568 119 q 479 30 512 53 q 407 -6 445 6 q 329 -20 369 -20 q 215 4 266 -20 q 128 71 164 28 q 72 173 92 114 q 53 301 53 232 q 63 389 53 346 q 94 472 74 433 q 141 544 114 511 q 202 600 169 576 q 275 638 236 624 q 355 651 314 651 q 468 627 417 651 q 555 559 519 602 q 611 457 591 516 q 631 329 631 398 "},"5":{"x_min":51.953125,"x_max":555,"ha":638,"o":"m 555 278 q 537 165 555 219 q 486 70 519 111 q 403 4 452 28 q 292 -20 354 -20 q 170 3 230 -20 q 51 81 109 26 l 75 126 q 139 86 110 101 q 192 62 168 71 q 237 51 217 54 q 277 48 258 48 q 353 64 320 48 q 406 109 385 81 q 438 174 427 138 q 449 249 449 210 q 438 333 449 295 q 404 397 427 371 q 348 439 382 424 q 267 454 314 454 q 235 451 253 454 q 198 440 218 447 q 159 423 178 434 q 122 400 139 413 l 91 422 q 100 479 95 446 q 111 547 105 511 q 122 620 117 583 q 133 694 128 658 q 141 761 138 729 q 145 817 145 793 l 435 817 q 468 818 454 817 q 494 823 483 820 q 515 829 505 825 l 534 809 q 517 786 527 798 q 498 764 507 775 q 478 744 488 753 q 460 729 468 735 l 203 729 q 199 678 203 709 q 191 615 196 647 q 182 554 187 583 q 175 511 177 526 q 237 524 201 519 q 307 529 273 529 q 413 508 367 529 q 491 453 460 487 q 538 373 522 418 q 555 278 555 327 "},"õ":{"x_min":53,"x_max":631.015625,"ha":684,"o":"m 528 309 q 510 411 528 362 q 466 496 493 459 q 404 555 438 533 q 336 577 369 577 q 251 557 285 577 q 195 503 216 537 q 165 422 174 469 q 156 321 156 375 q 174 219 156 267 q 221 133 193 170 q 283 75 249 97 q 347 54 317 54 q 429 72 395 54 q 484 123 462 90 q 517 203 506 157 q 528 309 528 250 m 631 329 q 619 240 631 283 q 588 158 608 197 q 540 86 568 119 q 479 30 512 53 q 407 -6 445 6 q 329 -20 369 -20 q 215 4 266 -20 q 128 71 164 28 q 72 173 92 114 q 53 301 53 232 q 63 389 53 346 q 94 472 74 433 q 141 544 114 511 q 202 600 169 576 q 275 638 236 624 q 355 651 314 651 q 468 627 417 651 q 555 559 519 602 q 611 457 591 516 q 631 329 631 398 m 581 913 q 553 858 569 885 q 516 809 536 830 q 472 773 496 787 q 422 760 448 760 q 378 771 399 760 q 337 798 357 783 q 297 825 317 813 q 258 837 278 837 q 210 814 232 837 q 163 754 188 792 l 128 768 q 157 823 140 796 q 193 872 173 851 q 238 908 214 894 q 287 922 261 922 q 335 910 312 922 q 377 883 357 898 q 415 856 397 868 q 449 845 433 845 q 499 866 474 845 q 545 928 523 888 l 581 913 "},",":{"x_min":58.28125,"x_max":259,"ha":312,"o":"m 259 48 q 248 -11 259 21 q 219 -79 238 -44 q 172 -147 199 -114 q 110 -206 144 -180 l 80 -182 q 111 -140 98 -161 q 133 -99 124 -120 q 146 -53 142 -77 q 150 0 150 -29 q 130 46 150 28 q 68 64 111 64 l 58 94 q 83 113 64 102 q 125 133 102 123 q 170 149 148 143 q 205 156 193 156 q 248 113 237 140 q 259 48 259 86 "},"d":{"x_min":53,"x_max":698.015625,"ha":707,"o":"m 698 57 q 643 21 667 36 q 601 -2 619 7 q 570 -15 583 -11 q 548 -20 557 -20 q 512 10 526 -20 q 498 114 498 40 q 446 58 471 83 q 394 16 421 33 q 339 -10 368 -1 q 276 -20 310 -20 q 199 2 239 -20 q 127 65 160 24 q 73 166 94 106 q 53 301 53 226 q 63 381 53 340 q 92 461 73 422 q 140 534 112 500 q 202 595 167 569 q 278 636 237 621 q 366 651 319 651 q 428 643 397 651 q 495 608 459 636 l 495 865 q 493 925 495 903 q 481 959 491 947 q 453 975 472 971 q 398 980 433 980 l 398 1007 q 496 1027 453 1015 q 573 1051 539 1040 l 595 1031 l 595 172 q 595 131 595 148 q 597 103 595 114 q 601 84 599 91 q 608 72 604 76 q 632 67 614 64 q 689 86 649 70 l 698 57 m 495 177 l 495 495 q 433 555 473 534 q 345 577 393 577 q 267 561 303 577 q 207 513 232 545 q 167 433 181 481 q 153 322 153 386 q 169 217 153 264 q 210 137 185 170 q 266 85 236 103 q 323 68 296 68 q 368 77 346 68 q 411 102 390 87 q 453 137 432 117 q 495 177 474 156 "},"Ꞌ":{"x_min":112,"x_max":218,"ha":340,"o":"m 218 477 q 196 471 209 474 q 169 467 183 469 q 140 464 155 465 q 112 463 125 463 l 112 1031 q 130 1041 117 1035 q 157 1054 143 1048 q 183 1065 171 1060 q 202 1071 196 1069 l 218 1053 l 218 477 "},"\"":{"x_min":106.03125,"x_max":458,"ha":578,"o":"m 219 565 q 203 559 212 562 q 183 555 193 557 q 161 552 172 553 q 141 551 150 551 l 106 966 q 127 976 113 970 q 156 987 141 982 q 184 997 171 993 q 205 1003 197 1001 l 219 989 l 219 565 m 458 565 q 442 559 451 562 q 421 555 432 557 q 400 552 411 553 q 379 551 389 551 l 344 966 q 365 976 351 970 q 394 987 378 982 q 423 997 409 993 q 444 1003 436 1001 l 458 989 l 458 565 "},"˙":{"x_min":66,"x_max":199,"ha":265,"o":"m 199 854 q 193 818 199 835 q 176 789 187 801 q 152 769 166 776 q 121 762 138 762 q 78 778 91 762 q 66 826 66 795 q 71 862 66 845 q 88 892 77 879 q 112 911 99 904 q 142 919 126 919 q 199 854 199 919 "},"ê":{"x_min":53,"x_max":575,"ha":628,"o":"m 329 580 q 266 566 294 580 q 215 528 237 552 q 177 469 192 503 q 156 394 162 435 l 440 394 q 461 399 456 394 q 466 418 466 404 q 461 464 466 436 q 441 517 456 491 q 399 561 426 543 q 329 580 372 580 m 575 378 q 543 353 563 364 q 501 333 523 341 l 153 333 q 166 232 153 280 q 205 147 180 184 q 267 89 231 111 q 349 68 303 68 q 389 70 369 68 q 431 82 408 73 q 481 110 454 92 q 546 160 509 129 q 561 146 555 155 q 571 132 567 137 q 492 52 526 83 q 429 6 459 22 q 371 -14 400 -9 q 308 -20 342 -20 q 211 2 257 -20 q 130 65 165 24 q 73 164 94 106 q 53 294 53 222 q 62 384 53 339 q 91 467 72 428 q 138 539 110 506 q 200 597 165 573 q 232 617 214 607 q 271 634 251 627 q 310 646 290 642 q 348 651 330 651 q 425 638 391 651 q 484 606 458 626 q 526 557 509 585 q 554 500 543 530 q 570 438 565 469 q 575 378 575 406 m 548 740 q 535 721 540 727 q 519 710 531 715 l 338 891 l 158 710 q 149 715 152 712 q 142 721 145 718 q 136 729 139 724 q 128 740 133 734 l 303 997 l 374 997 l 548 740 "},"„":{"x_min":58.59375,"x_max":531,"ha":611,"o":"m 251 41 q 242 -15 251 15 q 215 -76 233 -46 q 173 -135 198 -107 q 117 -184 149 -163 l 87 -161 q 111 -127 101 -146 q 129 -88 122 -107 q 139 -51 136 -69 q 143 -20 143 -33 q 125 33 143 10 q 69 56 107 56 l 58 87 q 83 106 64 95 q 126 126 103 116 q 171 142 149 136 q 205 149 193 149 q 239 104 227 127 q 251 41 251 80 m 531 41 q 522 -15 531 15 q 495 -76 513 -46 q 454 -135 478 -107 q 397 -184 429 -163 l 369 -161 q 393 -127 383 -146 q 410 -88 403 -107 q 421 -51 417 -69 q 425 -20 425 -33 q 406 33 425 10 q 349 56 387 56 l 339 87 q 363 106 344 95 q 406 126 383 116 q 451 142 429 136 q 485 149 474 149 q 519 104 507 127 q 531 41 531 80 "},"Â":{"x_min":0,"x_max":796,"ha":810,"o":"m 504 363 l 386 711 l 272 363 l 504 363 m 252 302 l 179 75 q 197 45 172 54 q 276 29 221 35 l 276 0 l 0 0 l 0 29 q 71 46 45 37 q 104 75 98 55 l 352 839 q 390 869 367 856 q 430 893 412 883 l 709 75 q 718 58 712 66 q 734 45 724 51 q 759 36 744 40 q 796 29 774 32 l 796 0 l 516 0 l 516 31 q 587 41 567 31 q 600 75 607 52 l 524 302 l 252 302 m 608 957 q 595 938 600 944 q 579 927 590 932 l 397 1068 l 216 927 q 208 932 211 929 q 201 938 204 935 q 195 946 198 942 q 187 957 191 951 l 362 1167 l 434 1167 l 608 957 "},"ė":{"x_min":53,"x_max":575,"ha":628,"o":"m 329 580 q 266 566 294 580 q 215 528 237 552 q 177 469 192 503 q 156 394 162 435 l 440 394 q 461 399 456 394 q 466 418 466 404 q 461 464 466 436 q 441 517 456 491 q 399 561 426 543 q 329 580 372 580 m 575 378 q 543 353 563 364 q 501 333 523 341 l 153 333 q 166 232 153 280 q 205 147 180 184 q 267 89 231 111 q 349 68 303 68 q 389 70 369 68 q 431 82 408 73 q 481 110 454 92 q 546 160 509 129 q 561 146 555 155 q 571 132 567 137 q 492 52 526 83 q 429 6 459 22 q 371 -14 400 -9 q 308 -20 342 -20 q 211 2 257 -20 q 130 65 165 24 q 73 164 94 106 q 53 294 53 222 q 62 384 53 339 q 91 467 72 428 q 138 539 110 506 q 199 597 165 573 q 232 617 214 607 q 270 634 251 627 q 310 646 290 642 q 347 651 330 651 q 424 638 391 651 q 484 606 458 626 q 526 557 509 585 q 554 500 543 530 q 570 438 565 469 q 575 378 575 406 m 405 855 q 399 819 405 836 q 382 790 393 802 q 358 770 372 777 q 327 763 344 763 q 284 779 297 763 q 272 827 272 796 q 277 863 272 846 q 294 893 283 880 q 318 912 305 905 q 348 920 332 920 q 405 855 405 920 "},"Í":{"x_min":47,"x_max":420.4375,"ha":406,"o":"m 47 0 l 47 29 q 118 49 92 38 q 144 70 144 61 l 144 782 q 119 803 144 790 q 47 824 95 815 l 47 854 l 346 854 l 346 824 q 275 803 300 815 q 250 782 250 792 l 250 70 q 274 50 250 62 q 346 29 298 38 l 346 0 l 47 0 m 109 926 q 92 937 97 931 q 79 957 87 944 l 336 1172 q 353 1161 342 1167 q 377 1147 365 1155 q 399 1134 389 1140 q 414 1121 409 1127 l 420 1091 l 109 926 "},"´":{"x_min":144.21875,"x_max":411.390625,"ha":434,"o":"m 182 709 q 161 717 170 712 q 144 728 152 722 l 299 1009 q 321 1007 307 1009 q 348 1003 334 1005 q 375 998 362 1000 q 396 994 388 996 l 411 967 l 182 709 "},"Ú":{"x_min":33,"x_max":847,"ha":890,"o":"m 847 825 q 776 804 801 816 q 751 783 751 793 l 751 355 q 729 197 751 266 q 668 79 708 127 q 571 5 628 30 q 442 -20 514 -20 q 316 0 374 -20 q 218 58 259 18 q 153 158 176 98 q 130 301 130 218 l 130 783 q 105 804 130 791 q 33 825 81 816 l 33 855 l 332 855 l 332 825 q 261 804 286 816 q 236 783 236 793 l 236 335 q 250 218 236 270 q 295 131 265 167 q 368 76 325 95 q 468 58 411 58 q 552 81 516 58 q 614 142 589 104 q 652 229 639 180 q 665 327 665 277 l 665 783 q 640 804 665 791 q 568 825 616 816 l 568 855 l 847 855 l 847 825 m 361 927 q 345 938 350 932 q 332 958 340 945 l 589 1173 q 607 1162 596 1168 q 630 1148 618 1156 q 652 1135 642 1141 q 668 1122 662 1128 l 674 1092 l 361 927 "},"Ŷ":{"x_min":-0.265625,"x_max":781,"ha":808,"o":"m 239 0 l 239 29 q 323 55 299 42 q 348 78 348 68 l 348 364 q 292 478 323 419 q 228 594 260 538 q 165 699 195 651 q 111 780 134 748 q 97 794 105 788 q 78 806 90 801 q 48 814 66 811 q 2 818 30 818 l 0 846 q 78 856 38 852 q 145 861 117 861 q 197 834 175 861 q 250 757 221 802 q 307 663 278 713 q 363 562 335 614 q 413 461 390 510 l 592 780 q 585 808 602 798 q 518 825 569 818 l 518 854 l 781 854 l 781 825 q 711 807 735 816 q 677 780 686 798 l 454 366 l 454 78 q 459 68 454 73 q 478 55 465 62 q 512 42 491 48 q 565 29 533 35 l 565 0 l 239 0 m 611 957 q 598 938 603 944 q 582 926 594 932 l 400 1067 l 220 926 q 211 932 215 929 q 204 938 207 934 q 198 946 201 941 q 190 957 195 951 l 365 1166 l 436 1166 l 611 957 "},"ŝ":{"x_min":53.03125,"x_max":473.640625,"ha":525,"o":"m 465 192 q 451 109 465 144 q 417 51 438 75 q 369 13 395 28 q 318 -7 343 0 q 271 -17 293 -15 q 236 -20 248 -20 q 159 -7 204 -20 q 70 29 114 4 q 64 51 65 31 q 63 97 63 71 q 66 150 63 123 q 74 192 69 176 l 104 184 q 117 131 104 156 q 153 87 130 106 q 205 58 175 69 q 269 48 234 48 q 313 55 293 48 q 348 77 333 63 q 370 111 362 91 q 379 154 379 130 q 364 202 379 181 q 327 240 350 223 q 274 273 303 258 q 213 304 244 288 q 159 335 185 319 q 113 371 133 351 q 81 417 93 392 q 69 474 69 442 q 85 549 69 516 q 129 604 102 582 q 192 639 157 627 q 266 651 228 651 q 311 647 287 651 q 361 636 336 643 q 406 620 385 629 q 441 598 427 611 q 442 580 445 594 q 432 549 439 566 q 419 517 426 532 q 408 497 412 502 l 382 502 q 316 570 350 551 q 249 590 281 590 q 209 582 227 590 q 179 563 192 575 q 161 537 167 551 q 155 508 155 522 q 167 469 155 487 q 201 437 180 452 q 248 408 221 421 q 302 379 274 394 q 360 347 331 364 q 412 308 389 330 q 450 258 435 286 q 465 192 465 230 m 473 740 q 461 721 465 727 q 445 710 456 715 l 263 891 l 82 710 q 73 715 77 712 q 67 721 70 718 q 61 729 64 724 q 53 740 57 734 l 228 997 l 299 997 l 473 740 "},"Ý":{"x_min":-0.265625,"x_max":781,"ha":808,"o":"m 239 0 l 239 29 q 323 55 299 42 q 348 78 348 68 l 348 364 q 292 478 323 419 q 228 594 260 538 q 165 699 195 651 q 111 780 134 748 q 97 794 105 788 q 78 806 90 801 q 48 814 66 811 q 2 818 30 818 l 0 846 q 78 856 38 852 q 145 861 117 861 q 197 834 175 861 q 250 757 221 802 q 307 663 278 713 q 363 562 335 614 q 413 461 390 510 l 592 780 q 585 808 602 798 q 518 825 569 818 l 518 854 l 781 854 l 781 825 q 711 807 735 816 q 677 780 686 798 l 454 366 l 454 78 q 459 68 454 73 q 478 55 465 62 q 512 42 491 48 q 565 29 533 35 l 565 0 l 239 0 m 313 926 q 297 937 302 931 q 283 957 292 944 l 540 1172 q 558 1161 547 1168 q 582 1148 570 1155 q 604 1134 594 1141 q 619 1122 614 1127 l 625 1091 l 313 926 "},"Ĉ":{"x_min":47,"x_max":677.046875,"ha":730,"o":"m 677 143 q 595 65 634 97 q 520 15 556 34 q 449 -11 484 -3 q 379 -20 414 -20 q 258 8 318 -20 q 152 90 199 36 q 75 221 104 144 q 47 397 47 299 q 79 594 47 506 q 166 744 111 682 q 294 841 221 807 q 449 875 368 875 q 575 855 521 875 q 664 807 629 835 q 662 793 668 803 q 646 770 656 783 q 624 744 635 757 q 604 723 612 731 l 581 727 q 500 780 547 759 q 393 800 454 800 q 344 791 371 800 q 290 765 317 783 q 237 717 263 746 q 192 645 212 687 q 161 548 173 603 q 150 422 150 493 q 175 264 150 332 q 241 151 201 196 q 331 83 281 106 q 427 61 380 61 q 521 86 463 61 q 652 173 579 111 q 659 167 655 172 q 666 158 663 163 q 672 149 669 153 q 677 143 675 145 m 618 957 q 605 938 610 944 q 589 927 601 932 l 407 1068 l 227 927 q 218 932 222 929 q 212 938 215 935 q 205 946 209 942 q 197 957 202 951 l 373 1167 l 444 1167 l 618 957 "},"Ö":{"x_min":47,"x_max":757,"ha":817,"o":"m 653 426 q 645 519 653 473 q 622 606 637 565 q 584 682 606 647 q 534 742 562 716 q 473 782 506 767 q 402 797 439 797 q 295 771 342 797 q 216 698 249 746 q 167 584 184 651 q 150 434 150 517 q 170 290 150 358 q 224 171 190 223 q 304 90 259 120 q 402 61 350 61 q 503 84 457 61 q 583 153 549 107 q 635 268 616 200 q 653 426 653 337 m 757 439 q 727 263 757 346 q 645 117 697 180 q 526 17 594 54 q 382 -20 458 -20 q 240 15 302 -20 q 135 112 177 51 q 69 251 92 172 q 47 415 47 329 q 76 590 47 507 q 156 737 105 674 q 274 837 206 800 q 421 875 342 875 q 566 838 503 875 q 671 740 628 801 q 735 600 713 679 q 757 439 757 521 m 609 1045 q 603 1009 609 1026 q 586 980 597 992 q 562 960 576 967 q 531 953 548 953 q 488 969 501 953 q 476 1017 476 986 q 481 1053 476 1036 q 498 1083 487 1070 q 522 1102 509 1095 q 552 1110 536 1110 q 609 1045 609 1110 m 343 1045 q 337 1009 343 1026 q 320 980 331 992 q 296 960 310 967 q 265 953 282 953 q 222 969 235 953 q 210 1017 210 986 q 215 1053 210 1036 q 232 1083 221 1070 q 256 1102 243 1095 q 286 1110 270 1110 q 343 1045 343 1110 "},"z":{"x_min":50.453125,"x_max":549.984375,"ha":602,"o":"m 548 168 q 548 121 548 146 q 548 74 548 97 q 548 31 548 51 q 543 0 548 12 l 67 0 l 50 30 l 419 569 l 189 569 q 167 564 178 569 q 146 549 156 560 q 127 518 136 538 q 111 467 118 498 l 85 475 l 85 641 q 117 634 105 637 q 142 631 129 631 q 170 631 155 631 l 535 631 l 549 601 l 179 61 l 460 61 q 490 87 476 61 q 520 174 504 113 l 548 168 "},"Ř":{"x_min":27.015625,"x_max":756.890625,"ha":764,"o":"m 33 0 l 33 29 q 104 49 78 38 q 130 70 130 60 l 130 806 q 82 799 106 803 q 33 792 57 795 l 27 834 q 90 849 58 842 q 156 862 122 856 q 229 871 191 868 q 311 875 267 875 q 445 859 388 875 q 540 816 502 843 q 597 750 578 788 q 616 669 616 712 q 602 581 616 620 q 563 510 588 541 q 504 458 538 480 q 428 424 469 437 l 629 94 q 651 69 639 78 q 677 56 663 60 q 709 52 691 52 q 749 54 726 52 l 756 25 q 673 0 713 10 q 608 -9 633 -9 q 570 1 588 -9 q 542 27 552 12 l 341 408 q 324 407 332 407 l 306 407 q 271 408 288 407 q 236 414 254 410 l 236 70 q 259 50 236 62 q 332 29 283 38 l 332 0 l 33 0 m 287 817 q 236 817 261 817 l 236 469 q 267 465 253 465 q 295 465 280 465 q 456 511 400 465 q 512 648 512 558 q 500 716 512 685 q 459 769 487 747 q 389 804 431 792 q 287 817 346 817 m 381 943 l 310 943 l 135 1151 q 143 1162 139 1157 q 149 1170 146 1167 q 156 1176 152 1174 q 165 1183 159 1179 l 347 1039 l 526 1183 q 542 1170 538 1176 q 555 1151 547 1164 l 381 943 "},"ã":{"x_min":53,"x_max":615.6875,"ha":625,"o":"m 233 68 q 318 88 273 68 q 414 154 363 109 l 414 329 q 321 311 358 320 q 262 293 285 302 q 225 273 239 284 q 200 252 211 263 q 172 210 183 234 q 162 155 162 187 q 169 111 162 128 q 189 84 177 94 q 212 71 200 74 q 233 68 225 68 m 615 55 q 522 -2 559 15 q 466 -21 485 -21 q 429 10 444 -21 q 415 97 415 41 q 354 44 384 66 q 295 7 324 21 q 241 -14 267 -7 q 194 -21 215 -21 q 145 -12 170 -21 q 99 12 120 -4 q 66 58 79 30 q 53 125 53 86 q 70 211 53 177 q 112 271 88 246 q 149 302 128 288 q 202 330 169 317 q 287 356 236 344 q 414 380 337 368 l 414 475 q 408 518 414 498 q 390 552 403 538 q 356 575 378 567 q 302 583 334 583 q 260 576 281 583 q 224 557 239 569 q 200 527 209 544 q 193 490 191 511 q 180 476 194 484 q 146 463 166 469 q 107 453 126 456 q 80 452 88 450 l 71 478 q 118 543 86 512 q 189 598 149 575 q 274 636 229 622 q 361 651 319 651 q 474 611 434 651 q 514 503 514 572 l 514 120 q 521 80 514 92 q 540 68 528 68 q 564 71 549 68 q 605 86 579 74 l 615 55 m 545 912 q 517 857 533 884 q 480 808 500 830 q 436 773 460 787 q 386 760 412 760 q 341 771 362 760 q 300 798 320 783 q 261 824 281 812 q 222 836 241 836 q 173 814 195 836 q 127 754 152 792 l 92 768 q 120 823 104 795 q 157 872 136 850 q 201 907 177 893 q 251 921 225 921 q 298 909 276 921 q 341 883 321 897 q 379 856 361 868 q 413 845 397 845 q 463 866 438 845 q 510 927 487 888 l 545 912 "},"Ň":{"x_min":33,"x_max":851,"ha":884,"o":"m 33 0 l 33 29 q 105 48 82 35 q 129 70 129 61 l 129 778 q 83 810 107 799 q 33 824 58 820 l 33 854 l 173 854 q 190 852 183 854 q 203 845 196 850 q 217 829 209 839 q 237 801 224 818 l 674 187 l 674 782 q 652 804 674 790 q 578 824 630 817 l 578 854 l 851 854 l 851 824 q 778 805 802 818 q 754 782 754 792 l 754 -20 q 701 -6 720 -16 q 674 14 682 2 l 209 673 l 209 70 q 231 49 209 62 q 305 29 253 36 l 305 0 l 33 0 m 477 943 l 406 943 l 230 1151 q 238 1162 235 1157 q 245 1170 242 1167 q 251 1176 248 1174 q 260 1183 255 1179 l 443 1039 l 623 1183 q 638 1170 634 1176 q 651 1151 643 1164 l 477 943 "},"æ":{"x_min":53,"x_max":889,"ha":942,"o":"m 889 378 q 855 352 875 364 q 814 332 835 340 l 515 332 q 514 308 514 320 l 514 283 q 524 206 514 244 q 554 137 534 168 q 603 88 574 107 q 669 70 632 70 q 709 72 690 70 q 749 83 728 74 q 797 111 771 93 q 858 160 823 129 q 873 147 867 156 q 883 133 880 138 q 810 54 843 84 q 746 7 777 24 q 687 -14 716 -8 q 627 -20 658 -20 q 569 -10 598 -20 q 516 17 541 0 q 471 62 491 35 q 437 122 451 88 q 375 60 408 86 q 308 15 341 33 q 245 -11 275 -2 q 194 -20 215 -20 q 145 -11 170 -20 q 99 13 120 -3 q 66 59 79 31 q 53 126 53 87 q 68 203 53 166 q 115 272 84 240 q 194 330 146 304 q 307 375 242 356 q 357 386 329 382 q 414 390 384 390 l 414 448 q 410 499 414 474 q 394 542 406 523 q 363 571 383 560 q 310 583 342 583 q 264 573 289 583 q 221 546 240 563 q 193 506 202 529 q 193 458 183 483 q 181 445 195 452 q 147 431 167 437 q 108 422 128 425 q 80 421 88 419 l 71 445 q 90 498 74 472 q 130 546 106 523 q 184 588 154 569 q 244 621 213 607 q 303 643 274 635 q 355 651 332 651 q 448 626 413 651 q 497 553 482 602 q 542 599 518 580 q 590 629 566 618 q 638 645 615 640 q 680 651 661 651 q 752 639 721 651 q 806 607 783 627 q 845 560 829 587 q 871 503 861 533 q 885 440 881 473 q 889 378 889 408 m 423 165 q 416 205 418 185 q 414 248 414 225 l 414 329 q 374 326 392 329 q 349 321 357 324 q 205 253 249 296 q 162 155 162 211 q 169 111 162 128 q 189 84 177 94 q 212 71 200 74 q 233 68 225 68 q 274 74 251 68 q 321 92 296 80 q 372 122 346 104 q 423 165 398 141 m 660 583 q 625 575 645 583 q 585 547 605 568 q 547 489 565 526 q 521 394 529 452 l 752 394 q 772 399 766 394 q 778 418 778 404 q 771 480 778 450 q 750 532 764 510 q 714 569 736 555 q 660 583 692 583 "},"ĩ":{"x_min":-36.734375,"x_max":416.75,"ha":370,"o":"m 47 0 l 47 29 q 115 49 92 38 q 139 70 139 61 l 139 454 q 139 510 139 488 q 130 543 139 531 q 101 560 121 555 q 47 569 82 566 l 47 596 q 90 606 67 600 q 136 619 113 612 q 179 634 158 626 q 217 651 200 642 l 240 651 l 240 70 q 262 50 240 62 q 333 29 284 38 l 333 0 l 47 0 m 416 913 q 388 858 404 885 q 351 809 371 830 q 307 773 331 787 q 257 760 283 760 q 213 771 234 760 q 172 798 192 783 q 132 825 152 813 q 93 837 113 837 q 45 814 67 837 q -1 754 23 792 l -36 768 q -8 823 -24 796 q 28 872 7 851 q 72 908 49 894 q 122 922 96 922 q 170 910 147 922 q 212 883 192 898 q 250 856 232 868 q 284 845 268 845 q 334 866 309 845 q 380 928 358 888 l 416 913 "},"É":{"x_min":33,"x_max":633.859375,"ha":675,"o":"m 633 165 q 620 63 628 107 q 606 0 611 19 l 33 0 l 33 29 q 104 49 78 38 q 130 70 130 61 l 130 782 q 105 803 130 790 q 33 824 81 815 l 33 854 l 568 854 l 590 837 q 587 798 590 819 q 580 756 584 777 q 571 716 576 735 q 563 684 567 697 l 533 684 q 528 736 533 715 q 517 770 524 757 q 501 787 511 782 q 479 793 491 793 l 236 793 l 236 498 l 505 498 l 522 479 q 509 458 517 469 q 493 437 501 447 q 476 417 485 426 q 461 403 468 409 q 439 420 451 413 q 413 432 428 427 q 377 438 398 436 q 329 441 357 441 l 236 441 l 236 104 q 240 86 236 94 q 259 72 245 78 q 301 64 274 67 q 371 61 327 61 l 457 61 q 509 64 487 61 q 547 79 530 67 q 577 114 564 91 q 605 177 591 137 l 633 165 m 245 926 q 229 937 234 931 q 216 957 224 944 l 473 1172 q 491 1161 479 1167 q 514 1147 502 1155 q 536 1134 526 1140 q 551 1121 546 1127 l 557 1091 l 245 926 "},"~":{"x_min":32.5625,"x_max":631.375,"ha":664,"o":"m 631 524 q 596 455 617 490 q 548 390 574 419 q 492 341 522 360 q 430 323 461 323 q 370 339 402 323 q 307 377 339 356 q 243 414 275 397 q 183 431 212 431 q 123 404 150 431 q 67 321 95 378 l 32 339 q 68 408 46 373 q 115 473 89 444 q 172 522 142 503 q 233 541 202 541 q 296 524 264 541 q 360 487 328 507 q 422 449 392 466 q 479 433 452 433 q 539 459 511 433 q 596 541 568 485 l 631 524 "},"Ċ":{"x_min":47,"x_max":677.03125,"ha":730,"o":"m 677 143 q 595 65 634 97 q 520 15 556 34 q 449 -11 484 -3 q 379 -20 414 -20 q 258 8 318 -20 q 152 90 199 36 q 75 221 104 144 q 47 397 47 299 q 79 594 47 506 q 166 744 111 682 q 294 841 221 807 q 449 875 368 875 q 575 855 521 875 q 664 807 629 835 q 662 793 668 803 q 646 770 656 783 q 624 744 635 757 q 604 723 612 731 l 581 727 q 500 780 547 759 q 393 800 454 800 q 344 791 371 800 q 290 765 317 783 q 237 717 263 746 q 192 645 212 687 q 161 548 173 603 q 150 422 150 493 q 175 264 150 332 q 241 151 201 196 q 331 83 281 106 q 427 61 380 61 q 521 86 463 61 q 652 173 579 111 q 659 167 655 172 q 666 158 663 163 q 672 149 669 153 q 677 143 675 145 m 475 1045 q 469 1009 475 1026 q 452 980 463 992 q 428 960 442 967 q 397 953 414 953 q 354 969 367 953 q 342 1017 342 986 q 347 1053 342 1036 q 364 1083 353 1070 q 388 1102 375 1095 q 418 1110 402 1110 q 475 1045 475 1110 "},"³":{"x_min":24.78125,"x_max":390,"ha":447,"o":"m 390 575 q 376 510 390 540 q 338 457 363 480 q 276 421 312 434 q 195 408 240 408 q 109 423 153 408 q 24 475 66 439 l 40 502 q 79 480 61 489 q 114 465 97 470 q 148 458 131 460 q 182 456 165 456 q 270 482 237 456 q 303 561 303 509 q 292 613 303 592 q 265 646 282 633 q 229 665 249 659 q 190 670 209 670 l 180 670 q 174 670 177 670 q 169 669 172 669 q 158 667 165 668 l 152 699 q 218 722 193 709 q 255 748 242 734 q 272 776 268 762 q 276 802 276 790 q 271 830 276 817 q 258 854 267 843 q 233 871 248 865 q 197 878 218 878 q 144 861 162 878 q 131 816 126 844 q 95 804 116 808 q 54 801 73 801 l 41 813 q 56 849 41 830 q 96 885 71 868 q 154 912 121 901 q 223 923 187 923 q 285 913 259 923 q 328 887 311 903 q 353 851 345 871 q 362 810 362 830 q 355 779 362 794 q 336 749 348 763 q 305 723 323 735 q 264 704 287 711 q 314 690 291 701 q 354 662 337 679 q 380 622 370 644 q 390 575 390 599 "},"¡":{"x_min":102,"x_max":260,"ha":370,"o":"m 229 -327 q 184 -359 207 -344 q 142 -382 161 -374 l 129 -368 l 129 359 q 159 375 146 370 q 195 386 172 380 l 229 373 l 229 -327 m 260 575 q 252 532 260 552 q 232 496 245 512 q 203 472 220 481 q 168 464 187 464 q 118 484 134 464 q 102 542 102 504 q 109 585 102 565 q 128 620 116 605 q 157 643 140 635 q 194 652 174 652 q 244 631 229 652 q 260 575 260 611 "},"[":{"x_min":93,"x_max":392.03125,"ha":419,"o":"m 392 -168 q 383 -198 388 -182 q 372 -227 378 -215 l 93 -227 l 93 1085 l 368 1085 l 390 1067 q 382 1032 387 1050 q 372 1007 376 1015 l 186 1007 l 186 -149 l 368 -149 l 392 -168 "},"%":{"x_min":51,"x_max":889,"ha":940,"o":"m 794 196 q 785 278 794 243 q 763 337 777 313 q 731 371 749 360 q 694 383 713 383 q 665 373 679 383 q 640 343 651 363 q 621 294 628 324 q 615 225 615 265 q 622 140 615 176 q 642 81 629 104 q 673 46 655 58 q 712 35 691 35 q 743 45 729 35 q 769 75 758 55 q 787 126 780 95 q 794 196 794 156 m 889 209 q 873 121 889 162 q 830 48 857 79 q 768 -1 804 16 q 694 -20 733 -20 q 623 -1 656 -20 q 567 48 591 16 q 531 121 544 79 q 518 209 518 162 q 534 298 518 256 q 577 370 550 339 q 639 420 604 402 q 712 438 674 438 q 784 420 752 438 q 840 371 817 402 q 876 298 863 340 q 889 209 889 257 m 238 11 q 220 2 232 7 q 195 -7 209 -3 q 169 -15 182 -11 q 148 -22 156 -20 l 132 1 l 701 805 q 744 825 720 817 q 790 839 769 833 l 809 816 l 238 11 m 328 595 q 319 678 328 643 q 297 736 311 713 q 265 770 283 759 q 227 782 247 782 q 198 772 213 782 q 172 742 184 762 q 154 693 161 723 q 147 624 147 664 q 154 539 147 575 q 174 480 161 503 q 206 445 187 457 q 245 434 224 434 q 276 444 261 434 q 303 474 291 454 q 321 525 314 494 q 328 595 328 555 m 424 608 q 408 520 424 561 q 365 447 392 478 q 302 397 338 415 q 227 379 267 379 q 156 397 188 379 q 100 447 124 415 q 63 520 76 478 q 51 608 51 561 q 66 697 51 655 q 109 769 82 738 q 172 818 136 800 q 245 837 207 837 q 318 819 285 837 q 374 769 350 801 q 411 697 398 738 q 424 608 424 656 "},"P":{"x_min":27.015625,"x_max":652.015625,"ha":711,"o":"m 33 0 l 33 29 q 104 50 78 38 q 130 70 130 61 l 130 806 q 80 799 105 803 q 33 791 56 796 l 27 833 q 96 851 58 843 q 174 865 133 859 q 256 871 214 871 q 338 871 298 871 q 468 855 410 871 q 566 809 525 840 q 629 735 607 779 q 652 632 652 690 q 639 548 652 586 q 604 479 626 509 q 555 427 583 449 q 497 391 527 406 q 436 370 466 377 q 380 363 406 363 q 273 383 318 363 l 258 434 q 311 417 286 421 q 360 414 337 414 q 424 426 391 414 q 485 462 457 438 q 531 522 513 487 q 549 606 549 558 q 529 702 549 662 q 476 767 509 741 q 397 804 442 792 q 300 817 352 817 q 268 817 284 817 q 236 817 251 817 l 236 70 q 241 61 236 66 q 259 51 246 57 q 294 40 272 46 q 352 29 317 35 l 352 0 l 33 0 "},"_":{"x_min":40.546875,"x_max":596.15625,"ha":639,"o":"m 596 -105 q 587 -137 592 -120 q 576 -167 582 -154 l 57 -167 l 40 -148 q 49 -118 43 -135 q 61 -89 55 -102 l 580 -89 l 596 -105 "},"Ŕ":{"x_min":27.015625,"x_max":756.890625,"ha":764,"o":"m 33 0 l 33 29 q 104 49 78 38 q 130 70 130 60 l 130 806 q 82 799 106 803 q 33 792 57 795 l 27 834 q 90 849 58 842 q 156 862 122 856 q 229 871 191 868 q 311 875 267 875 q 445 859 388 875 q 540 816 502 843 q 597 750 578 788 q 616 669 616 712 q 602 581 616 620 q 563 510 588 541 q 504 458 538 480 q 428 424 469 437 l 629 94 q 651 69 639 78 q 677 56 663 60 q 709 52 691 52 q 749 54 726 52 l 756 25 q 673 0 713 10 q 608 -9 633 -9 q 570 1 588 -9 q 542 27 552 12 l 341 408 q 324 407 332 407 l 306 407 q 271 408 288 407 q 236 414 254 410 l 236 70 q 259 50 236 62 q 332 29 283 38 l 332 0 l 33 0 m 287 817 q 236 817 261 817 l 236 469 q 267 465 253 465 q 295 465 280 465 q 456 511 400 465 q 512 648 512 558 q 500 716 512 685 q 459 769 487 747 q 389 804 431 792 q 287 817 346 817 m 257 927 q 241 938 246 931 q 228 957 236 944 l 485 1172 q 503 1162 491 1168 q 526 1148 514 1155 q 548 1134 538 1141 q 563 1122 558 1127 l 569 1092 l 257 927 "},"ñ":{"x_min":37,"x_max":732,"ha":752,"o":"m 446 0 l 446 29 q 516 51 493 42 q 539 70 539 61 l 539 429 q 534 496 539 470 q 519 537 529 522 q 493 557 509 552 q 453 563 477 563 q 408 552 433 563 q 353 520 382 542 q 293 461 325 497 q 230 372 261 425 l 230 70 q 254 49 230 60 q 323 29 279 38 l 323 0 l 37 0 l 37 29 q 105 50 80 40 q 130 70 130 59 l 130 482 q 128 524 130 508 q 117 548 126 539 q 89 561 108 557 q 37 569 70 565 l 37 596 q 120 618 82 604 q 196 651 159 632 l 223 627 l 223 458 q 291 539 256 504 q 362 599 327 575 q 432 637 398 624 q 492 651 466 651 q 547 642 520 651 q 594 615 573 633 q 626 568 614 596 q 639 502 639 540 l 639 70 q 659 52 639 61 q 732 29 679 42 l 732 0 l 446 0 m 611 913 q 582 858 599 885 q 545 809 565 830 q 501 773 525 787 q 451 760 477 760 q 407 771 428 760 q 366 798 386 783 q 326 825 346 813 q 287 837 307 837 q 239 814 261 837 q 192 754 217 792 l 157 768 q 185 823 169 796 q 222 872 201 851 q 266 908 243 894 q 316 922 290 922 q 364 910 341 922 q 406 883 386 898 q 444 856 426 868 q 478 845 462 845 q 528 866 503 845 q 575 928 552 888 l 611 913 "},"‚":{"x_min":58.59375,"x_max":251,"ha":312,"o":"m 251 41 q 242 -15 251 15 q 215 -76 233 -46 q 173 -135 198 -107 q 117 -184 149 -163 l 87 -161 q 111 -127 101 -146 q 129 -88 122 -107 q 139 -51 136 -69 q 143 -20 143 -33 q 125 33 143 10 q 69 56 107 56 l 58 87 q 83 106 64 95 q 126 126 103 116 q 171 142 149 136 q 205 149 193 149 q 239 104 227 127 q 251 41 251 80 "},"ˋ":{"x_min":0,"x_max":271.15625,"ha":271,"o":"m 271 731 q 253 718 262 722 q 233 709 245 713 l 0 965 l 14 993 q 34 997 21 995 q 61 1002 47 1000 q 89 1007 75 1005 q 111 1009 103 1009 l 271 731 "},"Æ":{"x_min":0,"x_max":1020.84375,"ha":1060,"o":"m 515 778 q 508 788 515 785 q 493 791 502 792 q 476 784 484 790 q 462 766 467 778 l 357 498 l 515 498 l 515 778 m 1020 165 q 1006 63 1014 106 q 992 0 997 19 l 419 0 l 419 29 q 489 49 464 38 q 515 70 515 60 l 515 441 l 335 441 l 189 75 q 201 45 180 55 q 276 29 221 35 l 276 0 l 0 0 l 0 29 q 70 46 45 37 q 104 75 96 55 l 379 767 q 376 787 383 779 q 353 801 369 795 q 310 813 336 807 q 253 824 285 818 l 253 854 l 955 854 l 975 837 q 972 798 975 819 q 966 756 970 777 q 958 716 962 735 q 948 684 953 697 l 918 684 q 914 736 918 715 q 903 770 910 757 q 887 787 896 782 q 864 793 877 793 l 621 793 l 621 498 l 890 498 l 908 479 q 894 458 902 469 q 879 437 887 447 q 862 417 870 426 q 846 403 854 409 q 825 420 836 413 q 799 432 814 427 q 763 438 783 436 q 714 441 742 441 l 621 441 l 621 104 q 625 86 621 94 q 645 72 630 78 q 687 64 660 67 q 758 61 714 61 l 844 61 q 896 64 874 61 q 934 79 917 67 q 963 114 950 91 q 990 177 976 137 l 1020 165 "},"ğ":{"x_min":20,"x_max":657.625,"ha":664,"o":"m 459 406 q 447 474 459 442 q 412 531 435 507 q 355 569 389 555 q 276 583 321 583 q 240 574 260 583 q 201 548 219 565 q 171 505 183 531 q 160 446 160 479 q 170 378 160 410 q 204 322 181 346 q 260 284 226 298 q 342 271 294 271 q 382 279 361 271 q 420 305 403 287 q 448 347 437 322 q 459 406 459 372 m 344 -2 q 297 3 319 0 q 257 10 276 6 q 182 -36 210 -15 q 141 -74 155 -57 q 123 -104 127 -90 q 120 -128 120 -118 q 138 -182 120 -157 q 188 -226 157 -208 q 260 -256 219 -245 q 347 -268 301 -268 q 428 -255 391 -268 q 490 -222 464 -243 q 530 -171 516 -200 q 545 -106 545 -141 q 536 -71 545 -87 q 505 -42 527 -55 q 443 -19 482 -29 q 344 -2 405 -9 m 552 434 q 529 339 552 382 q 468 265 506 296 q 384 217 431 234 q 288 200 337 200 l 285 200 q 241 154 253 172 q 230 132 230 136 q 236 116 230 124 q 262 101 243 109 q 315 87 281 94 q 400 74 348 80 q 520 50 472 66 q 595 12 567 33 q 634 -33 623 -8 q 645 -81 645 -57 q 631 -152 645 -118 q 593 -214 617 -185 q 536 -265 569 -242 q 466 -305 504 -288 q 389 -330 429 -321 q 310 -339 349 -339 q 246 -334 279 -339 q 180 -320 212 -330 q 118 -296 147 -311 q 67 -261 89 -282 q 32 -214 45 -240 q 20 -155 20 -188 q 26 -118 20 -137 q 51 -76 32 -99 q 105 -28 71 -54 q 197 28 140 -2 q 137 63 154 44 q 121 103 121 83 q 124 118 121 109 q 138 140 127 127 q 167 170 148 153 q 216 209 186 187 q 155 236 183 218 q 108 280 128 254 q 77 337 88 305 q 67 408 67 370 q 88 502 67 457 q 146 579 110 546 q 228 631 182 612 q 322 651 274 651 q 397 639 362 651 q 460 606 432 627 q 523 615 495 610 q 573 627 551 621 q 613 639 595 633 q 644 651 630 645 l 657 630 q 642 595 649 611 q 619 562 635 579 q 570 554 594 557 q 515 552 545 552 q 542 496 532 525 q 552 434 552 467 m 548 922 q 503 829 528 867 q 451 768 478 792 q 393 735 423 745 q 333 725 363 725 q 270 735 301 725 q 212 768 240 745 q 160 829 185 792 q 116 922 136 867 q 132 940 124 934 q 151 952 140 947 q 190 887 168 914 q 235 845 211 861 q 284 822 259 829 q 331 815 309 815 q 380 822 354 815 q 429 845 405 829 q 475 887 454 861 q 513 952 497 914 q 532 940 524 947 q 548 922 540 934 "},"Ū":{"x_min":33,"x_max":847,"ha":890,"o":"m 847 825 q 776 804 801 816 q 751 783 751 793 l 751 355 q 729 197 751 266 q 668 79 708 127 q 571 5 628 30 q 442 -20 514 -20 q 316 0 374 -20 q 218 58 259 18 q 153 158 176 98 q 130 301 130 218 l 130 783 q 105 804 130 791 q 33 825 81 816 l 33 855 l 332 855 l 332 825 q 261 804 286 816 q 236 783 236 793 l 236 335 q 250 218 236 270 q 295 131 265 167 q 368 76 325 95 q 468 58 411 58 q 552 81 516 58 q 614 142 589 104 q 652 229 639 180 q 665 327 665 277 l 665 783 q 640 804 665 791 q 568 825 616 816 l 568 855 l 847 855 l 847 825 m 681 1058 q 676 1041 680 1051 q 669 1021 673 1031 q 661 1002 665 1012 q 655 987 658 993 l 246 987 l 232 1003 q 236 1020 233 1011 q 243 1040 239 1030 q 251 1059 247 1049 q 259 1075 255 1068 l 666 1075 l 681 1058 "},"ª":{"x_min":33,"x_max":342.28125,"ha":349,"o":"m 342 520 q 291 490 311 499 q 260 482 270 482 q 241 495 250 482 q 226 538 231 509 q 164 494 195 507 q 110 482 133 482 q 83 486 97 482 q 58 499 70 490 q 40 522 47 508 q 33 559 33 537 q 64 633 33 601 q 163 684 96 665 l 225 700 l 225 712 q 222 749 225 733 q 214 775 220 764 q 197 792 208 786 q 167 798 185 798 q 147 793 157 798 q 128 780 136 788 q 116 759 120 771 q 118 733 113 748 q 110 726 119 730 q 89 719 101 722 q 66 715 77 716 q 50 714 54 713 l 44 728 q 65 769 47 749 q 107 804 83 789 q 156 828 131 819 q 199 837 181 837 q 239 830 223 837 q 266 808 256 823 q 281 766 276 792 q 286 703 286 740 l 286 570 q 288 543 286 552 q 295 530 291 535 q 309 529 298 528 q 338 537 319 530 l 342 520 m 35 397 l 35 447 l 323 447 l 323 397 l 35 397 m 225 569 l 225 672 l 196 664 q 148 646 167 656 q 117 626 129 637 q 102 602 106 614 q 98 575 98 589 q 101 552 98 560 q 110 538 105 543 q 121 531 115 533 q 132 529 127 529 q 176 538 153 529 q 225 569 199 548 "},"Œ":{"x_min":47,"x_max":1046.859375,"ha":1086,"o":"m 401 62 q 451 62 428 62 q 495 65 474 62 q 533 75 515 69 q 568 94 551 82 l 568 745 q 490 785 532 773 q 401 798 449 798 q 295 772 342 798 q 216 699 249 746 q 167 585 184 652 q 150 435 150 518 q 170 291 150 359 q 224 172 190 223 q 304 91 259 121 q 401 62 350 62 m 1046 165 q 1033 63 1041 106 q 1019 0 1024 19 l 585 0 q 524 -3 550 0 q 477 -10 499 -6 q 433 -16 455 -13 q 382 -20 411 -20 q 240 15 302 -20 q 135 112 177 51 q 69 251 92 172 q 47 415 47 329 q 76 590 47 507 q 155 737 105 674 q 274 837 206 800 q 421 875 342 875 q 467 872 447 875 q 504 865 486 869 q 542 858 522 861 q 588 855 562 855 l 981 855 l 1001 838 q 998 799 1001 820 q 992 757 996 778 q 984 717 988 736 q 975 685 979 698 l 944 685 q 940 737 944 716 q 929 770 936 757 q 913 787 922 782 q 890 793 903 793 l 676 793 l 676 499 l 916 499 l 935 480 q 921 460 929 470 q 905 439 913 449 q 888 421 896 430 q 874 407 880 413 q 852 424 864 417 q 826 436 841 431 q 790 442 811 440 q 742 445 770 445 l 676 445 l 676 105 q 676 87 676 95 q 686 73 677 79 q 718 65 695 68 q 784 62 741 62 l 870 62 q 922 65 900 62 q 960 80 943 68 q 990 115 976 92 q 1018 178 1003 138 l 1046 165 "},"T":{"x_min":6.609375,"x_max":719,"ha":750,"o":"m 204 0 l 204 28 q 255 41 234 34 q 289 54 276 48 q 307 67 301 61 q 313 77 313 72 l 313 793 l 114 793 q 96 789 104 793 q 79 773 87 785 q 60 737 71 761 q 35 674 49 713 l 6 687 q 15 772 9 727 q 28 854 21 818 l 699 854 l 719 837 q 713 761 719 802 q 699 677 707 720 l 669 677 q 658 730 663 708 q 646 766 653 752 q 630 786 639 780 q 607 793 621 793 l 419 793 l 419 77 q 442 55 419 68 q 528 28 466 41 l 528 0 l 204 0 "},"š":{"x_min":53.03125,"x_max":473.640625,"ha":525,"o":"m 465 192 q 451 109 465 144 q 417 51 438 75 q 369 13 395 28 q 318 -7 343 0 q 271 -17 293 -15 q 236 -20 248 -20 q 159 -7 204 -20 q 70 29 114 4 q 64 51 65 31 q 63 97 63 71 q 66 150 63 123 q 74 192 69 176 l 104 184 q 117 131 104 156 q 153 87 130 106 q 205 58 175 69 q 269 48 234 48 q 313 55 293 48 q 348 77 333 63 q 370 111 362 91 q 379 154 379 130 q 364 202 379 181 q 327 240 350 223 q 274 273 303 258 q 213 304 244 288 q 159 335 185 319 q 113 371 133 351 q 81 417 93 392 q 69 474 69 442 q 85 549 69 516 q 129 604 102 582 q 192 639 157 627 q 266 651 228 651 q 311 647 287 651 q 361 636 336 643 q 406 620 385 629 q 441 598 427 611 q 442 580 445 594 q 432 549 439 566 q 419 517 426 532 q 408 497 412 502 l 382 502 q 316 570 350 551 q 249 590 281 590 q 209 582 227 590 q 179 563 192 575 q 161 537 167 551 q 155 508 155 522 q 167 469 155 487 q 201 437 180 452 q 248 408 221 421 q 302 379 274 394 q 360 347 331 364 q 412 308 389 330 q 450 258 435 286 q 465 192 465 230 m 299 727 l 228 727 l 53 969 q 60 980 57 975 q 67 988 64 985 q 73 994 70 992 q 82 1000 77 997 l 265 830 l 445 1000 q 461 988 456 994 q 473 969 465 982 l 299 727 "},"Þ":{"x_min":33,"x_max":653.015625,"ha":712,"o":"m 33 0 l 33 29 q 104 50 78 38 q 130 70 130 61 l 130 783 q 105 803 130 791 q 33 825 80 816 l 33 854 l 353 854 l 353 825 q 296 814 318 819 q 260 803 273 808 q 241 793 246 798 q 236 783 236 788 l 236 687 q 339 692 278 692 q 468 676 411 692 q 567 630 526 660 q 630 555 608 599 q 653 451 653 510 q 640 366 653 405 q 605 297 627 327 q 555 245 583 267 q 497 208 528 223 q 437 187 467 194 q 381 180 407 180 q 323 185 350 180 q 274 202 296 190 l 258 250 q 312 234 286 237 q 361 231 338 231 q 425 243 391 231 q 486 279 458 255 q 532 339 514 303 q 550 423 550 375 q 530 519 550 479 q 476 584 510 559 q 397 622 442 610 q 301 634 352 634 q 236 634 267 634 l 236 70 q 241 62 236 66 q 259 51 246 57 q 295 40 272 46 q 353 29 318 35 l 353 0 l 33 0 "},"j":{"x_min":-146,"x_max":256,"ha":352,"o":"m 236 67 q 226 -65 236 -10 q 199 -158 216 -119 q 159 -223 182 -196 q 109 -271 136 -249 q 71 -297 91 -285 q 32 -319 51 -310 q -5 -333 12 -328 q -35 -339 -23 -339 q -75 -333 -56 -339 q -111 -321 -95 -328 q -136 -305 -126 -314 q -146 -292 -146 -297 q -136 -275 -146 -286 q -113 -253 -126 -265 q -85 -232 -100 -242 q -61 -217 -71 -222 q -18 -242 -40 -236 q 28 -248 4 -248 q 66 -235 48 -248 q 100 -191 85 -222 q 124 -106 115 -160 q 134 28 134 -53 l 134 454 q 134 509 134 488 q 125 542 134 530 q 96 560 116 554 q 42 569 77 565 l 42 596 q 92 607 70 601 q 133 620 114 613 q 171 634 153 626 q 211 651 190 642 l 236 651 l 236 67 m 256 854 q 250 818 256 835 q 233 789 244 801 q 209 769 223 776 q 179 762 195 762 q 136 778 149 762 q 123 826 123 795 q 128 862 123 845 q 145 892 134 879 q 169 911 155 904 q 199 919 183 919 q 256 854 256 919 "},"1":{"x_min":92.390625,"x_max":558,"ha":638,"o":"m 113 0 l 113 35 q 199 49 164 42 q 254 65 233 57 q 283 81 274 73 q 292 97 292 89 l 292 637 q 290 679 292 664 q 280 704 288 694 q 264 710 276 707 q 232 713 253 713 q 181 708 212 713 q 106 694 150 704 l 92 729 q 158 751 120 737 q 235 782 196 765 q 310 815 274 799 q 367 844 345 832 l 392 820 l 392 97 q 399 82 392 90 q 425 66 406 74 q 475 50 443 58 q 558 35 508 42 l 558 0 l 113 0 "},"›":{"x_min":93.171875,"x_max":361,"ha":415,"o":"m 361 291 l 121 11 l 93 31 l 246 316 l 93 598 l 121 619 l 361 341 l 361 291 "},"<":{"x_min":41,"x_max":557.734375,"ha":598,"o":"m 557 218 q 544 206 550 211 q 532 195 539 200 q 519 185 526 190 q 501 173 511 179 l 57 343 l 41 359 q 41 361 41 360 q 42 363 42 362 l 44 369 q 45 375 44 370 l 47 383 l 49 389 q 50 393 49 391 q 51 398 50 396 l 53 403 l 57 415 l 60 423 l 61 426 l 541 609 l 557 592 q 553 576 555 585 q 548 558 551 567 q 543 539 545 548 q 538 524 540 530 l 169 385 l 546 242 l 557 218 "},"t":{"x_min":13.3125,"x_max":449.609375,"ha":469,"o":"m 449 79 q 385 36 417 55 q 324 4 353 17 q 270 -14 295 -7 q 228 -20 246 -20 q 184 -11 205 -20 q 147 17 163 -2 q 122 69 131 37 q 113 149 113 102 l 113 566 l 27 566 l 13 584 l 65 630 l 113 630 l 113 796 l 192 867 l 213 850 l 213 630 l 430 630 l 449 610 q 434 590 443 601 q 416 569 425 579 q 398 552 407 560 q 382 542 389 544 q 333 558 366 550 q 247 566 301 566 l 213 566 l 213 208 q 216 140 213 167 q 228 97 220 113 q 251 74 237 81 q 284 68 264 68 q 343 77 308 68 q 430 114 378 86 l 449 79 "},"¬":{"x_min":40.15625,"x_max":592,"ha":639,"o":"m 592 157 q 565 138 578 147 q 534 123 551 128 l 518 140 l 518 343 l 56 343 l 40 359 q 49 389 43 372 q 60 419 54 405 l 572 419 l 592 404 l 592 157 "},"ù":{"x_min":27.265625,"x_max":710.359375,"ha":721,"o":"m 710 55 q 662 25 685 39 q 620 1 639 11 q 585 -14 600 -8 q 563 -20 571 -20 q 524 11 539 -20 q 510 112 510 42 q 432 44 466 70 q 369 4 398 18 q 316 -14 340 -9 q 270 -20 292 -20 q 211 -11 239 -20 q 160 20 182 -2 q 125 84 138 44 q 113 189 113 125 l 113 482 q 111 533 113 515 q 100 560 109 551 q 75 572 92 569 q 27 579 57 576 l 27 606 q 72 613 51 609 q 112 623 93 617 q 152 635 132 628 q 194 651 172 642 l 213 625 l 213 226 q 219 147 213 179 q 239 96 226 115 q 271 69 252 77 q 314 61 290 61 q 357 67 335 61 q 403 87 380 73 q 452 123 427 101 q 508 177 478 145 l 508 483 q 505 532 508 513 q 492 560 502 550 q 463 574 482 570 q 414 579 445 579 l 414 606 q 506 625 462 612 q 588 651 550 638 l 608 625 l 608 172 q 610 103 608 130 q 623 70 613 77 q 650 68 631 65 q 703 86 669 71 l 710 55 m 437 731 q 420 718 428 723 q 400 710 411 713 l 167 966 l 181 994 q 201 998 188 996 q 228 1003 214 1000 q 256 1007 242 1006 q 278 1010 270 1009 l 437 731 "},"ĉ":{"x_min":53,"x_max":558.40625,"ha":595,"o":"m 558 129 q 482 47 515 76 q 421 2 449 17 q 366 -16 393 -12 q 309 -20 340 -20 q 214 2 260 -20 q 132 65 168 24 q 74 166 96 106 q 53 301 53 226 q 79 438 53 374 q 151 549 105 502 q 258 624 196 596 q 392 651 320 651 q 437 647 414 651 q 480 637 459 644 q 519 620 501 629 q 548 598 537 610 q 546 574 549 589 q 537 543 543 560 q 523 511 531 526 q 510 486 516 496 l 485 493 q 468 519 480 505 q 437 547 456 534 q 392 568 418 560 q 332 577 366 577 q 264 561 297 577 q 207 513 232 545 q 167 433 182 481 q 153 322 153 386 q 169 217 153 264 q 215 137 186 170 q 280 85 243 103 q 357 68 317 68 q 391 69 375 68 q 426 80 407 71 q 470 106 445 89 q 532 156 495 124 l 558 129 m 535 741 q 523 722 527 728 q 507 710 518 716 l 325 892 l 145 710 q 135 716 139 713 q 129 722 132 718 q 123 730 126 725 q 115 741 119 735 l 290 998 l 361 998 l 535 741 "},"ï":{"x_min":-10,"x_max":389,"ha":369,"o":"m 46 0 l 46 29 q 114 49 91 38 q 138 70 138 61 l 138 454 q 138 510 138 488 q 129 543 138 531 q 100 560 120 555 q 46 569 81 566 l 46 596 q 89 606 66 600 q 135 619 112 612 q 178 634 157 626 q 216 651 199 642 l 239 651 l 239 70 q 261 50 239 62 q 332 29 283 38 l 332 0 l 46 0 m 389 854 q 383 818 389 835 q 366 789 377 801 q 342 769 356 776 q 311 762 328 762 q 268 778 281 762 q 256 826 256 795 q 261 862 256 845 q 278 892 267 879 q 302 911 289 904 q 332 919 316 919 q 389 854 389 919 m 123 854 q 117 818 123 835 q 100 789 111 801 q 76 769 90 776 q 45 762 62 762 q 2 778 15 762 q -10 826 -10 795 q -4 862 -10 845 q 12 892 1 879 q 36 911 23 904 q 66 919 50 919 q 123 854 123 919 "},"ī":{"x_min":25.078125,"x_max":368.234375,"ha":370,"o":"m 47 0 l 47 29 q 115 49 92 38 q 139 70 139 61 l 139 454 q 139 510 139 488 q 130 543 139 531 q 101 560 121 555 q 47 569 82 566 l 47 596 q 90 606 67 600 q 136 619 113 612 q 179 634 158 626 q 217 651 200 642 l 240 651 l 240 70 q 262 50 240 62 q 333 29 284 38 l 333 0 l 47 0 m 368 868 q 363 851 366 861 q 356 831 360 841 q 348 812 352 822 q 342 797 344 803 l 39 797 l 25 813 q 29 830 26 821 q 37 850 33 840 q 45 869 41 859 q 52 885 49 878 l 353 885 l 368 868 "},"Ò":{"x_min":47,"x_max":757,"ha":817,"o":"m 653 426 q 645 519 653 473 q 622 606 637 565 q 584 682 606 647 q 534 742 562 716 q 473 782 506 767 q 402 797 439 797 q 295 771 342 797 q 216 698 249 746 q 167 584 184 651 q 150 434 150 517 q 170 290 150 358 q 224 171 190 223 q 304 90 259 120 q 402 61 350 61 q 503 84 457 61 q 583 153 549 107 q 635 268 616 200 q 653 426 653 337 m 757 439 q 727 263 757 346 q 645 117 697 180 q 526 17 594 54 q 382 -20 458 -20 q 240 15 302 -20 q 135 112 177 51 q 69 251 92 172 q 47 415 47 329 q 76 590 47 507 q 156 737 105 674 q 274 837 206 800 q 421 875 342 875 q 566 838 503 875 q 671 740 628 801 q 735 600 713 679 q 757 439 757 521 m 527 957 q 512 938 517 944 q 497 927 507 931 l 185 1092 l 190 1122 q 205 1134 195 1127 q 227 1148 215 1141 q 251 1162 239 1155 q 269 1172 262 1168 l 527 957 "},"Ď":{"x_min":27.015625,"x_max":746,"ha":806,"o":"m 300 816 q 235 816 266 816 l 235 104 q 241 80 235 89 q 277 62 250 68 q 356 57 304 57 q 450 79 402 57 q 540 148 499 102 q 607 265 581 195 q 633 431 633 335 q 611 592 633 521 q 546 713 589 663 q 442 789 504 763 q 300 816 380 816 m 746 456 q 729 305 746 372 q 683 188 712 239 q 617 101 654 137 q 538 43 579 66 q 453 10 496 20 q 371 0 410 0 l 33 0 l 33 29 q 103 49 78 38 q 129 70 129 61 l 129 805 q 78 798 102 801 q 33 791 54 794 l 27 833 q 94 850 56 842 q 175 864 132 858 q 261 871 217 871 q 343 871 304 871 q 510 842 436 871 q 637 761 585 814 q 717 631 689 708 q 746 456 746 554 m 400 943 l 329 943 l 154 1151 q 162 1162 158 1157 q 168 1170 165 1167 q 175 1176 171 1174 q 183 1183 178 1179 l 366 1039 l 546 1183 q 562 1170 557 1176 q 575 1151 567 1164 l 400 943 "},"&":{"x_min":53,"x_max":894.84375,"ha":908,"o":"m 295 766 q 306 684 295 727 q 337 596 317 641 q 411 648 383 622 q 456 699 440 674 q 479 748 473 724 q 485 794 485 772 q 479 839 485 818 q 461 876 473 860 q 432 901 449 892 q 391 911 414 911 q 349 898 367 911 q 319 865 331 885 q 301 819 307 845 q 295 766 295 793 m 351 57 q 454 75 407 57 q 539 124 502 93 q 471 200 506 159 q 402 286 436 241 q 337 379 368 331 q 282 476 307 427 q 225 419 248 446 q 187 363 202 391 q 167 308 173 336 q 161 252 161 281 q 176 168 161 205 q 219 107 192 132 q 280 69 246 82 q 351 57 314 57 m 894 507 q 861 472 878 486 q 829 446 845 458 q 801 457 817 452 q 770 466 786 462 q 740 471 755 469 q 714 474 725 474 q 726 451 722 462 q 733 429 731 441 q 736 402 736 417 q 736 368 736 387 q 715 266 736 320 q 657 162 695 212 q 741 86 703 117 q 796 57 767 64 q 864 59 825 50 l 870 30 q 772 -7 812 4 q 718 -20 733 -20 q 667 6 703 -20 q 582 80 630 34 q 467 8 531 36 q 331 -20 403 -20 q 217 -3 269 -20 q 130 45 166 13 q 73 126 93 78 q 53 238 53 175 q 66 316 53 276 q 104 394 79 355 q 167 470 130 432 q 252 542 205 507 q 222 636 233 590 q 211 728 211 683 q 228 829 211 783 q 276 911 246 876 q 345 964 306 945 q 426 984 384 984 q 497 970 468 984 q 544 933 526 956 q 569 879 561 910 q 577 817 577 849 q 533 683 577 745 q 411 571 490 621 q 386 555 398 563 q 365 540 375 547 q 417 451 388 496 q 478 365 446 407 q 544 282 510 322 q 612 206 578 242 q 645 275 634 240 q 656 340 656 309 q 646 393 656 368 q 622 437 637 419 q 588 467 607 456 q 549 478 569 478 l 535 497 q 556 516 542 506 q 584 532 571 526 l 879 532 l 894 507 "},"˝":{"x_min":53.171875,"x_max":457.25,"ha":510,"o":"m 91 709 q 73 716 79 712 q 53 728 66 720 l 170 1009 q 189 1006 178 1008 q 211 1002 200 1004 q 232 997 221 1000 q 249 992 242 995 l 263 964 l 91 709 m 284 709 q 265 716 271 712 q 246 728 258 720 l 363 1009 q 382 1006 371 1008 q 403 1002 392 1004 q 425 997 414 1000 q 442 992 435 995 l 457 964 l 284 709 "},"I":{"x_min":47,"x_max":346,"ha":406,"o":"m 47 0 l 47 29 q 118 49 92 38 q 144 70 144 61 l 144 782 q 119 803 144 790 q 47 824 95 815 l 47 854 l 346 854 l 346 824 q 275 803 300 815 q 250 782 250 792 l 250 70 q 274 50 250 62 q 346 29 298 38 l 346 0 l 47 0 "},"G":{"x_min":47,"x_max":761,"ha":794,"o":"m 693 805 q 691 792 697 802 q 674 770 685 782 q 651 746 664 758 q 629 726 638 734 l 607 730 q 562 765 585 751 q 513 786 538 779 q 459 797 487 794 q 397 800 430 800 q 356 792 381 800 q 303 767 331 784 q 249 722 276 750 q 199 652 221 693 q 163 557 177 611 q 150 432 150 502 q 174 267 150 337 q 239 152 199 198 q 328 83 278 106 q 429 61 378 61 q 518 70 477 61 q 592 99 559 80 l 592 329 q 585 343 592 336 q 563 357 579 350 q 521 371 548 364 q 455 384 495 378 l 455 414 l 761 414 l 761 384 q 707 360 723 375 q 692 329 692 344 l 692 104 q 603 38 642 63 q 532 1 565 14 q 470 -15 499 -11 q 411 -20 441 -20 q 279 5 344 -20 q 162 82 213 30 q 78 212 110 134 q 47 394 47 289 q 81 596 47 507 q 177 747 116 685 q 318 842 237 809 q 490 875 399 875 q 538 870 512 875 q 592 856 564 865 q 645 834 619 847 q 693 805 671 822 "},"`":{"x_min":19.9375,"x_max":291.09375,"ha":434,"o":"m 291 731 q 275 719 285 725 q 253 709 265 713 l 19 965 l 34 993 q 54 997 41 994 q 81 1002 67 999 q 109 1007 95 1004 q 131 1009 123 1009 l 291 731 "},"·":{"x_min":33,"x_max":166,"ha":199,"o":"m 166 488 q 160 452 166 469 q 143 423 154 435 q 119 403 133 410 q 88 396 105 396 q 45 412 58 396 q 33 460 33 429 q 38 496 33 479 q 55 526 44 513 q 79 545 66 538 q 109 553 93 553 q 166 488 166 553 "},"ŏ":{"x_min":53,"x_max":631.015625,"ha":684,"o":"m 528 309 q 510 411 528 362 q 466 496 493 459 q 404 555 438 533 q 336 577 369 577 q 251 557 285 577 q 195 503 216 537 q 165 422 174 469 q 156 321 156 375 q 174 219 156 267 q 221 133 193 170 q 283 75 249 97 q 347 54 317 54 q 429 72 395 54 q 484 123 462 90 q 517 203 506 157 q 528 309 528 250 m 631 329 q 619 240 631 283 q 588 158 608 197 q 540 86 568 119 q 479 30 512 53 q 407 -6 445 6 q 329 -20 369 -20 q 215 4 266 -20 q 128 71 164 28 q 72 173 92 114 q 53 301 53 232 q 63 389 53 346 q 94 472 74 433 q 141 544 114 511 q 202 600 169 576 q 275 638 236 624 q 355 651 314 651 q 468 627 417 651 q 555 559 519 602 q 611 457 591 516 q 631 329 631 398 m 571 923 q 526 830 551 868 q 473 769 501 793 q 416 736 446 746 q 356 726 386 726 q 293 736 324 726 q 235 769 262 746 q 183 830 207 793 q 139 923 159 868 q 155 941 147 935 q 174 953 163 948 q 212 888 191 915 q 258 846 234 862 q 307 823 282 830 q 353 816 332 816 q 402 823 377 816 q 452 846 428 830 q 498 888 476 862 q 535 953 520 915 q 555 941 547 948 q 571 923 563 935 "},"¿":{"x_min":53,"x_max":536,"ha":589,"o":"m 278 359 q 301 376 290 370 q 331 387 312 381 l 352 373 l 352 294 q 339 217 352 255 q 306 142 327 179 q 261 68 286 104 q 214 -1 236 33 q 177 -70 192 -36 q 163 -136 163 -103 q 200 -267 163 -220 q 307 -315 237 -315 q 352 -303 331 -315 q 391 -274 374 -292 q 417 -231 407 -255 q 427 -180 427 -206 q 424 -160 427 -170 q 417 -142 421 -151 q 463 -122 440 -128 q 516 -117 486 -117 l 534 -136 q 536 -147 536 -142 l 536 -158 q 513 -246 536 -206 q 451 -316 490 -286 q 361 -362 412 -345 q 255 -379 311 -379 q 168 -363 206 -379 q 105 -319 130 -347 q 66 -252 79 -291 q 53 -166 53 -213 q 68 -75 53 -116 q 108 1 84 -34 q 159 68 131 36 q 214 135 187 101 q 259 208 240 170 q 278 294 278 246 l 278 359 m 389 575 q 381 532 389 552 q 361 496 374 512 q 331 472 348 481 q 296 464 314 464 q 246 483 262 464 q 231 541 231 503 q 237 584 231 564 q 257 619 244 604 q 286 642 269 634 q 321 651 302 651 q 373 631 357 651 q 389 575 389 611 "},"ý":{"x_min":-31,"x_max":658,"ha":672,"o":"m 658 601 q 625 592 638 596 q 604 583 612 588 q 592 571 596 578 q 584 555 588 565 l 362 -55 q 300 -184 334 -130 q 229 -272 266 -237 q 155 -322 192 -306 q 84 -339 117 -339 q 38 -335 59 -339 q 1 -327 16 -332 q -22 -315 -13 -322 q -31 -303 -31 -309 q -22 -286 -31 -299 q -2 -260 -14 -274 q 22 -231 9 -245 q 47 -211 36 -218 q 110 -232 79 -232 q 167 -223 142 -232 q 195 -204 179 -219 q 227 -168 211 -189 q 259 -119 243 -146 q 286 -62 274 -91 l 306 -15 l 87 555 q 64 584 81 574 q 14 601 47 593 l 14 630 l 271 630 l 271 601 q 228 594 245 598 q 203 586 212 591 q 193 573 194 581 q 195 555 191 566 l 359 123 l 512 555 q 513 572 515 565 q 502 584 511 579 q 476 593 493 589 q 436 601 460 597 l 436 631 l 658 631 l 658 601 m 324 710 q 303 717 312 712 q 286 729 294 723 l 441 1010 q 462 1007 449 1009 q 490 1003 475 1006 q 517 999 504 1001 q 538 994 531 996 l 553 968 l 324 710 "},"º":{"x_min":33,"x_max":351,"ha":384,"o":"m 289 655 q 280 709 289 684 q 257 754 271 735 q 222 785 242 774 q 181 797 203 797 q 145 786 161 797 q 118 758 129 776 q 101 715 107 740 q 95 662 95 690 q 104 608 95 633 q 128 563 113 582 q 163 532 143 544 q 203 521 182 521 q 236 531 221 521 q 264 559 252 541 q 282 602 275 577 q 289 655 289 627 m 41 397 l 41 447 l 343 447 l 343 397 l 41 397 m 351 666 q 336 598 351 631 q 297 539 321 565 q 242 497 273 513 q 181 482 212 482 q 120 494 147 482 q 73 530 93 507 q 43 584 54 553 q 33 652 33 615 q 46 721 33 687 q 82 780 59 754 q 136 821 106 805 q 202 837 167 837 q 262 824 234 837 q 309 788 289 811 q 340 734 329 765 q 351 666 351 702 "},"ź":{"x_min":50.453125,"x_max":549.984375,"ha":602,"o":"m 548 168 q 548 121 548 146 q 548 74 548 97 q 548 31 548 51 q 543 0 548 12 l 67 0 l 50 30 l 419 569 l 189 569 q 167 564 178 569 q 146 549 156 560 q 127 518 136 538 q 111 467 118 498 l 85 475 l 85 641 q 117 634 105 637 q 142 631 129 631 q 170 631 155 631 l 535 631 l 549 601 l 179 61 l 460 61 q 490 87 476 61 q 520 174 504 113 l 548 168 m 290 709 q 269 717 278 711 q 252 728 259 722 l 408 1009 q 429 1007 416 1008 q 456 1003 442 1005 q 484 998 470 1001 q 504 993 497 995 l 520 967 l 290 709 "},"ű":{"x_min":27.265625,"x_max":710.359375,"ha":721,"o":"m 710 55 q 662 25 685 39 q 620 1 639 11 q 585 -14 600 -8 q 563 -20 571 -20 q 524 11 539 -20 q 510 112 510 42 q 432 44 466 70 q 369 4 398 18 q 316 -14 340 -9 q 270 -20 292 -20 q 211 -11 239 -20 q 160 20 182 -2 q 125 84 138 44 q 113 189 113 125 l 113 482 q 111 533 113 515 q 100 560 109 551 q 75 572 92 569 q 27 579 57 576 l 27 606 q 72 613 51 609 q 112 623 93 617 q 152 635 132 628 q 194 651 172 642 l 213 625 l 213 226 q 219 147 213 179 q 239 96 226 115 q 271 69 252 77 q 314 61 290 61 q 357 67 335 61 q 403 87 380 73 q 452 123 427 101 q 508 177 478 145 l 508 483 q 505 532 508 513 q 492 560 502 550 q 463 574 482 570 q 414 579 445 579 l 414 606 q 506 625 462 612 q 588 651 550 638 l 608 625 l 608 172 q 610 103 608 130 q 623 70 613 77 q 650 68 631 65 q 703 86 669 71 l 710 55 m 254 710 q 236 716 242 713 q 216 728 229 720 l 332 1010 q 351 1007 340 1008 q 373 1003 362 1005 q 394 998 384 1000 q 411 993 405 996 l 426 965 l 254 710 m 446 710 q 427 716 434 713 q 409 728 420 720 l 526 1010 q 544 1007 534 1008 q 566 1003 555 1005 q 587 998 577 1000 q 605 993 598 996 l 619 965 l 446 710 "},"ń":{"x_min":37,"x_max":732,"ha":752,"o":"m 446 0 l 446 29 q 516 51 493 42 q 539 70 539 61 l 539 429 q 534 496 539 470 q 519 537 529 522 q 493 557 509 552 q 453 563 477 563 q 408 552 433 563 q 353 520 382 542 q 293 461 325 497 q 230 372 261 425 l 230 70 q 254 49 230 60 q 323 29 279 38 l 323 0 l 37 0 l 37 29 q 105 50 80 40 q 130 70 130 59 l 130 482 q 128 524 130 508 q 117 548 126 539 q 89 561 108 557 q 37 569 70 565 l 37 596 q 120 618 82 604 q 196 651 159 632 l 223 627 l 223 458 q 291 539 256 504 q 362 599 327 575 q 432 637 398 624 q 492 651 466 651 q 547 642 520 651 q 594 615 573 633 q 626 568 614 596 q 639 502 639 540 l 639 70 q 659 52 639 61 q 732 29 679 42 l 732 0 l 446 0 m 355 709 q 334 717 343 712 q 317 728 325 722 l 473 1009 q 494 1007 481 1009 q 521 1003 507 1005 q 549 998 535 1001 q 569 994 562 996 l 585 967 l 355 709 "},";":{"x_min":58.421875,"x_max":259,"ha":312,"o":"m 259 48 q 248 -11 259 21 q 219 -79 238 -44 q 172 -147 199 -114 q 110 -206 144 -180 l 80 -182 q 111 -140 98 -161 q 133 -99 124 -120 q 146 -53 142 -77 q 150 0 150 -29 q 130 46 150 28 q 69 64 111 64 l 58 94 q 83 113 64 102 q 125 133 102 123 q 170 149 148 143 q 205 156 193 156 q 248 113 237 140 q 259 48 259 86 m 245 575 q 238 531 245 551 q 218 496 231 511 q 189 473 206 481 q 153 465 172 465 q 102 484 117 465 q 87 540 87 504 q 94 583 87 563 q 114 619 101 603 q 143 643 126 634 q 179 652 160 652 q 228 632 212 652 q 245 575 245 612 "},"Ġ":{"x_min":47,"x_max":761,"ha":794,"o":"m 693 805 q 691 792 697 802 q 674 770 685 782 q 651 746 664 758 q 629 726 638 734 l 607 730 q 562 765 585 751 q 513 786 538 779 q 459 797 487 794 q 397 800 430 800 q 356 792 381 800 q 303 767 331 784 q 249 722 276 750 q 199 652 221 693 q 163 557 177 611 q 150 432 150 502 q 174 267 150 337 q 239 152 199 198 q 328 83 278 106 q 429 61 378 61 q 518 70 477 61 q 592 99 559 80 l 592 329 q 585 343 592 336 q 563 357 579 350 q 521 371 548 364 q 455 384 495 378 l 455 414 l 761 414 l 761 384 q 707 360 723 375 q 692 329 692 344 l 692 104 q 603 38 642 63 q 532 1 565 14 q 470 -15 499 -11 q 411 -20 441 -20 q 279 5 344 -20 q 162 82 213 30 q 78 212 110 134 q 47 394 47 289 q 81 596 47 507 q 177 747 116 685 q 318 842 237 809 q 490 875 399 875 q 538 870 512 875 q 592 856 564 865 q 645 834 619 847 q 693 805 671 822 m 492 1045 q 486 1009 492 1026 q 469 980 480 992 q 445 960 459 967 q 414 953 431 953 q 371 969 384 953 q 359 1017 359 986 q 364 1053 359 1036 q 381 1083 370 1070 q 405 1102 392 1095 q 435 1110 419 1110 q 492 1045 492 1110 "},"6":{"x_min":73,"x_max":586,"ha":639,"o":"m 332 448 q 257 428 298 448 q 179 363 216 409 q 191 224 179 283 q 228 127 204 165 q 286 69 252 88 q 362 51 320 51 q 421 68 398 51 q 459 112 445 85 q 480 172 474 139 q 486 236 486 205 q 471 341 486 300 q 433 405 456 382 q 383 438 410 429 q 332 448 356 448 m 586 279 q 579 213 586 247 q 557 145 572 178 q 522 82 543 112 q 473 29 501 52 q 411 -6 446 7 q 336 -20 377 -20 q 234 4 281 -20 q 150 74 186 29 q 93 181 114 119 q 73 321 73 244 q 99 504 73 416 q 182 662 126 592 q 323 781 238 733 q 524 847 408 830 l 536 807 q 397 752 458 789 q 292 666 336 715 q 221 559 248 617 q 185 441 194 501 q 232 479 208 464 q 279 504 256 495 q 323 518 302 514 q 359 522 344 522 q 455 505 413 522 q 526 457 497 488 q 570 380 555 425 q 586 279 586 335 "},"n":{"x_min":37,"x_max":732,"ha":752,"o":"m 446 0 l 446 29 q 516 51 493 42 q 539 70 539 61 l 539 429 q 534 496 539 470 q 519 537 529 522 q 493 557 509 552 q 453 563 477 563 q 408 552 433 563 q 353 520 382 542 q 293 461 325 497 q 230 372 261 425 l 230 70 q 254 49 230 60 q 323 29 279 38 l 323 0 l 37 0 l 37 29 q 105 50 80 40 q 130 70 130 59 l 130 482 q 128 524 130 508 q 117 548 126 539 q 89 561 108 557 q 37 569 70 565 l 37 596 q 120 618 82 604 q 196 651 159 632 l 223 627 l 223 458 q 291 539 256 504 q 362 599 327 575 q 432 637 398 624 q 492 651 466 651 q 547 642 520 651 q 594 615 573 633 q 626 568 614 596 q 639 502 639 540 l 639 70 q 659 52 639 61 q 732 29 679 42 l 732 0 l 446 0 "},"¤":{"x_min":104.65625,"x_max":534,"ha":639,"o":"m 241 488 q 216 450 224 471 q 208 407 208 429 q 215 364 208 385 q 240 327 223 344 q 278 302 257 310 q 320 294 299 294 q 362 302 341 294 q 399 327 382 310 q 423 365 415 344 q 432 408 432 386 q 423 450 432 429 q 398 488 415 471 q 361 513 382 505 q 320 522 341 522 q 278 513 299 522 q 241 488 257 505 m 490 190 l 420 260 q 372 237 398 245 q 320 230 346 230 q 267 237 293 230 q 219 261 241 245 l 147 190 l 125 190 q 114 210 120 199 q 104 232 109 221 l 176 304 q 152 353 160 327 q 145 406 145 379 q 152 460 145 433 q 176 509 160 486 l 106 582 l 106 605 q 126 616 115 610 q 148 626 137 621 l 219 553 q 267 578 241 570 q 320 587 293 587 q 372 578 346 587 q 420 553 397 570 l 490 626 l 513 626 l 533 581 l 462 509 q 486 460 478 486 q 495 406 495 433 q 487 353 495 379 q 463 304 479 327 l 534 233 l 534 210 l 490 190 "},"Ĝ":{"x_min":47,"x_max":761,"ha":794,"o":"m 693 805 q 691 792 697 802 q 674 770 685 782 q 651 746 664 758 q 629 726 638 734 l 607 730 q 562 765 585 751 q 513 786 538 779 q 459 797 487 794 q 397 800 430 800 q 356 792 381 800 q 303 767 331 784 q 249 722 276 750 q 199 652 221 693 q 163 557 177 611 q 150 432 150 502 q 174 267 150 337 q 239 152 199 198 q 328 83 278 106 q 429 61 378 61 q 518 70 477 61 q 592 99 559 80 l 592 329 q 585 343 592 336 q 563 357 579 350 q 521 371 548 364 q 455 384 495 378 l 455 414 l 761 414 l 761 384 q 707 360 723 375 q 692 329 692 344 l 692 104 q 603 38 642 63 q 532 1 565 14 q 470 -15 499 -11 q 411 -20 441 -20 q 279 5 344 -20 q 162 82 213 30 q 78 212 110 134 q 47 394 47 289 q 81 596 47 507 q 177 747 116 685 q 318 842 237 809 q 490 875 399 875 q 538 870 512 875 q 592 856 564 865 q 645 834 619 847 q 693 805 671 822 m 636 957 q 623 938 628 944 q 607 927 618 932 l 425 1068 l 245 927 q 236 932 239 929 q 229 938 232 935 q 223 946 226 942 q 215 957 219 951 l 390 1167 l 461 1167 l 636 957 "},"p":{"x_min":37,"x_max":669,"ha":722,"o":"m 579 288 q 565 398 579 347 q 529 486 551 449 q 476 544 506 523 q 414 566 446 566 q 383 558 402 566 q 339 533 364 551 q 287 486 315 515 q 230 413 259 456 l 230 144 q 285 106 259 121 q 333 83 311 91 q 375 71 355 74 q 413 68 395 68 q 479 82 449 68 q 531 124 509 96 q 566 193 553 152 q 579 288 579 234 m 669 333 q 659 253 669 294 q 631 172 649 211 q 590 97 614 133 q 538 36 566 62 q 478 -4 509 10 q 414 -20 447 -20 q 326 2 375 -20 q 230 66 277 24 l 230 -253 q 254 -275 230 -264 q 342 -295 279 -286 l 342 -325 l 37 -325 l 37 -295 q 105 -275 80 -285 q 130 -253 130 -265 l 130 482 q 127 524 130 507 q 115 550 124 540 q 87 564 105 560 q 37 569 68 569 l 37 596 q 80 607 59 601 q 120 619 100 613 q 158 633 139 625 q 196 651 177 641 l 222 627 l 222 492 q 292 563 259 533 q 356 612 326 593 q 413 641 387 631 q 459 651 440 651 q 543 629 504 651 q 609 566 581 607 q 653 466 637 525 q 669 333 669 407 "},"‡":{"x_min":46.421875,"x_max":602.578125,"ha":649,"o":"m 602 727 q 578 675 593 704 q 548 621 564 646 q 457 644 502 636 q 356 653 411 653 q 361 572 356 611 q 380 487 367 533 q 362 401 368 443 q 357 321 357 360 q 415 323 387 321 q 471 330 443 326 q 527 341 499 335 q 585 354 556 347 l 602 325 q 578 273 593 302 q 548 218 564 244 q 457 240 503 231 q 356 250 411 250 q 364 132 356 185 q 390 28 372 79 q 337 -3 365 11 q 286 -27 308 -17 l 257 -10 q 282 118 273 54 q 291 251 291 182 q 232 247 260 251 q 176 240 204 244 q 120 231 148 236 q 63 218 92 225 l 46 247 q 70 299 55 271 q 100 354 84 328 q 190 330 145 338 q 291 322 236 322 q 285 402 291 360 q 267 487 279 443 q 285 573 280 534 q 291 654 291 612 q 176 644 230 654 q 63 621 122 634 l 46 650 q 70 702 55 673 q 100 756 84 731 q 190 732 145 740 q 291 725 236 725 q 282 842 291 788 q 257 947 273 896 q 311 978 283 964 q 361 1003 339 993 l 390 986 q 367 857 377 922 q 358 725 358 792 q 472 733 418 725 q 585 756 526 741 l 602 727 "},"ň":{"x_min":37,"x_max":732,"ha":752,"o":"m 446 0 l 446 29 q 516 51 493 42 q 539 70 539 61 l 539 429 q 534 496 539 470 q 519 537 529 522 q 493 557 509 552 q 453 563 477 563 q 408 552 433 563 q 353 520 382 542 q 293 461 325 497 q 230 372 261 425 l 230 70 q 254 49 230 60 q 323 29 279 38 l 323 0 l 37 0 l 37 29 q 105 50 80 40 q 130 70 130 59 l 130 482 q 128 524 130 508 q 117 548 126 539 q 89 561 108 557 q 37 569 70 565 l 37 596 q 120 618 82 604 q 196 651 159 632 l 223 627 l 223 458 q 291 539 256 504 q 362 599 327 575 q 432 637 398 624 q 492 651 466 651 q 547 642 520 651 q 594 615 573 633 q 626 568 614 596 q 639 502 639 540 l 639 70 q 659 52 639 61 q 732 29 679 42 l 732 0 l 446 0 m 420 726 l 348 726 l 173 968 q 181 979 178 974 q 187 987 184 984 q 194 993 190 991 q 203 999 198 996 l 386 829 l 565 999 q 581 987 577 993 q 594 968 586 981 l 420 726 "},"S":{"x_min":80,"x_max":589,"ha":649,"o":"m 589 255 q 581 193 589 225 q 556 130 573 161 q 516 72 540 99 q 458 24 491 45 q 384 -7 426 4 q 293 -20 342 -20 q 245 -15 271 -20 q 191 -2 219 -10 q 137 18 164 6 q 87 46 110 30 q 81 69 82 48 q 80 116 80 89 q 80 172 80 144 q 87 219 80 201 l 114 216 q 152 147 129 176 q 203 98 175 117 q 263 70 231 79 q 330 61 296 61 q 390 73 360 61 q 444 107 420 86 q 483 158 468 129 q 499 219 499 187 q 481 290 499 261 q 434 343 463 320 q 367 385 405 366 q 291 421 330 403 q 215 460 252 440 q 149 507 178 480 q 102 570 120 535 q 85 655 85 606 q 90 701 85 676 q 110 750 96 725 q 144 797 123 774 q 195 837 165 820 q 263 864 224 854 q 350 875 301 875 q 410 870 380 875 q 466 857 440 865 q 514 837 493 849 q 547 812 535 826 q 547 796 552 808 q 534 770 543 784 q 514 743 525 756 q 495 722 503 729 l 471 726 q 432 763 453 748 q 391 789 412 779 q 349 802 370 798 q 310 807 329 807 q 247 795 273 807 q 203 766 220 783 q 178 727 186 749 q 171 687 171 706 q 188 631 171 655 q 236 585 206 606 q 303 546 265 564 q 379 508 340 528 q 456 465 419 488 q 523 412 494 442 q 571 344 553 382 q 589 255 589 305 "},"/":{"x_min":32.5625,"x_max":604.125,"ha":639,"o":"m 140 -192 q 122 -202 133 -197 q 100 -211 112 -207 q 76 -220 88 -216 q 57 -227 65 -224 l 32 -210 l 498 1051 q 538 1071 516 1063 q 579 1085 560 1079 l 604 1070 l 140 -192 "},"ⱡ":{"x_min":46.71875,"x_max":388.265625,"ha":435,"o":"m 373 434 l 268 434 l 268 70 q 290 49 268 60 q 367 29 312 38 l 367 0 l 68 0 l 68 29 q 116 38 96 33 q 146 49 135 44 q 163 59 158 54 q 168 70 168 65 l 168 434 l 61 434 l 46 448 q 53 471 50 459 q 61 495 56 484 l 168 495 l 168 570 l 61 570 l 46 584 q 53 607 50 595 q 61 631 56 620 l 168 631 l 168 879 q 164 926 168 909 q 149 952 160 943 q 120 963 138 960 q 74 970 102 966 l 74 997 q 162 1018 122 1006 q 244 1051 202 1029 l 268 1028 l 268 631 l 373 631 l 388 614 l 373 570 l 268 570 l 268 495 l 373 495 l 388 478 l 373 434 "},"y":{"x_min":-31,"x_max":658,"ha":672,"o":"m 658 601 q 625 592 638 596 q 604 583 612 588 q 592 571 596 578 q 584 555 588 565 l 362 -55 q 300 -184 334 -130 q 229 -272 266 -237 q 155 -322 192 -306 q 84 -339 117 -339 q 38 -335 59 -339 q 1 -327 16 -332 q -22 -315 -13 -322 q -31 -303 -31 -309 q -22 -286 -31 -299 q -2 -260 -14 -274 q 22 -231 9 -245 q 47 -211 36 -218 q 110 -232 79 -232 q 167 -223 142 -232 q 195 -204 179 -219 q 227 -168 211 -189 q 259 -119 243 -146 q 286 -62 274 -91 l 306 -15 l 87 555 q 64 584 81 574 q 14 601 47 593 l 14 630 l 271 630 l 271 601 q 228 594 245 598 q 203 586 212 591 q 193 573 194 581 q 195 555 191 566 l 359 123 l 512 555 q 513 572 515 565 q 502 584 511 579 q 476 593 493 589 q 436 601 460 597 l 436 631 l 658 631 l 658 601 "},"ˊ":{"x_min":0,"x_max":267.171875,"ha":267,"o":"m 37 709 q 16 717 25 712 q 0 728 7 722 l 155 1009 q 176 1007 163 1009 q 203 1003 189 1005 q 231 998 217 1001 q 251 994 244 996 l 267 967 l 37 709 "},"g":{"x_min":20,"x_max":657.625,"ha":664,"o":"m 459 406 q 447 474 459 442 q 412 531 435 507 q 355 569 389 555 q 276 583 321 583 q 240 574 260 583 q 201 548 219 565 q 171 505 183 531 q 160 446 160 479 q 170 378 160 410 q 204 322 181 346 q 260 284 226 298 q 342 271 294 271 q 382 279 361 271 q 420 305 403 287 q 448 347 437 322 q 459 406 459 372 m 344 -2 q 297 3 319 0 q 257 10 276 6 q 182 -36 210 -15 q 141 -74 155 -57 q 123 -104 127 -90 q 120 -128 120 -118 q 138 -182 120 -157 q 188 -226 157 -208 q 260 -256 219 -245 q 347 -268 301 -268 q 428 -255 391 -268 q 490 -222 464 -243 q 530 -171 516 -200 q 545 -106 545 -141 q 536 -71 545 -87 q 505 -42 527 -55 q 443 -19 482 -29 q 344 -2 405 -9 m 552 434 q 529 339 552 382 q 468 265 506 296 q 384 217 431 234 q 288 200 337 200 l 285 200 q 241 154 253 172 q 230 132 230 136 q 236 116 230 124 q 262 101 243 109 q 315 87 281 94 q 400 74 348 80 q 520 50 472 66 q 595 12 567 33 q 634 -33 623 -8 q 645 -81 645 -57 q 631 -152 645 -118 q 593 -214 617 -185 q 536 -265 569 -242 q 466 -305 504 -288 q 389 -330 429 -321 q 310 -339 349 -339 q 246 -334 279 -339 q 180 -320 212 -330 q 118 -296 147 -311 q 67 -261 89 -282 q 32 -214 45 -240 q 20 -155 20 -188 q 26 -118 20 -137 q 51 -76 32 -99 q 105 -28 71 -54 q 197 28 140 -2 q 137 63 154 44 q 121 103 121 83 q 124 118 121 109 q 138 140 127 127 q 167 170 148 153 q 216 209 186 187 q 155 236 183 218 q 108 280 128 254 q 77 337 88 305 q 67 408 67 370 q 88 502 67 457 q 146 579 110 546 q 228 631 182 612 q 322 651 274 651 q 397 639 362 651 q 460 606 432 627 q 523 615 495 610 q 573 627 551 621 q 613 639 595 633 q 644 651 630 645 l 657 630 q 642 595 649 611 q 619 562 635 579 q 570 554 594 557 q 515 552 545 552 q 542 496 532 525 q 552 434 552 467 "},"²":{"x_min":39.375,"x_max":392,"ha":447,"o":"m 392 420 l 52 420 l 39 449 q 135 548 94 505 q 206 625 177 592 q 255 683 235 658 q 285 728 274 708 q 300 764 296 748 q 305 795 305 780 q 285 855 305 833 q 217 878 265 878 q 185 871 199 878 q 160 853 170 864 q 143 828 149 842 q 138 799 138 814 q 103 787 122 792 q 64 780 85 782 l 52 792 q 68 836 52 813 q 112 878 84 859 q 175 910 139 897 q 249 923 210 923 q 305 916 279 923 q 349 895 331 909 q 378 859 368 880 q 389 807 389 837 q 376 752 389 780 q 334 687 363 724 q 257 599 305 650 q 137 476 209 549 l 318 476 q 343 486 333 476 q 357 508 352 496 q 365 541 363 522 l 392 536 l 392 420 "},"–":{"x_min":40.546875,"x_max":598.140625,"ha":639,"o":"m 598 370 q 589 338 594 355 q 578 309 584 320 l 57 309 l 40 325 q 49 356 43 340 q 61 387 55 373 l 582 387 l 598 370 "},"ë":{"x_min":53,"x_max":575,"ha":628,"o":"m 329 580 q 266 566 294 580 q 215 528 237 552 q 177 469 192 503 q 156 394 162 435 l 440 394 q 461 399 456 394 q 466 418 466 404 q 461 464 466 436 q 441 517 456 491 q 399 561 426 543 q 329 580 372 580 m 575 378 q 543 353 563 364 q 502 333 523 341 l 153 333 q 166 232 153 280 q 205 147 180 184 q 267 89 231 111 q 349 68 303 68 q 389 70 369 68 q 431 82 408 73 q 481 110 454 92 q 546 160 509 129 q 561 146 555 155 q 571 132 567 137 q 492 52 526 83 q 429 6 459 22 q 371 -14 400 -9 q 308 -20 342 -20 q 211 2 257 -20 q 130 65 165 24 q 73 164 94 106 q 53 294 53 222 q 62 384 53 339 q 91 467 72 428 q 138 539 110 506 q 199 597 165 573 q 232 617 214 607 q 270 634 251 627 q 310 646 290 642 q 347 651 330 651 q 424 638 391 651 q 484 606 458 626 q 526 557 509 585 q 554 500 543 530 q 570 438 565 469 q 575 378 575 406 m 538 855 q 532 819 538 836 q 515 790 526 802 q 491 770 505 777 q 460 763 477 763 q 417 779 430 763 q 405 827 405 796 q 410 863 405 846 q 427 893 416 880 q 451 912 438 905 q 481 920 465 920 q 538 855 538 920 m 272 855 q 266 819 272 836 q 249 790 260 802 q 225 770 239 777 q 194 763 211 763 q 151 779 164 763 q 139 827 139 796 q 144 863 139 846 q 161 893 150 880 q 185 912 172 905 q 215 920 199 920 q 272 855 272 920 "},"J":{"x_min":-126,"x_max":369,"ha":416,"o":"m 369 824 q 298 803 323 815 q 273 782 273 792 l 273 138 q 262 3 273 57 q 232 -87 251 -50 q 190 -149 214 -124 q 140 -195 166 -174 q 101 -222 122 -210 q 57 -241 79 -233 q 15 -253 35 -249 q -16 -258 -3 -258 q -56 -251 -36 -258 q -91 -236 -76 -245 q -116 -219 -106 -228 q -126 -203 -126 -210 q -117 -188 -126 -198 q -96 -168 -108 -178 q -71 -148 -84 -157 q -48 -136 -58 -139 q -16 -156 -30 -148 q 9 -168 -2 -164 q 32 -173 21 -172 q 56 -175 43 -175 q 93 -163 73 -175 q 129 -122 113 -151 q 156 -41 145 -92 q 167 89 167 10 l 167 782 q 161 791 167 786 q 141 801 156 796 q 102 812 127 807 q 37 824 77 818 l 37 854 l 369 854 l 369 824 "},"Ã":{"x_min":0,"x_max":796,"ha":810,"o":"m 504 363 l 386 711 l 272 363 l 504 363 m 252 302 l 179 75 q 197 45 172 54 q 276 29 221 35 l 276 0 l 0 0 l 0 29 q 71 46 45 37 q 104 75 98 55 l 352 838 q 390 869 367 855 q 430 893 412 883 l 709 75 q 718 58 712 66 q 734 45 724 51 q 759 36 744 40 q 796 29 774 32 l 796 0 l 516 0 l 516 31 q 587 41 567 31 q 600 75 607 52 l 524 302 l 252 302 m 624 1103 q 596 1048 612 1075 q 559 999 579 1020 q 515 963 539 977 q 465 950 491 950 q 420 961 441 950 q 380 988 400 973 q 340 1015 360 1003 q 301 1027 320 1027 q 252 1004 274 1027 q 206 944 230 982 l 171 958 q 199 1013 183 986 q 236 1062 215 1041 q 280 1098 256 1084 q 330 1112 304 1112 q 378 1100 355 1112 q 420 1073 400 1088 q 458 1046 440 1058 q 492 1035 476 1035 q 542 1056 517 1035 q 588 1118 566 1078 l 624 1103 "},"ŷ":{"x_min":-31,"x_max":658,"ha":672,"o":"m 658 601 q 625 592 638 596 q 604 583 612 588 q 592 571 596 578 q 584 555 588 565 l 362 -55 q 300 -184 334 -130 q 229 -272 266 -237 q 155 -322 192 -306 q 84 -339 117 -339 q 38 -335 59 -339 q 1 -327 16 -332 q -22 -315 -13 -322 q -31 -303 -31 -309 q -22 -286 -31 -299 q -2 -260 -14 -274 q 22 -231 9 -245 q 47 -211 36 -218 q 110 -232 79 -232 q 167 -223 142 -232 q 195 -204 179 -219 q 227 -168 211 -189 q 259 -119 243 -146 q 286 -62 274 -91 l 306 -15 l 87 555 q 64 584 81 574 q 14 601 47 593 l 14 630 l 271 630 l 271 601 q 228 594 245 598 q 203 586 212 591 q 193 573 194 581 q 195 555 191 566 l 359 123 l 512 555 q 513 572 515 565 q 502 584 511 579 q 476 593 493 589 q 436 601 460 597 l 436 631 l 658 631 l 658 601 m 562 740 q 550 721 554 728 q 534 710 545 715 l 352 892 l 172 710 q 163 715 167 713 q 156 721 159 718 q 150 730 153 725 q 142 740 147 734 l 318 998 l 388 998 l 562 740 "},"ŕ":{"x_min":37,"x_max":517.765625,"ha":540,"o":"m 512 626 q 517 602 517 621 q 512 556 517 582 q 499 503 507 530 q 483 458 491 476 l 455 458 q 443 504 451 485 q 426 534 436 523 q 405 550 417 545 q 381 556 394 556 q 347 543 366 556 q 307 504 327 530 q 266 435 286 477 q 230 336 245 393 l 230 70 q 254 49 230 60 q 342 29 279 38 l 342 0 l 37 0 l 37 29 q 105 49 80 39 q 130 70 130 58 l 130 465 q 128 502 130 487 q 125 527 127 518 q 120 542 123 537 q 114 551 117 547 q 104 560 110 556 q 89 565 98 563 q 68 568 80 568 q 37 568 55 568 l 37 597 q 121 620 80 608 q 196 651 163 632 l 224 627 l 224 472 q 267 543 246 510 q 312 599 288 575 q 362 637 336 623 q 417 651 388 651 q 463 645 438 651 q 512 626 487 640 m 271 709 q 249 717 259 712 q 233 728 240 722 l 388 1009 q 409 1007 396 1009 q 436 1003 422 1005 q 464 998 451 1001 q 485 994 477 996 l 500 967 l 271 709 "},"ˀ":{"x_min":21,"x_max":402,"ha":414,"o":"m 165 550 l 165 622 q 176 679 165 653 q 204 728 187 705 q 241 771 222 751 q 278 812 261 792 q 307 852 296 832 q 319 896 319 872 q 309 941 319 921 q 283 975 299 961 q 246 997 267 990 q 202 1005 225 1005 q 169 998 186 1005 q 140 980 153 991 q 119 954 127 969 q 111 923 111 939 q 112 911 111 917 q 116 899 114 905 q 78 889 100 893 q 34 884 55 886 l 21 896 q 21 903 21 899 l 21 910 q 38 964 21 938 q 86 1009 56 990 q 155 1039 116 1028 q 237 1051 194 1051 q 306 1040 276 1051 q 358 1011 337 1029 q 390 967 379 992 q 402 914 402 943 q 390 860 402 884 q 362 816 379 836 q 325 777 344 796 q 288 738 305 758 q 259 696 270 718 q 248 646 248 674 l 248 550 l 165 550 "},"©":{"x_min":66,"x_max":903,"ha":969,"o":"m 676 250 q 619 201 646 221 q 567 169 592 181 q 517 152 542 157 q 469 147 493 147 q 385 164 426 147 q 311 215 343 182 q 258 298 278 249 q 238 408 238 346 q 260 531 238 476 q 320 626 282 587 q 410 686 359 665 q 518 708 461 708 q 605 695 568 708 q 668 665 642 682 q 666 654 670 663 q 655 634 662 645 q 639 613 648 623 q 625 598 631 603 l 609 601 q 555 636 585 620 q 485 653 526 653 q 436 642 464 653 q 383 605 408 631 q 341 535 358 579 q 325 425 325 490 q 344 330 325 370 q 393 262 364 289 q 456 220 423 234 q 518 206 490 206 q 546 209 532 206 q 577 219 560 212 q 613 238 593 225 q 658 269 632 250 q 668 259 663 267 q 676 250 672 252 m 846 428 q 819 579 846 508 q 743 703 792 650 q 629 786 695 755 q 483 817 562 817 q 339 786 405 817 q 225 703 273 755 q 149 579 176 650 q 123 428 123 508 q 149 276 123 347 q 225 152 176 204 q 339 68 273 99 q 483 38 405 38 q 629 68 562 38 q 743 152 695 99 q 819 276 792 204 q 846 428 846 347 m 903 428 q 888 309 903 366 q 848 202 874 251 q 784 111 821 152 q 700 41 746 70 q 599 -4 653 11 q 483 -20 544 -20 q 316 15 392 -20 q 184 111 240 50 q 97 253 128 171 q 66 428 66 335 q 97 602 66 520 q 184 744 128 683 q 316 839 240 804 q 483 875 392 875 q 599 859 544 875 q 700 813 653 843 q 784 744 746 784 q 848 653 821 703 q 888 546 874 603 q 903 428 903 489 "},"˘":{"x_min":26.578125,"x_max":458.578125,"ha":485,"o":"m 458 923 q 413 830 438 868 q 361 769 388 793 q 303 736 333 746 q 243 726 273 726 q 180 736 211 726 q 122 769 150 746 q 70 830 95 793 q 26 923 46 868 q 42 941 34 935 q 61 953 50 948 q 100 888 78 915 q 145 846 121 862 q 194 823 169 830 q 241 816 219 816 q 290 823 264 816 q 339 846 315 830 q 385 888 364 862 q 423 953 407 915 q 442 941 434 948 q 458 923 450 935 "},"Ă":{"x_min":0,"x_max":796,"ha":810,"o":"m 504 363 l 386 711 l 272 363 l 504 363 m 252 302 l 179 75 q 197 45 172 54 q 276 29 221 35 l 276 0 l 0 0 l 0 29 q 71 46 45 37 q 104 75 98 55 l 352 838 q 390 869 367 855 q 430 892 412 883 l 709 75 q 718 58 712 66 q 734 45 724 51 q 759 36 744 40 q 796 29 774 32 l 796 0 l 516 0 l 516 31 q 587 41 567 31 q 600 75 607 52 l 524 302 l 252 302 m 614 1139 q 569 1046 594 1084 q 516 985 544 1009 q 459 952 489 962 q 399 942 429 942 q 336 952 366 942 q 277 985 305 962 q 226 1046 250 1009 q 181 1139 201 1084 q 197 1157 189 1151 q 216 1169 205 1164 q 255 1104 233 1131 q 300 1062 276 1078 q 349 1039 324 1046 q 396 1032 374 1032 q 445 1039 419 1032 q 495 1062 471 1046 q 541 1104 519 1078 q 579 1169 563 1131 q 598 1157 590 1164 q 614 1139 606 1151 "},"D":{"x_min":27.015625,"x_max":746,"ha":806,"o":"m 300 816 q 235 816 266 816 l 235 104 q 241 80 235 89 q 277 62 250 68 q 356 57 304 57 q 450 79 402 57 q 540 148 499 102 q 607 265 581 195 q 633 431 633 335 q 611 592 633 521 q 546 713 589 663 q 442 789 504 763 q 300 816 380 816 m 746 456 q 729 305 746 372 q 683 188 712 239 q 617 101 654 137 q 538 43 579 66 q 453 10 496 20 q 371 0 410 0 l 33 0 l 33 29 q 103 49 78 38 q 129 70 129 61 l 129 805 q 78 798 102 801 q 33 791 54 794 l 27 833 q 94 850 56 842 q 175 864 132 858 q 261 871 217 871 q 343 871 304 871 q 510 842 436 871 q 637 761 585 814 q 717 631 689 708 q 746 456 746 554 "},"ÿ":{"x_min":-31,"x_max":658,"ha":672,"o":"m 658 601 q 625 592 638 596 q 604 583 612 588 q 592 571 596 578 q 584 555 588 565 l 362 -55 q 300 -184 334 -130 q 229 -272 266 -237 q 155 -322 192 -306 q 84 -339 117 -339 q 38 -335 59 -339 q 1 -327 16 -332 q -22 -315 -13 -322 q -31 -303 -31 -309 q -22 -286 -31 -299 q -2 -260 -14 -274 q 22 -231 9 -245 q 47 -211 36 -218 q 111 -232 79 -232 q 167 -223 142 -232 q 195 -204 179 -219 q 227 -168 211 -189 q 259 -119 243 -146 q 286 -62 274 -91 l 306 -15 l 88 555 q 64 584 82 574 q 14 601 47 593 l 14 630 l 271 630 l 271 601 q 228 594 245 598 q 203 586 212 591 q 193 573 194 581 q 195 555 191 566 l 358 123 l 512 555 q 513 572 515 565 q 501 584 510 579 q 476 593 493 589 q 436 601 460 597 l 436 631 l 658 631 l 658 601 m 552 854 q 546 818 552 835 q 529 789 540 801 q 505 769 519 776 q 474 762 491 762 q 431 778 444 762 q 419 826 419 795 q 424 862 419 845 q 441 892 430 879 q 465 911 452 904 q 495 919 479 919 q 552 854 552 919 m 287 854 q 281 818 287 835 q 264 789 275 801 q 240 769 254 776 q 209 762 226 762 q 166 778 179 762 q 154 826 154 795 q 159 862 154 845 q 176 892 165 879 q 200 911 187 904 q 230 919 214 919 q 287 854 287 919 "},"ĺ":{"x_min":40,"x_max":413.4375,"ha":369,"o":"m 40 0 l 40 29 q 88 38 68 33 q 118 49 107 44 q 135 59 130 54 q 140 70 140 65 l 140 878 q 136 926 140 909 q 121 951 132 943 q 92 963 110 960 q 46 969 74 966 l 46 996 q 134 1017 94 1006 q 216 1051 174 1029 l 240 1028 l 240 70 q 262 49 240 60 q 339 29 284 38 l 339 0 l 40 0 m 102 1143 q 85 1155 90 1148 q 72 1174 80 1161 l 329 1389 q 346 1378 335 1385 q 370 1365 358 1372 q 392 1351 382 1358 q 407 1339 402 1344 l 413 1308 l 102 1143 "},"ł":{"x_min":36.375,"x_max":359.296875,"ha":383,"o":"m 47 0 l 47 29 q 95 38 75 33 q 125 49 114 44 q 142 59 137 54 q 147 70 147 65 l 147 459 l 52 391 l 36 402 q 39 417 37 411 q 42 428 40 422 q 46 442 43 434 q 55 465 49 450 l 147 530 l 147 878 q 143 926 147 909 q 128 951 139 943 q 99 963 117 960 q 53 969 81 966 l 53 996 q 141 1017 101 1006 q 223 1051 181 1029 l 247 1028 l 247 600 l 344 670 l 359 659 q 355 641 357 648 q 352 628 354 634 q 347 616 350 623 q 340 598 344 609 l 247 530 l 247 70 q 269 49 247 60 q 346 29 291 38 l 346 0 l 47 0 "},"Ł":{"x_min":27.015625,"x_max":627.09375,"ha":648,"o":"m 627 165 q 613 63 621 106 q 599 0 605 19 l 33 0 l 33 29 q 104 49 78 38 q 130 70 130 61 l 130 361 l 45 318 l 27 332 q 33 347 29 339 q 42 365 37 356 q 52 381 47 374 q 61 393 57 389 l 130 428 l 130 783 q 105 803 130 791 q 33 825 81 815 l 33 854 l 332 854 l 332 825 q 261 804 286 815 q 236 783 236 792 l 236 482 l 420 578 l 437 561 q 422 531 432 549 q 402 502 411 513 l 236 416 l 236 111 q 241 89 236 98 q 261 74 247 80 q 299 64 275 67 q 359 61 322 61 l 454 61 q 505 64 484 61 q 542 79 526 67 q 571 114 558 91 q 598 177 584 137 l 627 165 "},"$":{"x_min":60.375,"x_max":573,"ha":639,"o":"m 149 649 q 159 604 149 623 q 188 569 170 585 q 232 541 207 553 q 287 517 258 528 l 287 755 q 222 745 248 755 q 179 720 195 735 q 156 686 163 705 q 149 649 149 667 m 483 219 q 472 275 483 251 q 443 318 461 300 q 399 351 424 337 q 347 378 374 365 l 347 76 q 398 91 373 79 q 441 122 422 103 q 471 165 460 140 q 483 219 483 190 m 347 -97 q 336 -105 341 -102 q 328 -110 332 -108 q 318 -114 323 -112 q 305 -118 313 -116 l 287 -103 l 287 -7 q 227 -2 255 -7 q 174 10 200 1 q 122 32 148 19 q 67 64 96 45 q 62 87 64 68 q 60 132 60 106 q 60 184 60 157 q 67 230 60 211 l 96 227 q 177 121 127 157 q 287 77 226 85 l 287 401 q 206 434 245 417 q 135 475 166 451 q 84 533 103 499 q 65 617 65 567 q 75 678 65 645 q 112 740 86 711 q 181 790 138 769 q 287 819 223 812 l 287 918 q 300 927 296 924 q 307 931 304 929 q 315 934 311 933 q 329 937 319 935 l 347 923 l 347 822 q 406 817 377 822 q 460 805 435 813 q 505 785 485 796 q 539 761 525 774 q 537 744 542 757 q 523 717 533 731 q 503 688 514 702 q 483 666 491 674 l 457 671 q 402 721 430 702 q 347 748 374 740 l 347 493 q 428 458 388 477 q 501 411 469 439 q 553 346 533 384 q 573 255 573 308 q 558 172 573 214 q 515 94 544 130 q 444 32 487 58 q 347 -2 402 5 l 347 -97 "},"w":{"x_min":13,"x_max":947,"ha":961,"o":"m 947 601 q 914 592 926 597 q 895 583 902 588 q 885 573 888 579 q 880 559 882 567 l 733 40 q 718 14 729 25 q 692 -2 706 4 q 664 -13 678 -9 q 642 -20 651 -17 l 484 439 l 348 40 q 332 14 343 24 q 307 -3 321 3 q 281 -14 294 -10 q 259 -20 268 -17 l 85 559 q 13 601 79 586 l 13 631 l 270 631 l 270 601 q 218 594 237 598 q 192 583 200 589 q 184 572 184 578 q 186 559 184 565 l 311 129 l 475 631 l 521 631 l 693 129 l 808 559 q 794 584 812 575 q 731 601 776 594 l 731 631 l 947 631 l 947 601 "},"\\":{"x_min":36.546875,"x_max":601.46875,"ha":639,"o":"m 578 -227 q 559 -220 570 -224 q 538 -211 548 -216 q 518 -202 527 -207 q 502 -192 508 -197 l 36 1070 l 61 1085 q 136 1051 99 1074 l 601 -210 l 578 -227 "},"Ì":{"x_min":-27.421875,"x_max":346,"ha":406,"o":"m 47 0 l 47 29 q 118 49 92 38 q 144 70 144 61 l 144 782 q 119 803 144 790 q 47 824 95 815 l 47 854 l 346 854 l 346 824 q 275 803 300 815 q 250 782 250 792 l 250 70 q 274 50 250 62 q 346 29 298 38 l 346 0 l 47 0 m 314 957 q 299 937 304 944 q 284 926 295 931 l -27 1091 l -22 1121 q -7 1134 -17 1127 q 15 1147 3 1140 q 38 1161 27 1155 q 57 1172 49 1167 l 314 957 "},"Ç":{"x_min":47,"x_max":676.765625,"ha":730,"o":"m 498 -155 q 486 -203 498 -180 q 450 -245 474 -226 q 386 -278 425 -264 q 293 -301 347 -292 l 278 -267 q 337 -252 313 -261 q 376 -232 361 -243 q 399 -209 392 -221 q 406 -187 406 -198 q 388 -154 406 -164 q 330 -141 371 -145 q 337 -122 331 -139 q 350 -78 341 -108 q 369 -19 358 -55 q 258 8 313 -19 q 151 90 199 36 q 75 221 104 143 q 47 397 47 298 q 79 593 47 505 q 166 744 111 682 q 294 840 221 806 q 449 874 367 874 q 575 854 521 874 q 664 806 629 835 q 662 793 668 803 q 645 770 656 783 q 623 744 635 757 q 604 723 612 731 l 581 727 q 500 779 547 759 q 393 800 454 800 q 344 791 371 800 q 290 764 317 783 q 237 716 262 746 q 192 645 212 687 q 161 548 173 603 q 150 422 150 492 q 175 264 150 332 q 241 151 201 196 q 331 83 281 106 q 427 61 380 61 q 521 86 463 61 q 652 173 579 111 q 659 167 655 172 q 666 158 662 163 q 672 149 669 153 q 676 143 674 145 q 595 65 634 96 q 520 14 556 33 q 448 -12 483 -4 q 422 -16 435 -14 l 404 -70 q 439 -81 422 -74 q 469 -97 456 -87 q 490 -122 482 -107 q 498 -155 498 -136 "},"Ŝ":{"x_min":80,"x_max":589,"ha":649,"o":"m 589 255 q 581 193 589 225 q 556 130 573 161 q 516 72 540 99 q 458 24 491 45 q 384 -7 426 4 q 293 -20 342 -20 q 245 -15 271 -20 q 191 -2 219 -10 q 137 18 164 6 q 87 46 110 30 q 81 69 82 48 q 80 116 80 89 q 80 172 80 144 q 87 219 80 201 l 114 216 q 152 147 129 176 q 203 98 175 117 q 263 70 231 79 q 330 61 296 61 q 390 73 360 61 q 444 107 420 86 q 483 158 468 129 q 499 219 499 187 q 481 290 499 261 q 434 343 463 320 q 367 385 405 366 q 291 421 330 403 q 215 460 252 440 q 149 507 178 480 q 102 570 120 535 q 85 655 85 606 q 90 701 85 676 q 110 750 96 725 q 144 797 123 774 q 195 837 165 820 q 263 864 224 854 q 350 875 301 875 q 410 870 380 875 q 466 857 440 865 q 514 837 493 849 q 547 812 535 826 q 547 796 552 808 q 534 770 543 784 q 514 743 525 756 q 495 722 503 729 l 471 726 q 432 763 453 748 q 391 789 412 779 q 349 802 370 798 q 310 807 329 807 q 247 795 273 807 q 203 766 220 783 q 178 727 186 749 q 171 687 171 706 q 188 631 171 655 q 236 585 206 606 q 303 546 265 564 q 379 508 340 528 q 456 465 419 488 q 523 412 494 442 q 571 344 553 382 q 589 255 589 305 m 543 957 q 530 938 535 944 q 514 927 525 932 l 332 1068 l 151 927 q 142 932 146 929 q 136 938 139 935 q 129 946 133 942 q 122 957 126 951 l 297 1167 l 368 1167 l 543 957 "},"C":{"x_min":47,"x_max":677.046875,"ha":730,"o":"m 677 143 q 595 65 634 97 q 520 15 556 34 q 449 -11 484 -3 q 379 -20 414 -20 q 258 8 318 -20 q 152 90 199 36 q 75 221 104 144 q 47 397 47 299 q 79 594 47 506 q 166 744 111 682 q 294 841 221 807 q 449 875 368 875 q 575 855 521 875 q 664 807 629 835 q 662 793 668 803 q 646 770 656 783 q 624 744 635 757 q 604 723 612 731 l 581 727 q 500 780 547 759 q 393 800 454 800 q 344 791 371 800 q 290 765 317 783 q 237 717 263 746 q 192 645 212 687 q 161 548 173 603 q 150 422 150 493 q 175 264 150 332 q 241 151 201 196 q 331 83 281 106 q 427 61 380 61 q 521 86 463 61 q 652 173 579 111 q 659 167 655 172 q 666 158 663 163 q 672 149 669 153 q 677 143 675 145 "},"Ē":{"x_min":33,"x_max":633.859375,"ha":675,"o":"m 633 165 q 620 63 628 107 q 606 0 611 19 l 33 0 l 33 29 q 104 49 78 38 q 130 70 130 61 l 130 782 q 105 803 130 790 q 33 824 81 815 l 33 854 l 568 854 l 590 837 q 587 798 590 819 q 580 756 584 777 q 571 716 576 735 q 563 684 567 697 l 533 684 q 528 736 533 715 q 517 770 524 757 q 501 787 511 782 q 479 793 491 793 l 236 793 l 236 498 l 505 498 l 522 479 q 509 458 517 469 q 493 437 501 447 q 476 417 485 426 q 461 403 468 409 q 439 420 451 413 q 413 432 428 427 q 377 438 398 436 q 329 441 357 441 l 236 441 l 236 104 q 240 86 236 94 q 259 72 245 78 q 301 64 274 67 q 371 61 327 61 l 457 61 q 509 64 487 61 q 547 79 530 67 q 577 114 564 91 q 605 177 591 137 l 633 165 m 564 1058 q 560 1041 563 1051 q 552 1021 556 1031 q 545 1002 548 1012 q 538 987 541 993 l 130 987 l 115 1003 q 120 1020 117 1011 q 127 1040 123 1030 q 135 1059 131 1049 q 143 1075 139 1068 l 550 1075 l 564 1058 "},"!":{"x_min":101,"x_max":259,"ha":370,"o":"m 259 83 q 252 39 259 59 q 232 4 245 19 q 203 -18 220 -10 q 167 -27 186 -27 q 116 -7 131 -27 q 101 48 101 12 q 108 91 101 71 q 128 127 115 111 q 157 151 140 142 q 193 160 174 160 q 242 140 226 160 q 259 83 259 120 m 232 263 q 202 248 215 254 q 167 237 189 242 l 132 251 l 132 947 q 177 979 153 964 q 220 1003 200 994 l 232 986 l 232 263 "},"ç":{"x_min":53,"x_max":557.953125,"ha":595,"o":"m 435 -155 q 423 -204 435 -181 q 387 -246 411 -227 q 323 -279 362 -265 q 230 -301 284 -293 l 215 -268 q 274 -253 250 -262 q 313 -233 298 -244 q 336 -210 329 -222 q 343 -187 343 -198 q 325 -155 343 -164 q 267 -142 308 -146 q 274 -123 268 -140 q 288 -78 278 -109 q 306 -21 295 -56 q 213 0 258 -21 q 132 64 168 23 q 74 165 96 105 q 53 300 53 225 q 79 437 53 373 q 150 548 105 501 q 258 623 196 595 q 391 650 320 650 q 436 646 413 650 q 480 636 459 643 q 519 619 501 628 q 547 597 536 609 q 545 573 549 588 q 536 542 542 559 q 523 510 530 525 q 510 485 516 495 l 485 492 q 468 518 480 504 q 437 546 456 533 q 392 567 418 559 q 332 576 366 576 q 264 560 297 576 q 207 512 232 544 q 167 432 182 480 q 153 321 153 385 q 169 216 153 263 q 215 136 186 169 q 280 84 243 102 q 356 67 316 67 q 391 68 375 67 q 426 79 407 70 q 469 105 445 88 q 532 155 494 123 l 557 128 q 481 46 514 75 q 420 1 448 16 q 366 -16 393 -13 q 359 -18 363 -17 l 341 -71 q 376 -81 359 -75 q 406 -98 393 -88 q 427 -122 419 -108 q 435 -155 435 -136 "},"È":{"x_min":33,"x_max":633.859375,"ha":675,"o":"m 633 165 q 620 63 628 107 q 606 0 611 19 l 33 0 l 33 29 q 104 49 78 38 q 130 70 130 61 l 130 782 q 105 803 130 790 q 33 824 81 815 l 33 854 l 568 854 l 590 837 q 587 798 590 819 q 580 756 584 777 q 571 716 576 735 q 563 684 567 697 l 533 684 q 528 736 533 715 q 517 770 524 757 q 501 787 511 782 q 479 793 491 793 l 236 793 l 236 498 l 505 498 l 522 479 q 509 458 517 469 q 493 437 501 447 q 476 417 485 426 q 461 403 468 409 q 439 420 451 413 q 413 432 428 427 q 377 438 398 436 q 329 441 357 441 l 236 441 l 236 104 q 240 86 236 94 q 259 72 245 78 q 301 64 274 67 q 371 61 327 61 l 457 61 q 509 64 487 61 q 547 79 530 67 q 577 114 564 91 q 605 177 591 137 l 633 165 m 451 957 q 437 937 441 944 q 421 926 432 931 l 109 1091 l 115 1121 q 130 1134 119 1127 q 152 1147 140 1140 q 175 1161 164 1155 q 194 1172 186 1167 l 451 957 "},"ﬁ":{"x_min":30.03125,"x_max":756,"ha":793,"o":"m 543 985 q 533 969 543 980 q 510 946 523 958 q 482 925 497 935 q 458 910 468 914 q 426 935 442 924 q 395 952 410 945 q 367 962 380 959 q 345 966 354 966 q 309 954 328 966 q 272 911 289 942 q 244 826 255 879 q 233 688 233 772 l 233 630 l 404 630 l 423 610 q 408 590 417 601 q 390 569 399 579 q 373 552 381 560 q 358 542 364 544 q 314 558 343 550 q 233 566 286 566 l 233 69 q 239 61 233 65 q 263 52 246 56 q 306 42 280 48 q 372 29 332 36 l 372 0 l 40 0 l 40 29 q 109 49 85 37 q 133 69 133 61 l 133 566 l 43 566 l 30 584 l 81 630 l 133 630 l 133 651 q 143 786 133 731 q 172 878 154 840 q 214 941 190 915 q 265 988 238 966 q 304 1014 283 1003 q 346 1034 326 1026 q 386 1046 367 1042 q 418 1051 405 1051 q 460 1042 438 1051 q 500 1024 482 1034 q 531 1002 519 1013 q 543 985 543 991 m 470 0 l 470 29 q 538 49 515 38 q 562 70 562 61 l 562 454 q 562 510 562 488 q 553 543 562 531 q 524 560 544 555 q 470 569 505 566 l 470 596 q 513 606 490 600 q 559 619 536 611 q 602 634 581 626 q 640 651 623 642 l 663 651 l 663 70 q 685 50 663 62 q 756 29 707 38 l 756 0 l 470 0 m 683 854 q 677 818 683 835 q 660 789 671 801 q 636 769 650 776 q 605 762 622 762 q 562 778 575 762 q 550 826 550 795 q 555 862 550 845 q 572 892 561 879 q 596 911 583 904 q 626 919 610 919 q 683 854 683 919 "},"X":{"x_min":21,"x_max":817,"ha":838,"o":"m 517 0 l 517 28 q 564 36 546 31 q 590 46 582 40 q 597 62 598 53 q 587 85 596 72 l 401 362 l 234 85 q 237 43 215 56 q 320 31 258 31 l 320 0 l 21 0 l 21 30 q 94 42 63 30 q 141 84 124 55 l 352 436 l 130 768 q 111 792 120 783 q 90 808 102 802 q 63 818 78 814 q 27 825 48 821 l 27 854 l 327 854 l 327 825 q 253 808 270 819 q 256 768 236 797 l 420 522 l 570 768 q 578 794 579 784 q 565 810 576 804 q 533 820 554 817 q 484 824 513 824 l 484 855 l 785 855 l 785 825 q 742 818 761 822 q 708 808 723 815 q 682 792 693 802 q 663 768 671 782 l 469 448 l 712 85 q 732 61 722 71 q 755 45 742 52 q 782 35 767 39 q 817 28 798 31 l 817 0 l 517 0 "},"ô":{"x_min":53,"x_max":631.015625,"ha":684,"o":"m 528 309 q 510 411 528 362 q 466 496 493 459 q 404 555 438 533 q 336 577 369 577 q 251 557 285 577 q 195 503 216 537 q 165 422 174 469 q 156 321 156 375 q 174 219 156 267 q 221 133 193 170 q 283 75 249 97 q 347 54 317 54 q 429 72 395 54 q 484 123 462 90 q 517 203 506 157 q 528 309 528 250 m 631 329 q 619 240 631 283 q 588 158 608 197 q 540 86 568 119 q 479 30 512 53 q 407 -6 445 6 q 329 -20 369 -20 q 215 4 266 -20 q 128 71 164 28 q 72 173 92 114 q 53 301 53 232 q 63 389 53 346 q 94 472 74 433 q 141 544 114 511 q 202 600 169 576 q 275 638 236 624 q 355 651 314 651 q 468 627 417 651 q 555 559 519 602 q 611 457 591 516 q 631 329 631 398 m 565 741 q 552 722 557 728 q 536 710 547 716 l 354 892 l 174 710 q 165 716 169 713 q 159 722 161 718 q 152 730 156 725 q 144 741 149 735 l 320 998 l 391 998 l 565 741 "},"Ė":{"x_min":33,"x_max":633.859375,"ha":675,"o":"m 633 165 q 620 63 628 107 q 606 0 611 19 l 33 0 l 33 29 q 104 49 78 38 q 130 70 130 61 l 130 782 q 105 803 130 790 q 33 824 81 815 l 33 854 l 568 854 l 590 837 q 587 798 590 819 q 580 756 584 777 q 571 716 576 735 q 563 684 567 697 l 533 684 q 528 736 533 715 q 517 770 524 757 q 501 787 511 782 q 479 793 491 793 l 236 793 l 236 498 l 505 498 l 522 479 q 509 458 517 469 q 493 437 501 447 q 476 417 485 426 q 461 403 468 409 q 439 420 451 413 q 413 432 427 427 q 377 438 398 436 q 329 441 357 441 l 236 441 l 236 104 q 240 86 236 94 q 259 72 245 78 q 301 64 274 67 q 371 61 327 61 l 457 61 q 509 64 487 61 q 547 79 530 67 q 577 114 564 91 q 605 177 591 137 l 633 165 m 400 1044 q 394 1008 400 1025 q 377 979 388 991 q 353 959 367 966 q 322 952 339 952 q 279 968 292 952 q 267 1016 267 985 q 272 1052 267 1035 q 289 1082 278 1069 q 313 1101 300 1094 q 343 1109 327 1109 q 400 1044 400 1109 "},"Ā":{"x_min":0,"x_max":796,"ha":810,"o":"m 504 363 l 386 711 l 272 363 l 504 363 m 252 302 l 179 75 q 197 45 172 54 q 276 29 221 35 l 276 0 l 0 0 l 0 29 q 71 46 45 37 q 104 75 98 55 l 352 839 q 390 870 367 856 q 430 893 412 883 l 709 75 q 718 58 712 66 q 734 45 724 51 q 759 36 744 40 q 796 29 774 32 l 796 0 l 516 0 l 516 31 q 587 41 567 31 q 600 75 607 52 l 524 302 l 252 302 m 629 1058 q 624 1041 628 1051 q 617 1021 621 1031 q 609 1002 613 1012 q 603 987 606 993 l 194 987 l 179 1003 q 184 1020 181 1011 q 191 1040 187 1030 q 199 1059 195 1049 q 207 1075 203 1068 l 614 1075 l 629 1058 "},"ċ":{"x_min":53,"x_max":558.140625,"ha":595,"o":"m 558 129 q 482 47 514 76 q 421 2 449 17 q 366 -16 393 -12 q 308 -20 340 -20 q 214 2 260 -20 q 132 65 167 24 q 74 166 96 106 q 53 301 53 226 q 79 438 53 374 q 151 549 105 502 q 258 624 196 596 q 391 651 320 651 q 436 647 413 651 q 480 637 459 644 q 519 620 501 629 q 548 598 536 610 q 546 574 549 589 q 536 543 542 560 q 523 511 530 526 q 510 486 516 496 l 485 493 q 468 519 480 505 q 437 547 456 534 q 392 568 418 560 q 332 577 366 577 q 264 561 297 577 q 207 513 232 545 q 167 433 182 481 q 153 322 153 386 q 169 217 153 264 q 215 137 186 170 q 280 85 243 103 q 356 68 317 68 q 391 69 375 68 q 426 80 407 71 q 470 106 445 89 q 532 156 495 124 l 558 129 m 392 855 q 386 819 392 836 q 369 790 380 802 q 345 770 359 777 q 314 763 331 763 q 271 779 284 763 q 259 827 259 796 q 264 863 259 846 q 281 893 270 880 q 305 912 292 905 q 335 920 319 920 q 392 855 392 920 "},"đ":{"x_min":53,"x_max":705.984375,"ha":707,"o":"m 698 57 q 643 21 667 36 q 601 -2 619 6 q 570 -16 583 -12 q 548 -21 557 -21 q 512 9 526 -21 q 498 114 498 40 q 446 58 471 83 q 395 16 421 33 q 339 -10 368 -1 q 276 -20 310 -20 q 199 2 239 -20 q 127 65 160 24 q 73 166 94 106 q 53 301 53 226 q 63 381 53 340 q 92 461 73 422 q 140 534 112 500 q 202 595 168 569 q 278 636 237 621 q 366 651 319 651 q 428 643 397 651 q 495 608 459 636 l 495 773 l 309 773 l 293 787 q 300 810 297 798 q 309 834 303 823 l 495 834 l 495 864 q 493 924 495 902 q 481 958 491 946 q 453 975 472 971 q 398 980 433 980 l 398 1007 q 496 1027 453 1015 q 574 1051 539 1040 l 595 1031 l 595 834 l 690 834 l 705 817 l 690 773 l 595 773 l 595 172 q 595 131 595 148 q 597 103 595 114 q 601 84 599 91 q 608 72 604 76 q 632 67 614 64 q 689 86 649 70 l 698 57 m 495 177 l 495 495 q 433 555 473 534 q 345 577 393 577 q 267 561 303 577 q 207 513 232 545 q 167 433 181 481 q 153 322 153 386 q 169 217 153 264 q 210 137 185 170 q 266 85 236 103 q 323 68 296 68 q 368 77 346 68 q 411 102 390 87 q 453 137 432 117 q 495 177 474 156 "},"}":{"x_min":25.640625,"x_max":390.25,"ha":457,"o":"m 390 441 q 271 379 311 420 q 232 286 232 338 q 233 239 232 258 q 238 204 235 220 q 245 175 241 188 q 251 145 248 161 q 256 110 254 129 q 258 62 258 90 q 243 -23 258 16 q 200 -98 228 -63 q 132 -161 172 -132 q 43 -213 92 -190 l 25 -180 q 73 -143 51 -163 q 112 -96 96 -122 q 138 -41 129 -71 q 148 24 148 -11 q 144 88 148 63 q 135 134 140 112 q 126 182 130 156 q 122 247 122 207 q 129 302 122 275 q 153 353 137 329 q 191 396 169 377 q 242 428 213 416 q 185 450 208 434 q 148 488 162 465 q 127 543 133 512 q 122 611 122 574 q 126 680 122 651 q 135 734 130 708 q 144 784 140 759 q 148 842 148 809 q 143 909 148 880 q 125 962 138 938 q 89 1004 112 985 q 32 1043 66 1024 l 47 1085 q 143 1037 103 1062 q 208 980 183 1012 q 246 911 234 949 q 258 824 258 873 q 254 757 258 784 q 245 707 250 731 q 236 655 240 683 q 232 586 232 628 q 258 503 232 531 q 335 475 285 475 l 348 475 q 355 475 352 475 q 363 476 359 475 l 378 479 l 390 441 "},"â":{"x_min":53,"x_max":615.6875,"ha":625,"o":"m 233 68 q 318 88 273 68 q 414 154 363 109 l 414 329 q 321 311 358 320 q 262 293 285 302 q 225 273 239 284 q 200 252 211 263 q 172 210 183 234 q 162 155 162 187 q 169 111 162 128 q 189 84 177 94 q 212 71 200 74 q 233 68 225 68 m 615 55 q 522 -2 559 15 q 466 -21 485 -21 q 429 10 444 -21 q 415 97 415 41 q 354 44 384 66 q 295 7 324 21 q 241 -14 267 -7 q 194 -21 215 -21 q 145 -12 170 -21 q 99 12 120 -4 q 66 58 79 30 q 53 125 53 86 q 70 211 53 177 q 112 271 88 246 q 149 302 128 288 q 202 330 169 317 q 287 356 236 344 q 414 380 337 368 l 414 475 q 408 518 414 498 q 390 552 403 538 q 356 575 378 567 q 302 583 334 583 q 260 576 281 583 q 224 557 239 569 q 200 527 209 544 q 193 490 191 511 q 180 476 194 484 q 146 463 166 469 q 107 453 126 456 q 80 452 88 450 l 71 478 q 118 543 86 512 q 189 598 149 575 q 274 636 229 622 q 361 651 319 651 q 474 611 434 651 q 514 503 514 572 l 514 120 q 521 80 514 92 q 540 68 528 68 q 564 71 549 68 q 605 86 579 74 l 615 55 m 529 740 q 516 721 521 727 q 500 710 512 715 l 318 891 l 138 710 q 129 715 132 712 q 122 721 125 718 q 116 729 119 724 q 108 740 112 734 l 283 997 l 354 997 l 529 740 "},"ø":{"x_min":53,"x_max":631,"ha":684,"o":"m 529 309 q 518 388 529 349 q 490 458 507 426 l 236 114 q 292 70 263 86 q 347 54 321 54 q 429 72 395 54 q 485 123 463 90 q 518 203 507 157 q 529 309 529 250 m 155 321 q 165 242 155 279 q 195 171 176 204 l 450 516 q 394 561 424 545 q 336 577 365 577 q 251 557 285 577 q 195 503 216 537 q 164 422 173 469 q 155 321 155 375 m 628 644 l 560 553 q 612 453 594 510 q 631 329 631 396 q 619 240 631 283 q 588 158 608 197 q 540 86 568 119 q 479 30 512 53 q 407 -6 445 6 q 329 -20 370 -20 q 244 -7 283 -20 q 173 29 205 5 l 160 12 q 143 0 154 7 q 120 -14 132 -7 q 97 -27 109 -21 q 77 -35 85 -32 l 58 -13 l 125 76 q 71 176 90 119 q 53 301 53 233 q 63 389 53 346 q 94 472 74 433 q 141 544 114 511 q 202 600 169 576 q 275 638 236 624 q 355 651 313 651 q 440 638 400 651 q 512 600 479 625 l 526 619 q 545 632 535 625 q 566 646 555 640 q 587 659 577 653 q 607 667 598 664 l 628 644 "},"ŋ":{"x_min":37,"x_max":639,"ha":745,"o":"m 639 59 q 626 -74 639 -19 q 594 -166 614 -128 q 548 -229 573 -203 q 495 -276 522 -254 q 455 -303 477 -291 q 410 -322 432 -314 q 367 -334 387 -330 q 334 -339 347 -339 q 285 -332 311 -339 q 236 -315 259 -325 q 198 -293 213 -305 q 183 -272 183 -282 q 192 -255 183 -265 q 216 -233 202 -244 q 244 -211 229 -221 q 268 -196 259 -201 q 307 -226 287 -215 q 347 -245 328 -238 q 382 -255 366 -252 q 408 -258 398 -258 q 449 -245 426 -258 q 492 -201 472 -232 q 525 -114 512 -169 q 539 23 539 -60 l 539 429 q 534 496 539 470 q 519 536 529 522 q 493 556 509 551 q 453 562 477 562 q 407 552 433 562 q 353 519 382 542 q 292 461 324 497 q 229 372 260 425 l 229 70 q 254 49 229 60 q 323 29 279 38 l 323 0 l 37 0 l 37 29 q 105 49 80 40 q 130 70 130 58 l 130 482 q 128 524 130 508 q 117 548 126 539 q 89 561 108 557 q 37 569 70 565 l 37 597 q 120 618 82 604 q 196 651 159 632 l 223 627 l 223 458 q 290 539 255 503 q 362 599 326 574 q 432 637 398 624 q 491 651 465 651 q 547 642 520 651 q 594 615 573 633 q 626 568 614 596 q 639 502 639 540 l 639 59 "},"‰":{"x_min":51,"x_max":1329,"ha":1380,"o":"m 1232 196 q 1223 278 1232 243 q 1202 337 1215 313 q 1170 371 1188 360 q 1133 383 1152 383 q 1103 373 1118 383 q 1077 343 1089 363 q 1059 294 1066 324 q 1052 225 1052 265 q 1059 140 1052 176 q 1079 81 1066 104 q 1110 46 1092 58 q 1150 35 1129 35 q 1181 45 1166 35 q 1207 75 1196 55 q 1225 126 1218 95 q 1232 196 1232 156 m 1329 209 q 1313 120 1329 162 q 1270 47 1297 78 q 1208 -2 1243 15 q 1134 -21 1172 -21 q 1062 -2 1094 -21 q 1005 47 1029 15 q 968 120 981 78 q 956 209 956 162 q 972 298 956 256 q 1015 371 988 339 q 1077 420 1042 402 q 1150 439 1112 439 q 1223 421 1190 439 q 1279 371 1255 403 q 1316 298 1303 340 q 1329 209 1329 257 m 794 196 q 785 278 794 243 q 763 337 777 313 q 731 371 749 360 q 694 383 713 383 q 665 373 679 383 q 640 343 651 363 q 621 294 628 324 q 615 225 615 265 q 622 140 615 176 q 642 81 629 104 q 673 46 655 58 q 712 35 691 35 q 743 45 729 35 q 769 75 758 55 q 787 126 780 95 q 794 196 794 156 m 889 209 q 873 120 889 162 q 830 47 857 78 q 768 -2 804 15 q 694 -21 733 -21 q 623 -2 656 -21 q 567 47 591 15 q 531 120 544 78 q 518 209 518 162 q 534 298 518 256 q 577 371 550 339 q 639 420 604 402 q 712 439 674 439 q 784 421 752 439 q 840 371 817 403 q 876 298 863 340 q 889 209 889 257 m 238 11 q 220 1 232 6 q 195 -8 209 -3 q 169 -16 182 -12 q 148 -23 156 -21 l 132 0 l 701 805 q 744 825 720 817 q 790 839 769 833 l 809 816 l 238 11 m 328 595 q 319 678 328 643 q 297 736 311 713 q 265 770 283 759 q 227 782 247 782 q 198 772 213 782 q 172 742 184 762 q 154 693 161 723 q 147 624 147 664 q 154 539 147 575 q 174 480 161 503 q 206 445 187 457 q 245 434 224 434 q 276 444 261 434 q 303 474 291 454 q 321 525 314 494 q 328 595 328 555 m 424 608 q 408 519 424 561 q 365 446 392 477 q 302 396 338 414 q 227 378 267 378 q 156 396 188 378 q 100 446 124 414 q 63 519 76 477 q 51 608 51 561 q 66 697 51 655 q 109 770 82 738 q 172 819 136 801 q 245 838 207 838 q 318 820 285 838 q 374 770 350 802 q 411 697 398 739 q 424 608 424 656 "},"Ä":{"x_min":0,"x_max":796,"ha":810,"o":"m 504 363 l 387 711 l 272 363 l 504 363 m 252 302 l 179 75 q 197 45 172 54 q 276 29 222 35 l 276 0 l 0 0 l 0 29 q 71 46 45 37 q 105 75 98 55 l 352 838 q 390 869 367 855 q 430 893 413 883 l 709 75 q 718 58 712 66 q 734 45 724 51 q 759 36 744 40 q 796 29 774 32 l 796 0 l 516 0 l 516 31 q 587 41 568 31 q 600 75 607 52 l 524 302 l 252 302 m 598 1044 q 592 1008 598 1025 q 575 979 586 991 q 551 959 565 966 q 520 952 537 952 q 477 968 490 952 q 465 1016 465 985 q 470 1052 465 1035 q 487 1082 476 1069 q 511 1101 498 1094 q 541 1109 525 1109 q 598 1044 598 1109 m 332 1044 q 326 1008 332 1025 q 309 979 320 991 q 285 959 299 966 q 254 952 271 952 q 211 968 224 952 q 199 1016 199 985 q 204 1052 199 1035 q 221 1082 210 1069 q 245 1101 232 1094 q 275 1109 259 1109 q 332 1044 332 1109 "},"ř":{"x_min":37,"x_max":517.765625,"ha":540,"o":"m 512 626 q 517 602 517 621 q 512 556 517 582 q 499 503 507 530 q 483 458 491 476 l 455 458 q 443 504 451 485 q 426 534 436 523 q 405 550 417 545 q 381 556 394 556 q 347 543 366 556 q 307 504 327 530 q 266 435 286 477 q 230 336 245 393 l 230 70 q 254 49 230 60 q 342 29 279 38 l 342 0 l 37 0 l 37 29 q 105 49 80 39 q 130 70 130 58 l 130 465 q 128 502 130 487 q 125 527 127 518 q 120 542 123 537 q 114 551 117 547 q 104 560 110 556 q 89 565 98 563 q 68 568 80 568 q 37 568 55 568 l 37 597 q 121 620 80 608 q 196 651 163 632 l 224 627 l 224 472 q 267 543 246 510 q 312 599 288 575 q 362 637 336 623 q 417 651 388 651 q 463 645 438 651 q 512 626 487 640 m 335 726 l 264 726 l 88 968 q 96 979 93 974 q 103 987 100 984 q 109 993 106 991 q 118 999 113 996 l 301 829 l 481 999 q 497 987 492 993 q 509 968 501 981 l 335 726 "},"—":{"x_min":40.546875,"x_max":1002.21875,"ha":1043,"o":"m 1002 370 q 993 338 998 355 q 982 309 987 320 l 57 309 l 40 325 q 49 356 43 340 q 61 387 55 373 l 986 387 l 1002 370 "},"N":{"x_min":33,"x_max":851,"ha":884,"o":"m 33 0 l 33 29 q 105 48 82 35 q 129 70 129 61 l 129 778 q 83 810 107 799 q 33 824 58 820 l 33 854 l 173 854 q 190 852 183 854 q 203 845 196 850 q 217 829 209 839 q 237 801 224 818 l 674 187 l 674 782 q 652 804 674 790 q 578 824 630 817 l 578 854 l 851 854 l 851 824 q 778 805 802 818 q 754 782 754 792 l 754 -20 q 701 -6 720 -16 q 674 14 682 2 l 209 673 l 209 70 q 231 49 209 62 q 305 29 253 36 l 305 0 l 33 0 "},"⁄":{"x_min":131.59375,"x_max":713.78125,"ha":798,"o":"m 210 2 q 180 -10 194 -5 q 148 -20 166 -15 l 131 0 l 638 815 q 666 827 651 821 q 697 837 682 834 l 713 818 l 210 2 "},"2":{"x_min":65.046875,"x_max":550,"ha":638,"o":"m 550 0 l 84 0 l 65 50 q 202 215 144 143 q 303 342 261 287 q 372 439 345 397 q 416 514 400 481 q 438 573 432 546 q 443 626 443 600 q 436 684 443 657 q 413 732 429 712 q 371 764 397 752 q 310 776 346 776 q 260 762 283 776 q 220 728 237 748 q 195 682 204 707 q 186 633 186 656 q 165 621 174 626 q 147 611 156 616 q 127 604 138 607 q 100 599 116 601 l 83 620 q 106 693 83 655 q 168 763 129 731 q 255 816 206 795 q 355 837 304 837 q 430 825 395 837 q 491 790 465 813 q 532 730 517 767 q 547 645 547 694 q 538 584 547 614 q 511 518 529 553 q 464 440 493 482 q 394 345 435 398 q 299 228 352 293 q 176 82 245 163 l 454 82 q 474 87 465 82 q 490 100 483 92 q 502 119 497 109 q 511 142 507 130 q 522 202 519 168 l 550 194 l 550 0 "},"ü":{"x_min":27.265625,"x_max":710.359375,"ha":721,"o":"m 710 55 q 662 25 685 39 q 620 1 639 11 q 585 -14 600 -8 q 563 -20 571 -20 q 524 11 539 -20 q 510 112 510 42 q 432 44 467 70 q 369 3 398 18 q 316 -15 340 -10 q 271 -20 292 -20 q 211 -11 239 -20 q 160 20 182 -2 q 125 84 138 43 q 113 189 113 125 l 113 481 q 111 532 113 514 q 100 559 109 550 q 75 571 92 568 q 27 578 57 575 l 27 605 q 72 612 51 608 q 112 622 93 616 q 152 634 132 627 q 194 650 172 641 l 213 624 l 213 226 q 219 147 213 178 q 239 96 226 115 q 271 69 252 77 q 314 61 290 61 q 357 67 335 61 q 403 87 380 73 q 452 123 427 101 q 508 177 478 145 l 508 482 q 505 531 508 512 q 492 559 502 549 q 464 573 482 569 q 414 578 446 578 l 414 605 q 507 624 463 611 q 588 650 551 637 l 608 624 l 608 172 q 610 103 608 130 q 623 70 613 77 q 650 68 631 65 q 703 86 669 71 l 710 55 m 562 854 q 556 818 562 835 q 539 789 550 801 q 515 769 529 776 q 484 762 501 762 q 441 778 454 762 q 429 826 429 795 q 434 862 429 845 q 451 892 440 879 q 475 911 462 904 q 505 919 489 919 q 562 854 562 919 m 296 854 q 290 818 296 835 q 273 789 284 801 q 249 769 263 776 q 218 762 235 762 q 175 778 188 762 q 163 826 163 795 q 168 862 163 845 q 185 892 174 879 q 209 911 196 904 q 239 919 223 919 q 296 854 296 919 "},"˜":{"x_min":46.515625,"x_max":499.78125,"ha":546,"o":"m 499 912 q 471 857 487 884 q 434 808 454 830 q 390 773 414 787 q 340 760 366 760 q 296 771 317 760 q 255 798 275 783 q 215 824 235 812 q 176 836 196 836 q 128 814 150 836 q 81 754 106 792 l 46 768 q 74 823 58 795 q 111 872 91 850 q 155 907 132 893 q 205 921 179 921 q 253 909 230 921 q 295 883 275 897 q 333 856 315 868 q 367 845 351 845 q 417 866 392 845 q 463 927 441 888 l 499 912 "},"Ó":{"x_min":47,"x_max":757,"ha":817,"o":"m 653 426 q 645 519 653 473 q 622 606 637 565 q 584 682 606 647 q 534 742 562 716 q 473 782 506 767 q 402 797 439 797 q 295 771 342 797 q 216 698 249 746 q 167 584 184 651 q 150 434 150 517 q 170 290 150 358 q 224 171 190 223 q 304 90 259 120 q 402 61 350 61 q 503 84 457 61 q 583 153 549 107 q 635 268 616 200 q 653 426 653 337 m 757 439 q 727 263 757 346 q 645 117 697 180 q 526 17 594 54 q 382 -20 458 -20 q 240 15 302 -20 q 135 112 177 51 q 69 251 92 172 q 47 415 47 329 q 76 590 47 507 q 156 737 105 674 q 274 837 206 800 q 421 875 342 875 q 566 838 503 875 q 671 740 628 801 q 735 600 713 679 q 757 439 757 521 m 321 927 q 305 938 310 931 q 291 957 300 944 l 548 1172 q 566 1162 555 1168 q 590 1148 578 1155 q 612 1134 602 1141 q 627 1122 622 1127 l 633 1092 l 321 927 "},"ˇ":{"x_min":33.234375,"x_max":453.921875,"ha":487,"o":"m 279 726 l 208 726 l 33 968 q 41 979 37 974 q 47 987 44 984 q 54 993 50 991 q 63 999 57 996 l 245 829 l 425 999 q 441 987 436 993 q 453 968 445 981 l 279 726 "},"Ÿ":{"x_min":-0.046875,"x_max":781,"ha":808,"o":"m 239 0 l 239 29 q 323 55 299 42 q 348 78 348 68 l 348 364 q 292 478 323 419 q 228 594 261 538 q 165 699 195 651 q 111 780 134 748 q 97 794 105 788 q 78 806 90 801 q 48 814 66 811 q 2 818 30 818 l 0 846 q 78 856 39 852 q 145 861 117 861 q 197 834 176 861 q 250 757 221 802 q 307 663 278 713 q 363 562 336 614 q 413 461 390 510 l 592 780 q 585 808 602 798 q 518 825 569 818 l 518 854 l 781 854 l 781 825 q 711 807 735 816 q 677 780 687 798 l 454 366 l 454 78 q 459 68 454 73 q 478 55 465 62 q 512 42 491 48 q 565 29 533 35 l 565 0 l 239 0 m 601 1044 q 595 1008 601 1025 q 578 979 589 991 q 554 959 568 966 q 523 952 540 952 q 480 968 493 952 q 468 1016 468 985 q 473 1052 468 1035 q 490 1082 479 1069 q 514 1101 501 1094 q 544 1109 528 1109 q 601 1044 601 1109 m 335 1044 q 329 1008 335 1025 q 312 979 323 991 q 288 959 302 966 q 257 952 274 952 q 214 968 227 952 q 202 1016 202 985 q 207 1052 202 1035 q 224 1082 213 1069 q 248 1101 235 1094 q 278 1109 262 1109 q 335 1044 335 1109 "},"€":{"x_min":16.234375,"x_max":615.359375,"ha":639,"o":"m 415 317 l 197 317 q 225 197 205 246 q 271 118 244 148 q 331 74 298 88 q 399 61 364 61 q 439 66 419 61 q 481 85 459 72 q 530 120 503 99 q 590 173 556 142 q 597 167 594 172 q 604 158 601 163 q 610 149 608 154 q 615 143 613 145 q 542 65 575 97 q 479 15 510 34 q 417 -11 448 -3 q 349 -20 386 -20 q 254 0 299 -20 q 175 61 210 20 q 117 166 140 102 q 95 317 95 230 l 30 317 l 16 333 q 23 355 19 344 q 30 378 26 367 l 90 378 l 90 380 q 94 466 90 425 l 50 466 l 36 482 q 43 504 39 493 q 50 527 46 516 l 102 527 q 144 661 116 603 q 214 759 173 719 q 307 818 255 798 q 421 838 360 838 q 480 832 454 838 q 527 817 506 827 q 567 796 549 808 q 602 770 585 784 q 600 756 606 766 q 584 733 594 746 q 562 707 574 720 q 542 686 550 694 l 519 690 q 488 719 503 706 q 455 742 473 732 q 416 757 438 752 q 365 763 395 763 q 317 753 342 763 q 269 716 292 743 q 227 644 245 690 q 199 527 208 598 l 435 527 l 452 511 l 435 466 l 194 466 q 194 436 194 451 q 194 405 194 421 l 194 378 l 415 378 l 432 362 l 415 317 "},"Ŭ":{"x_min":33,"x_max":847,"ha":890,"o":"m 847 825 q 776 804 801 816 q 751 783 751 793 l 751 355 q 729 197 751 266 q 668 79 708 127 q 571 5 628 30 q 442 -20 514 -20 q 316 0 374 -20 q 218 58 259 18 q 153 158 176 98 q 130 301 130 218 l 130 783 q 105 804 130 791 q 33 825 81 816 l 33 855 l 332 855 l 332 825 q 261 804 286 816 q 236 783 236 793 l 236 335 q 250 218 236 270 q 295 131 265 167 q 368 76 325 95 q 468 58 411 58 q 552 81 516 58 q 614 142 589 104 q 652 229 639 180 q 665 327 665 277 l 665 783 q 640 804 665 791 q 568 825 616 816 l 568 855 l 847 855 l 847 825 m 666 1140 q 621 1047 646 1085 q 568 986 596 1010 q 511 953 541 963 q 451 943 481 943 q 388 953 418 943 q 330 986 357 963 q 278 1047 302 1010 q 234 1140 253 1085 q 249 1158 241 1152 q 269 1170 257 1165 q 307 1105 285 1132 q 352 1063 328 1079 q 401 1040 376 1047 q 448 1033 426 1033 q 497 1040 471 1033 q 547 1063 523 1047 q 593 1105 571 1079 q 630 1170 614 1132 q 650 1158 642 1165 q 666 1140 658 1152 "},"ĝ":{"x_min":20,"x_max":657.625,"ha":664,"o":"m 459 406 q 447 474 459 442 q 412 531 435 507 q 355 569 389 555 q 276 583 321 583 q 240 574 260 583 q 201 548 219 565 q 171 505 183 531 q 160 446 160 479 q 170 378 160 410 q 204 322 181 346 q 260 284 226 298 q 342 271 294 271 q 382 279 361 271 q 420 305 403 287 q 448 347 437 322 q 459 406 459 372 m 344 -2 q 297 3 319 0 q 257 10 276 6 q 182 -36 210 -15 q 141 -74 155 -57 q 123 -104 127 -90 q 120 -128 120 -118 q 138 -182 120 -157 q 188 -226 157 -208 q 260 -256 219 -245 q 347 -268 301 -268 q 428 -255 391 -268 q 490 -222 464 -243 q 530 -171 516 -200 q 545 -106 545 -141 q 536 -71 545 -87 q 505 -42 527 -55 q 443 -19 482 -29 q 344 -2 405 -9 m 552 434 q 529 339 552 382 q 468 265 506 296 q 384 217 431 234 q 288 200 337 200 l 285 200 q 241 154 253 172 q 230 132 230 136 q 236 116 230 124 q 262 101 243 109 q 315 87 281 94 q 400 74 348 80 q 520 50 472 66 q 595 12 567 33 q 634 -33 623 -8 q 645 -81 645 -57 q 631 -152 645 -118 q 593 -214 617 -185 q 536 -265 569 -242 q 466 -305 504 -288 q 389 -330 429 -321 q 310 -339 349 -339 q 246 -334 279 -339 q 180 -320 212 -330 q 118 -296 147 -311 q 67 -261 89 -282 q 32 -214 45 -240 q 20 -155 20 -188 q 26 -118 20 -137 q 51 -76 32 -99 q 105 -28 71 -54 q 197 28 140 -2 q 137 63 154 44 q 121 103 121 83 q 124 118 121 109 q 138 140 127 127 q 167 170 148 153 q 216 209 186 187 q 155 236 183 218 q 108 280 128 254 q 77 337 88 305 q 67 408 67 370 q 88 502 67 457 q 146 579 110 546 q 228 631 182 612 q 322 651 274 651 q 397 639 362 651 q 460 606 432 627 q 523 615 495 610 q 573 627 551 621 q 613 639 595 633 q 644 651 630 645 l 657 630 q 642 595 649 611 q 619 562 635 579 q 570 554 594 557 q 515 552 545 552 q 542 496 532 525 q 552 434 552 467 m 542 740 q 529 721 534 727 q 513 710 525 715 l 331 891 l 151 710 q 142 715 146 712 q 136 721 139 718 q 129 729 133 724 q 121 740 126 734 l 297 997 l 368 997 l 542 740 "},"ß":{"x_min":36.953125,"x_max":709,"ha":769,"o":"m 709 191 q 696 113 709 151 q 656 45 683 75 q 587 -2 629 15 q 485 -21 544 -21 q 439 -15 466 -21 q 385 -3 412 -10 q 338 13 359 4 q 312 31 317 23 q 309 46 310 34 q 309 74 309 58 q 309 109 309 91 q 310 144 309 127 q 315 174 312 161 q 321 191 317 186 l 346 182 q 368 120 351 146 q 408 78 384 94 q 458 54 431 61 q 510 47 485 47 q 554 54 533 47 q 590 74 575 61 q 614 106 605 87 q 623 146 623 124 q 610 208 623 181 q 575 254 597 234 q 527 290 554 274 q 472 321 500 306 q 416 352 443 336 q 368 388 389 368 q 333 433 346 408 q 321 493 321 459 q 337 568 321 539 q 378 615 353 597 q 431 647 402 634 q 484 674 460 660 q 525 708 509 688 q 542 760 542 727 q 532 831 542 795 q 503 897 523 867 q 452 946 483 927 q 376 966 420 966 q 317 954 344 966 q 270 911 290 942 q 240 826 251 879 q 230 688 230 772 l 230 0 l 36 0 l 36 28 q 106 48 82 36 q 130 68 130 60 l 130 651 q 140 787 130 732 q 169 879 151 842 q 211 942 187 917 q 261 988 235 966 q 341 1034 297 1018 q 434 1051 386 1051 q 531 1026 491 1051 q 596 966 571 1002 q 632 886 621 929 q 643 806 643 844 q 626 715 643 751 q 583 658 609 680 q 528 621 558 635 q 473 594 498 607 q 431 565 448 581 q 414 521 414 548 q 426 482 414 499 q 460 451 439 466 q 507 424 481 437 q 561 396 534 411 q 615 363 589 381 q 662 321 642 345 q 696 265 683 297 q 709 191 709 233 "},"s":{"x_min":63,"x_max":465,"ha":525,"o":"m 465 192 q 451 109 465 144 q 417 51 438 75 q 369 13 395 28 q 318 -7 343 0 q 271 -17 293 -15 q 236 -20 248 -20 q 159 -7 204 -20 q 70 29 114 4 q 64 51 65 31 q 63 97 63 71 q 66 150 63 123 q 74 192 69 176 l 104 184 q 117 131 104 156 q 153 87 130 106 q 205 58 175 69 q 269 48 234 48 q 313 55 293 48 q 348 77 333 63 q 370 111 362 91 q 379 154 379 130 q 364 202 379 181 q 327 240 350 223 q 274 273 303 258 q 213 304 244 288 q 159 335 185 319 q 113 371 133 351 q 81 417 93 392 q 69 474 69 442 q 85 549 69 516 q 129 604 102 582 q 192 639 157 627 q 266 651 228 651 q 311 647 287 651 q 361 636 336 643 q 406 620 385 629 q 441 598 427 611 q 442 580 445 594 q 432 549 439 566 q 419 517 426 532 q 408 497 412 502 l 382 502 q 316 570 350 551 q 249 590 281 590 q 209 582 227 590 q 179 563 192 575 q 161 537 167 551 q 155 508 155 522 q 167 469 155 487 q 201 437 180 452 q 248 408 221 421 q 302 379 274 394 q 360 347 331 364 q 412 308 389 330 q 450 258 435 286 q 465 192 465 230 "},"Ű":{"x_min":33,"x_max":847,"ha":890,"o":"m 847 825 q 776 804 801 816 q 751 783 751 793 l 751 355 q 729 197 751 266 q 668 79 708 127 q 571 5 628 30 q 442 -20 514 -20 q 316 0 374 -20 q 218 58 259 18 q 153 158 176 98 q 130 301 130 218 l 130 783 q 105 804 130 791 q 33 825 81 816 l 33 855 l 332 855 l 332 825 q 261 804 286 816 q 236 783 236 793 l 236 335 q 250 218 236 270 q 295 131 265 167 q 368 76 325 95 q 468 58 411 58 q 552 81 516 58 q 614 142 589 104 q 652 229 639 180 q 665 327 665 277 l 665 783 q 640 804 665 791 q 568 825 616 816 l 568 855 l 847 855 l 847 825 m 341 927 q 323 933 330 930 q 303 945 316 937 l 420 1227 q 439 1224 428 1225 q 461 1220 450 1222 q 482 1215 472 1217 q 499 1210 492 1213 l 514 1182 l 341 927 m 534 927 q 515 933 522 930 q 496 945 508 937 l 614 1227 q 632 1224 622 1225 q 654 1220 643 1222 q 675 1215 665 1217 q 693 1210 686 1213 l 708 1182 l 534 927 "},"?":{"x_min":53,"x_max":536,"ha":590,"o":"m 536 790 q 520 698 536 739 q 480 622 504 658 q 428 555 456 587 q 374 488 400 523 q 329 415 348 454 q 311 328 311 377 l 311 263 q 287 247 297 254 q 257 236 277 241 l 237 250 l 237 328 q 249 405 237 367 q 282 481 262 444 q 327 554 302 518 q 375 625 353 590 q 412 693 397 660 q 427 759 427 727 q 389 891 427 844 q 281 939 351 939 q 236 927 257 939 q 197 898 214 916 q 171 855 181 879 q 162 804 162 831 q 164 784 162 795 q 170 765 166 774 q 125 748 148 753 q 72 739 102 742 l 54 759 q 53 770 53 765 l 53 782 q 75 870 53 829 q 137 940 98 911 q 227 987 176 970 q 333 1004 277 1004 q 420 988 382 1004 q 483 944 458 972 q 522 877 509 916 q 536 790 536 837 m 358 83 q 351 39 358 59 q 331 4 344 19 q 302 -18 319 -10 q 266 -27 285 -27 q 215 -7 230 -27 q 200 48 200 12 q 207 91 200 71 q 227 127 214 111 q 256 151 239 142 q 292 160 273 160 q 341 140 325 160 q 358 83 358 120 "},"c":{"x_min":53,"x_max":558.40625,"ha":595,"o":"m 558 129 q 482 47 515 76 q 421 2 449 17 q 366 -16 393 -12 q 309 -20 340 -20 q 214 2 260 -20 q 132 65 168 24 q 74 166 96 106 q 53 301 53 226 q 79 438 53 374 q 151 549 105 502 q 258 624 196 596 q 392 651 320 651 q 437 647 414 651 q 480 637 459 644 q 519 620 501 629 q 548 598 537 610 q 546 574 549 589 q 537 543 543 560 q 523 511 531 526 q 510 486 516 496 l 485 493 q 468 519 480 505 q 437 547 456 534 q 392 568 418 560 q 332 577 366 577 q 264 561 297 577 q 207 513 232 545 q 167 433 182 481 q 153 322 153 386 q 169 217 153 264 q 215 137 186 170 q 280 85 243 103 q 357 68 317 68 q 391 69 375 68 q 426 80 407 71 q 470 106 445 89 q 532 156 495 124 l 558 129 "},"¶":{"x_min":33,"x_max":702,"ha":755,"o":"m 296 -169 l 296 -140 q 367 -119 341 -131 q 393 -98 393 -108 l 393 360 q 367 357 381 357 q 335 357 353 357 q 219 372 273 357 q 122 419 164 388 q 56 498 80 451 q 33 607 33 544 q 55 710 33 663 q 118 792 77 757 q 214 845 158 826 q 338 864 271 864 q 374 864 352 864 q 420 864 395 864 q 472 864 445 864 q 524 864 498 864 q 653 864 585 864 l 702 864 l 702 824 q 630 803 656 814 q 604 782 604 791 l 604 -98 q 628 -119 604 -107 q 702 -140 653 -131 l 702 -169 l 296 -169 m 393 413 l 393 812 q 325 817 352 817 q 252 802 285 817 q 194 764 218 788 q 156 706 170 739 q 143 635 143 673 q 155 559 143 598 q 195 487 168 520 q 264 434 222 455 q 364 413 305 413 l 393 413 m 526 785 q 499 793 512 789 l 473 800 l 473 -98 q 482 -111 473 -106 q 498 -119 492 -117 q 516 -111 506 -117 q 526 -98 526 -106 l 526 785 "},"Ī":{"x_min":31.71875,"x_max":374.578125,"ha":406,"o":"m 47 0 l 47 29 q 118 49 92 38 q 144 70 144 61 l 144 782 q 119 803 144 790 q 47 824 95 815 l 47 854 l 346 854 l 346 824 q 275 803 300 815 q 250 782 250 792 l 250 70 q 274 50 250 62 q 346 29 298 38 l 346 0 l 47 0 m 374 1085 q 369 1068 373 1078 q 362 1048 366 1058 q 354 1029 358 1039 q 348 1014 351 1020 l 46 1014 l 31 1030 q 36 1047 33 1038 q 43 1067 39 1057 q 51 1086 47 1076 q 59 1102 55 1095 l 359 1102 l 374 1085 "},"•":{"x_min":47,"x_max":331,"ha":378,"o":"m 331 448 q 319 373 331 407 q 286 315 307 339 q 237 277 265 291 q 173 264 208 264 q 117 275 141 264 q 78 306 94 286 q 54 354 62 327 q 47 415 47 382 q 59 489 47 455 q 92 548 71 523 q 142 586 114 572 q 205 600 171 600 q 259 588 235 600 q 298 557 282 577 q 322 509 314 537 q 331 448 331 482 "},"(":{"x_min":80,"x_max":405,"ha":431,"o":"m 383 -213 q 251 -114 308 -178 q 156 31 194 -51 q 99 214 118 115 q 80 422 80 314 q 101 637 80 533 q 163 828 123 741 q 259 982 202 916 q 383 1085 315 1048 l 405 1054 q 323 958 361 1017 q 255 819 284 898 q 209 645 226 741 q 193 441 193 549 q 206 248 193 342 q 248 72 220 154 q 314 -74 275 -8 q 405 -183 353 -140 l 383 -213 "},"­":{"x_min":40.546875,"x_max":418.03125,"ha":459,"o":"m 418 370 q 408 338 414 355 q 397 309 402 320 l 57 309 l 40 325 q 49 356 43 340 q 61 387 55 373 l 401 387 l 418 370 "},":":{"x_min":87,"x_max":245,"ha":311,"o":"m 245 83 q 238 39 245 59 q 218 4 231 19 q 189 -18 206 -10 q 153 -27 172 -27 q 102 -7 117 -27 q 87 48 87 12 q 94 91 87 71 q 114 127 101 111 q 143 151 126 142 q 179 160 160 160 q 228 140 212 160 q 245 83 245 120 m 245 575 q 238 531 245 551 q 218 496 231 511 q 189 473 206 481 q 153 465 172 465 q 102 484 117 465 q 87 540 87 504 q 94 583 87 563 q 114 619 101 603 q 143 643 126 634 q 179 652 160 652 q 228 632 212 652 q 245 575 245 612 "},"Û":{"x_min":33,"x_max":847,"ha":890,"o":"m 847 825 q 776 804 801 816 q 751 783 751 793 l 751 355 q 729 197 751 266 q 668 79 708 127 q 571 5 628 30 q 442 -20 514 -20 q 316 0 374 -20 q 218 58 259 18 q 153 158 176 98 q 130 301 130 218 l 130 783 q 105 804 130 791 q 33 825 81 816 l 33 855 l 332 855 l 332 825 q 261 804 286 816 q 236 783 236 793 l 236 335 q 250 218 236 270 q 295 131 265 167 q 368 76 325 95 q 468 58 411 58 q 552 81 516 58 q 614 142 589 104 q 652 229 639 180 q 665 327 665 277 l 665 783 q 640 804 665 791 q 568 825 616 816 l 568 855 l 847 855 l 847 825 m 660 958 q 647 939 652 945 q 631 927 642 932 l 449 1068 l 269 927 q 260 932 263 930 q 253 939 256 935 q 247 947 250 942 q 239 958 243 951 l 414 1167 l 485 1167 l 660 958 "},"V":{"x_min":13,"x_max":857,"ha":884,"o":"m 857 825 q 786 807 811 816 q 754 780 760 799 l 499 39 q 481 14 494 24 q 453 -3 468 3 q 423 -14 437 -10 q 399 -20 408 -18 l 107 780 q 77 808 100 797 q 13 825 54 819 l 13 854 l 302 854 l 302 823 q 229 813 248 823 q 216 783 209 803 l 451 137 l 675 780 q 659 809 682 799 q 581 825 635 818 l 581 854 l 857 854 l 857 825 "},"ś":{"x_min":63,"x_max":465,"ha":525,"o":"m 465 192 q 451 109 465 144 q 417 51 438 75 q 369 13 395 28 q 318 -7 343 0 q 271 -17 293 -15 q 236 -20 248 -20 q 159 -7 204 -20 q 70 29 114 4 q 64 51 65 31 q 63 97 63 71 q 66 150 63 123 q 74 192 69 176 l 104 184 q 117 131 104 156 q 153 87 130 106 q 205 58 175 69 q 269 48 234 48 q 313 55 293 48 q 348 77 333 63 q 370 111 362 91 q 379 154 379 130 q 364 202 379 181 q 327 240 350 223 q 274 273 303 258 q 213 304 244 288 q 159 335 185 319 q 113 371 133 351 q 81 417 93 392 q 69 474 69 442 q 85 549 69 516 q 129 604 102 582 q 192 639 157 627 q 266 651 228 651 q 311 647 287 651 q 361 636 336 643 q 406 620 385 629 q 441 598 427 611 q 442 580 445 594 q 432 549 439 566 q 419 517 426 532 q 408 497 412 502 l 382 502 q 316 570 350 551 q 249 590 281 590 q 209 582 227 590 q 179 563 192 575 q 161 537 167 551 q 155 508 155 522 q 167 469 155 487 q 201 437 180 452 q 248 408 221 421 q 302 379 274 394 q 360 347 331 364 q 412 308 389 330 q 450 258 435 286 q 465 192 465 230 m 235 709 q 213 717 223 712 q 197 728 204 722 l 353 1009 q 373 1007 360 1009 q 401 1003 386 1005 q 428 998 415 1001 q 449 994 441 996 l 464 967 l 235 709 "}," ":{"x_min":0,"x_max":0,"ha":300},"ʼ":{"x_min":53.3125,"x_max":246,"ha":304,"o":"m 246 900 q 215 807 246 854 q 120 719 185 760 l 94 741 q 137 794 122 767 q 153 852 153 821 q 148 887 153 871 q 132 915 143 903 q 104 935 122 928 q 60 943 86 943 l 53 971 q 76 986 58 978 q 115 1001 93 994 q 157 1012 137 1008 q 188 1015 177 1016 q 216 995 205 1007 q 234 967 228 983 q 243 935 241 952 q 246 900 246 917 "},"@":{"x_min":47,"x_max":1053,"ha":1100,"o":"m 674 495 q 632 555 655 533 q 570 576 610 576 q 503 560 534 576 q 451 512 473 544 q 417 433 429 480 q 406 322 406 385 q 419 217 406 264 q 454 136 433 170 q 500 85 475 103 q 548 67 525 67 q 573 72 561 67 q 599 88 585 76 q 630 119 612 99 q 674 169 648 139 l 674 495 m 1053 372 q 1040 261 1053 313 q 1004 166 1027 209 q 953 88 982 123 q 893 29 924 53 q 829 -7 861 5 q 769 -20 797 -20 q 738 -12 753 -20 q 711 9 723 -5 q 691 49 699 25 q 678 109 682 74 q 629 46 650 71 q 588 6 608 21 q 548 -14 569 -8 q 501 -20 527 -20 q 432 2 467 -20 q 369 65 397 24 q 323 166 341 106 q 306 301 306 226 q 314 381 306 339 q 341 461 323 422 q 383 534 358 499 q 440 595 408 568 q 509 636 472 621 q 590 651 547 651 q 618 648 606 651 q 643 639 631 646 q 670 620 656 632 q 701 588 684 608 q 736 614 718 599 q 773 651 754 629 l 793 630 q 783 588 787 610 q 776 543 779 568 q 774 490 774 518 l 774 193 q 793 103 774 132 q 845 74 813 74 q 884 95 862 74 q 926 153 906 116 q 959 240 945 190 q 973 347 973 290 q 944 550 973 461 q 865 699 915 639 q 743 791 814 759 q 588 823 673 823 q 461 805 521 823 q 353 756 402 787 q 266 681 304 724 q 201 585 228 637 q 160 475 174 533 q 147 355 147 416 q 163 202 147 273 q 211 72 180 131 q 283 -31 241 14 q 376 -108 325 -77 q 483 -156 426 -140 q 600 -173 541 -173 q 710 -161 656 -173 q 809 -131 763 -149 q 890 -93 855 -113 q 946 -55 926 -73 l 964 -92 q 902 -146 940 -118 q 813 -199 863 -175 q 701 -238 763 -222 q 568 -254 639 -254 q 358 -214 453 -254 q 193 -99 262 -174 q 85 79 124 -25 q 47 315 47 185 q 67 465 47 392 q 124 604 87 539 q 213 725 162 670 q 328 819 265 779 q 464 881 392 859 q 614 904 537 904 q 794 869 713 904 q 932 768 875 835 q 1021 601 990 701 q 1053 372 1053 502 "},"¾":{"x_min":53.625,"x_max":744.984375,"ha":798,"o":"m 210 1 q 180 -10 195 -5 q 148 -20 166 -15 l 132 0 l 638 815 q 667 827 651 820 q 697 837 682 833 l 714 817 l 210 1 m 744 142 q 730 124 736 132 q 714 111 723 116 l 694 111 l 694 39 q 695 34 694 36 q 701 29 696 32 q 716 24 706 27 q 741 19 725 22 l 741 0 l 559 0 l 559 19 q 597 25 582 22 q 619 31 612 28 q 629 37 627 34 q 632 42 632 39 l 632 111 l 447 111 l 434 121 l 620 381 q 652 394 635 387 q 680 405 669 400 l 694 394 l 694 153 l 734 153 l 744 142 m 346 559 q 335 507 346 531 q 304 465 324 483 q 255 436 284 446 q 189 426 226 426 q 122 438 156 426 q 53 479 87 451 l 66 501 q 126 471 100 479 q 179 464 151 464 q 249 485 223 464 q 276 548 276 507 q 267 589 276 572 q 246 615 259 605 q 217 630 233 626 q 186 634 201 634 l 178 634 q 173 634 175 634 q 169 633 171 634 q 160 632 166 633 l 155 657 q 208 676 189 666 q 238 697 228 686 q 252 719 249 708 q 255 740 255 730 q 251 762 255 751 q 240 782 247 773 q 220 795 233 790 q 191 801 208 801 q 149 787 163 801 q 139 751 134 773 q 110 743 126 746 q 77 738 93 739 l 66 748 q 78 777 66 762 q 111 806 90 793 q 157 828 131 820 q 213 837 183 837 q 262 829 241 837 q 297 808 284 821 q 317 779 310 795 q 324 746 324 763 q 303 697 324 722 q 245 662 282 673 q 285 650 266 659 q 317 628 303 641 q 338 596 330 614 q 346 559 346 578 m 632 332 l 498 153 l 632 153 l 632 332 "},"i":{"x_min":47,"x_max":333,"ha":370,"o":"m 47 0 l 47 29 q 115 49 92 38 q 139 70 139 61 l 139 454 q 139 510 139 488 q 130 543 139 531 q 101 560 121 555 q 47 569 82 566 l 47 596 q 90 606 67 600 q 136 619 113 612 q 179 634 158 626 q 217 651 200 642 l 240 651 l 240 70 q 262 50 240 62 q 333 29 284 38 l 333 0 l 47 0 m 260 854 q 254 818 260 835 q 237 789 248 801 q 213 769 227 776 q 182 762 199 762 q 139 778 152 762 q 127 826 127 795 q 132 862 127 845 q 149 892 138 879 q 173 911 160 904 q 203 919 187 919 q 260 854 260 919 "},"m":{"x_min":37,"x_max":1075,"ha":1094,"o":"m 789 0 l 789 29 q 858 51 836 42 q 881 70 881 61 l 881 429 q 876 498 881 470 q 863 541 872 525 q 840 563 854 557 q 805 570 825 570 q 759 557 783 570 q 708 521 734 544 q 656 464 682 498 q 605 388 630 430 l 605 70 q 625 52 605 61 q 699 29 646 43 l 699 0 l 413 0 l 413 29 q 482 51 460 42 q 505 70 505 61 l 505 429 q 501 498 505 470 q 488 541 497 525 q 464 563 479 557 q 430 570 450 570 q 335 522 385 570 q 230 388 286 475 l 230 70 q 254 49 230 60 q 323 29 279 39 l 323 0 l 37 0 l 37 29 q 105 50 80 41 q 130 70 130 59 l 130 482 q 127 525 130 509 q 115 549 125 540 q 87 561 106 557 q 37 570 68 565 l 37 597 q 83 606 62 601 q 124 619 104 612 q 161 634 143 626 q 196 651 178 642 l 223 627 l 223 472 q 287 550 257 517 q 348 606 318 584 q 406 639 378 628 q 457 651 434 651 q 516 643 489 651 q 563 616 543 635 q 594 567 582 598 q 605 492 605 537 l 605 477 q 663 552 633 520 q 722 606 693 584 q 780 639 752 628 q 833 651 808 651 q 892 642 865 651 q 938 615 919 633 q 969 568 958 596 q 981 502 981 540 l 981 70 q 1001 52 981 61 q 1075 29 1022 43 l 1075 0 l 789 0 "},"ĕ":{"x_min":53,"x_max":575,"ha":628,"o":"m 329 580 q 266 566 294 580 q 215 528 237 552 q 177 469 192 503 q 156 394 162 435 l 440 394 q 461 399 456 394 q 466 418 466 404 q 461 464 466 436 q 441 517 456 491 q 399 561 426 543 q 329 580 372 580 m 575 378 q 543 353 563 364 q 501 333 523 341 l 153 333 q 166 232 153 280 q 205 147 180 184 q 267 89 231 111 q 349 68 303 68 q 389 70 369 68 q 431 82 408 73 q 481 110 454 92 q 546 160 509 129 q 561 146 555 155 q 571 132 567 137 q 492 52 526 83 q 429 6 459 22 q 371 -14 400 -9 q 308 -20 342 -20 q 211 2 257 -20 q 130 65 165 24 q 73 164 94 106 q 53 294 53 222 q 62 384 53 339 q 91 467 72 428 q 138 539 110 506 q 200 597 165 573 q 232 617 214 607 q 271 634 251 627 q 310 646 290 642 q 348 651 330 651 q 425 638 391 651 q 484 606 458 626 q 526 557 509 585 q 554 500 543 530 q 570 438 565 469 q 575 378 575 406 m 554 923 q 509 830 534 868 q 457 769 484 793 q 399 736 429 746 q 340 726 369 726 q 276 736 307 726 q 218 769 246 746 q 167 830 191 793 q 123 923 142 868 q 138 941 130 935 q 158 953 146 948 q 196 888 174 915 q 241 846 218 862 q 290 823 265 830 q 337 816 315 816 q 386 823 360 816 q 435 846 411 830 q 481 888 460 862 q 519 953 503 915 q 538 941 530 948 q 554 923 546 935 "},"ż":{"x_min":50.453125,"x_max":548.984375,"ha":601,"o":"m 547 168 q 547 121 547 146 q 547 74 547 97 q 547 31 547 51 q 542 0 547 12 l 67 0 l 50 30 l 418 569 l 189 569 q 167 564 178 569 q 146 549 156 560 q 127 518 136 538 q 111 467 118 498 l 85 475 l 85 641 q 117 634 105 637 q 142 631 129 631 q 170 631 155 631 l 534 631 l 548 601 l 179 61 l 459 61 q 489 87 475 61 q 519 174 503 113 l 547 168 m 385 854 q 379 818 385 835 q 362 789 373 801 q 338 769 352 776 q 307 762 324 762 q 264 778 277 762 q 252 826 252 795 q 257 862 252 845 q 274 892 263 879 q 298 911 285 904 q 328 919 312 919 q 385 854 385 919 "},"ő":{"x_min":53,"x_max":631.015625,"ha":684,"o":"m 528 309 q 510 411 528 362 q 466 496 493 459 q 404 555 438 533 q 336 577 369 577 q 251 557 285 577 q 195 503 216 537 q 165 422 174 469 q 156 321 156 375 q 174 219 156 267 q 221 133 193 170 q 283 75 249 97 q 347 54 317 54 q 429 72 395 54 q 484 123 462 90 q 517 203 506 157 q 528 309 528 250 m 631 329 q 619 240 631 283 q 588 158 608 197 q 540 86 568 119 q 479 30 512 53 q 407 -6 445 6 q 329 -20 369 -20 q 215 4 266 -20 q 128 71 164 28 q 72 173 92 114 q 53 301 53 232 q 63 389 53 346 q 94 472 74 433 q 141 544 114 511 q 202 600 169 576 q 275 638 236 624 q 355 651 314 651 q 468 627 417 651 q 555 559 519 602 q 611 457 591 516 q 631 329 631 398 m 247 710 q 229 717 235 713 q 209 728 222 720 l 326 1010 q 344 1007 334 1008 q 366 1003 355 1005 q 388 998 377 1000 q 405 993 398 996 l 419 965 l 247 710 m 440 710 q 421 717 427 713 q 402 728 414 720 l 519 1010 q 537 1007 527 1008 q 559 1003 548 1005 q 580 998 570 1000 q 598 993 591 996 l 613 965 l 440 710 "},"ž":{"x_min":50.453125,"x_max":549.984375,"ha":602,"o":"m 548 168 q 548 121 548 146 q 548 74 548 97 q 548 31 548 51 q 543 0 548 12 l 67 0 l 50 30 l 419 569 l 189 569 q 167 564 178 569 q 146 549 156 560 q 127 518 136 538 q 111 467 118 498 l 85 475 l 85 641 q 117 634 105 637 q 142 631 129 631 q 170 631 155 631 l 535 631 l 549 601 l 179 61 l 460 61 q 490 87 476 61 q 520 174 504 113 l 548 168 m 355 726 l 283 726 l 108 968 q 116 979 112 974 q 122 987 119 984 q 129 993 125 991 q 138 999 132 996 l 321 829 l 500 999 q 516 987 512 993 q 529 968 521 981 l 355 726 "},"á":{"x_min":53,"x_max":615.6875,"ha":625,"o":"m 233 68 q 318 88 273 68 q 414 154 363 109 l 414 329 q 321 311 358 320 q 262 293 285 302 q 225 273 239 284 q 200 252 211 263 q 172 210 183 234 q 162 155 162 187 q 169 111 162 128 q 189 84 177 94 q 212 71 200 74 q 233 68 225 68 m 615 55 q 522 -2 559 15 q 466 -21 485 -21 q 429 10 444 -21 q 415 97 415 41 q 354 44 384 66 q 295 7 324 21 q 241 -14 267 -7 q 194 -21 215 -21 q 145 -12 170 -21 q 99 12 120 -4 q 66 58 79 30 q 53 125 53 86 q 70 211 53 177 q 112 271 88 246 q 149 302 128 288 q 202 330 169 317 q 287 356 236 344 q 414 380 337 368 l 414 475 q 408 518 414 498 q 390 552 403 538 q 356 575 378 567 q 302 583 334 583 q 260 576 281 583 q 224 557 239 569 q 200 527 209 544 q 193 490 191 511 q 180 476 194 484 q 146 463 166 469 q 107 453 126 456 q 80 452 88 450 l 71 478 q 118 543 86 512 q 189 598 149 575 q 274 636 229 622 q 361 651 319 651 q 474 611 434 651 q 514 503 514 572 l 514 120 q 521 80 514 92 q 540 68 528 68 q 564 71 549 68 q 605 86 579 74 l 615 55 m 290 709 q 269 717 278 712 q 252 728 259 722 l 408 1009 q 429 1007 416 1009 q 456 1003 442 1005 q 484 998 470 1001 q 504 994 497 996 l 519 967 l 290 709 "},"Ŏ":{"x_min":47,"x_max":757,"ha":817,"o":"m 653 426 q 645 519 653 473 q 622 606 637 565 q 584 682 606 647 q 534 742 562 716 q 473 782 506 767 q 402 797 439 797 q 295 771 342 797 q 216 698 249 746 q 167 584 184 651 q 150 434 150 517 q 170 290 150 358 q 224 171 190 223 q 304 90 259 120 q 402 61 350 61 q 503 84 457 61 q 583 153 549 107 q 635 268 616 200 q 653 426 653 337 m 757 439 q 727 263 757 346 q 645 117 697 180 q 526 17 594 54 q 382 -20 458 -20 q 240 15 302 -20 q 135 112 177 51 q 69 251 92 172 q 47 415 47 329 q 76 590 47 507 q 156 737 105 674 q 274 837 206 800 q 421 875 342 875 q 566 838 503 875 q 671 740 628 801 q 735 600 713 679 q 757 439 757 521 m 625 1140 q 580 1047 605 1085 q 527 986 555 1010 q 470 953 500 963 q 410 943 440 943 q 347 953 378 943 q 289 986 316 963 q 237 1047 261 1010 q 193 1140 213 1085 q 209 1158 201 1152 q 228 1170 217 1165 q 266 1105 245 1132 q 312 1063 288 1079 q 361 1040 336 1047 q 407 1033 386 1033 q 456 1040 431 1033 q 506 1063 482 1047 q 552 1105 530 1079 q 590 1170 574 1132 q 609 1158 601 1165 q 625 1140 617 1152 "},"×":{"x_min":62,"x_max":496,"ha":558,"o":"m 62 212 l 226 381 l 62 547 l 62 570 q 92 582 75 577 q 123 592 109 588 l 278 434 l 433 592 q 464 582 447 588 q 495 570 481 577 l 495 547 l 330 380 l 496 212 l 496 189 q 464 178 482 184 q 434 168 446 172 l 278 327 l 123 168 q 92 178 110 172 q 62 189 75 184 l 62 212 "},"İ":{"x_min":47,"x_max":346,"ha":406,"o":"m 47 0 l 47 29 q 118 49 92 38 q 144 70 144 61 l 144 782 q 119 803 144 790 q 47 824 94 815 l 47 854 l 346 854 l 346 824 q 275 803 300 815 q 250 782 250 792 l 250 70 q 274 50 250 62 q 346 29 298 38 l 346 0 l 47 0 m 263 1044 q 257 1008 263 1025 q 240 979 251 991 q 216 959 230 966 q 185 952 202 952 q 142 968 155 952 q 130 1016 130 985 q 135 1052 130 1035 q 152 1082 141 1069 q 176 1101 163 1094 q 206 1109 190 1109 q 263 1044 263 1109 "},"Ě":{"x_min":33,"x_max":633.859375,"ha":675,"o":"m 633 165 q 620 63 628 107 q 606 0 611 19 l 33 0 l 33 29 q 104 49 78 38 q 130 70 130 61 l 130 782 q 105 803 130 790 q 33 824 81 815 l 33 854 l 568 854 l 590 837 q 587 798 590 819 q 580 756 584 777 q 571 716 576 735 q 563 684 567 697 l 533 684 q 528 736 533 715 q 517 770 524 757 q 501 787 511 782 q 479 793 491 793 l 236 793 l 236 498 l 505 498 l 522 479 q 509 458 517 469 q 493 437 501 447 q 476 417 485 426 q 461 403 468 409 q 439 420 451 413 q 413 432 428 427 q 377 438 398 436 q 329 441 357 441 l 236 441 l 236 104 q 240 86 236 94 q 259 72 245 78 q 301 64 274 67 q 371 61 327 61 l 457 61 q 509 64 487 61 q 547 79 530 67 q 577 114 564 91 q 605 177 591 137 l 633 165 m 369 943 l 298 943 l 123 1151 q 131 1162 127 1157 q 137 1170 134 1167 q 144 1176 140 1174 q 153 1183 147 1179 l 335 1039 l 515 1183 q 531 1170 526 1176 q 543 1151 535 1164 l 369 943 "},"K":{"x_min":33,"x_max":779.53125,"ha":786,"o":"m 33 0 l 33 29 q 104 50 78 39 q 130 70 130 61 l 130 783 q 105 803 130 791 q 33 825 81 815 l 33 854 l 332 854 l 332 825 q 261 804 286 815 q 236 783 236 792 l 236 438 l 507 765 q 526 794 522 783 q 523 811 530 805 q 500 820 517 817 q 458 824 483 824 l 458 855 l 737 855 l 737 825 q 699 819 715 822 q 669 812 682 817 q 644 801 655 808 q 624 783 634 794 l 333 455 l 653 86 q 679 65 665 73 q 708 55 693 58 q 740 52 724 52 q 774 54 757 52 l 779 25 q 700 1 740 12 q 629 -9 661 -9 q 595 -3 610 -9 q 566 19 580 2 l 236 433 l 236 70 q 259 50 236 62 q 332 29 283 39 l 332 0 l 33 0 "},"7":{"x_min":69.125,"x_max":588.171875,"ha":639,"o":"m 588 791 q 526 643 557 717 q 465 496 495 568 q 408 355 435 423 q 358 226 381 286 q 317 115 335 165 q 287 29 298 65 q 238 0 263 12 q 179 -20 212 -11 l 152 1 q 255 199 210 105 q 340 382 301 294 q 415 556 380 471 q 487 728 450 641 l 185 728 q 166 728 175 728 q 146 719 156 728 q 125 690 136 710 q 99 630 113 669 l 69 642 q 74 681 71 658 q 81 730 77 705 q 89 778 85 755 q 97 817 93 802 l 566 817 l 588 791 "},"¨":{"x_min":66,"x_max":465,"ha":532,"o":"m 465 854 q 459 818 465 835 q 442 789 453 801 q 418 769 432 776 q 387 762 404 762 q 344 778 357 762 q 332 826 332 795 q 337 862 332 845 q 354 892 343 879 q 378 911 365 904 q 408 919 392 919 q 465 854 465 919 m 199 854 q 193 818 199 835 q 176 789 187 801 q 152 769 166 776 q 121 762 138 762 q 78 778 91 762 q 66 826 66 795 q 71 862 66 845 q 88 892 77 879 q 112 911 99 904 q 142 919 126 919 q 199 854 199 919 "},"Y":{"x_min":-0.265625,"x_max":781,"ha":808,"o":"m 239 0 l 239 29 q 323 55 299 42 q 348 78 348 68 l 348 364 q 292 478 323 419 q 228 594 260 538 q 165 699 195 651 q 111 780 134 748 q 97 794 105 788 q 78 806 90 801 q 48 814 66 811 q 2 818 30 818 l 0 846 q 78 856 38 852 q 145 861 117 861 q 197 834 175 861 q 250 757 221 802 q 307 663 278 713 q 363 562 335 614 q 413 461 390 510 l 592 780 q 585 808 602 798 q 518 825 569 818 l 518 854 l 781 854 l 781 825 q 711 807 735 816 q 677 780 686 798 l 454 366 l 454 78 q 459 68 454 73 q 478 55 465 62 q 512 42 491 48 q 565 29 533 35 l 565 0 l 239 0 "},"E":{"x_min":33,"x_max":633.859375,"ha":675,"o":"m 633 165 q 620 63 628 107 q 606 0 611 19 l 33 0 l 33 29 q 104 49 78 38 q 130 70 130 61 l 130 782 q 105 803 130 790 q 33 824 81 815 l 33 854 l 568 854 l 590 837 q 587 798 590 819 q 580 756 584 777 q 571 716 576 735 q 563 684 567 697 l 533 684 q 528 736 533 715 q 517 770 524 757 q 501 787 511 782 q 479 793 491 793 l 236 793 l 236 498 l 505 498 l 522 479 q 509 458 517 469 q 493 437 501 447 q 476 417 485 426 q 461 403 468 409 q 439 420 451 413 q 413 432 428 427 q 377 438 398 436 q 329 441 357 441 l 236 441 l 236 104 q 240 86 236 94 q 259 72 245 78 q 301 64 274 67 q 371 61 327 61 l 457 61 q 509 64 487 61 q 547 79 530 67 q 577 114 564 91 q 605 177 591 137 l 633 165 "},"Ô":{"x_min":47,"x_max":757,"ha":817,"o":"m 653 426 q 645 519 653 473 q 622 606 637 565 q 584 682 606 647 q 534 742 562 716 q 473 782 506 767 q 402 797 439 797 q 295 771 342 797 q 216 698 249 746 q 167 584 184 651 q 150 434 150 517 q 170 290 150 358 q 224 171 190 223 q 304 90 259 120 q 402 61 350 61 q 503 84 457 61 q 583 153 549 107 q 635 268 616 200 q 653 426 653 337 m 757 439 q 727 263 757 346 q 645 117 697 180 q 526 17 594 54 q 382 -20 458 -20 q 240 15 302 -20 q 135 112 177 51 q 69 251 92 172 q 47 415 47 329 q 76 590 47 507 q 156 737 105 674 q 274 837 206 800 q 421 875 342 875 q 566 838 503 875 q 671 740 628 801 q 735 600 713 679 q 757 439 757 521 m 619 957 q 606 938 611 944 q 590 927 602 932 l 408 1068 l 228 927 q 219 932 223 929 q 212 938 215 935 q 206 946 209 942 q 198 957 203 951 l 374 1167 l 445 1167 l 619 957 "},"‹":{"x_min":53,"x_max":321.5,"ha":415,"o":"m 292 11 l 53 291 l 53 315 q 53 332 53 325 q 54 341 53 340 l 292 619 l 320 599 l 314 586 q 296 554 307 574 q 272 509 286 534 q 243 457 258 483 q 215 405 229 430 q 191 360 201 380 q 173 328 180 340 q 167 317 167 317 l 321 32 l 292 11 "},"Ï":{"x_min":-3,"x_max":396,"ha":406,"o":"m 47 0 l 47 29 q 117 49 92 38 q 143 70 143 61 l 143 782 q 118 803 143 790 q 47 824 94 815 l 47 854 l 346 854 l 346 824 q 274 803 300 815 q 249 782 249 792 l 249 70 q 273 50 249 62 q 346 29 298 38 l 346 0 l 47 0 m 396 1044 q 390 1008 396 1025 q 373 979 384 991 q 349 959 363 966 q 318 952 335 952 q 275 968 288 952 q 263 1016 263 985 q 268 1052 263 1035 q 285 1082 274 1069 q 309 1101 296 1094 q 339 1109 323 1109 q 396 1044 396 1109 m 130 1044 q 124 1008 130 1025 q 107 979 118 991 q 83 959 97 966 q 52 952 69 952 q 9 968 22 952 q -3 1016 -3 985 q 2 1052 -3 1035 q 19 1082 8 1069 q 43 1101 30 1094 q 73 1109 57 1109 q 130 1044 130 1109 "},"ġ":{"x_min":20,"x_max":657.625,"ha":664,"o":"m 459 406 q 447 474 459 442 q 412 531 435 507 q 355 569 389 555 q 276 583 321 583 q 240 574 260 583 q 201 548 219 565 q 171 505 183 531 q 160 446 160 479 q 170 378 160 410 q 204 322 181 346 q 260 284 226 298 q 342 271 294 271 q 382 279 361 271 q 420 305 403 287 q 448 347 437 322 q 459 406 459 372 m 344 -2 q 297 3 319 0 q 258 10 276 6 q 182 -36 210 -15 q 141 -74 155 -57 q 123 -104 127 -90 q 120 -128 120 -118 q 138 -182 120 -157 q 188 -226 157 -208 q 260 -256 219 -245 q 347 -268 301 -268 q 428 -255 391 -268 q 490 -222 464 -243 q 530 -171 516 -200 q 545 -106 545 -141 q 536 -71 545 -87 q 505 -42 527 -55 q 443 -19 482 -29 q 344 -2 405 -9 m 552 434 q 529 339 552 382 q 468 265 506 296 q 384 217 431 234 q 288 200 337 200 l 285 200 q 241 154 253 172 q 230 132 230 136 q 236 116 230 124 q 262 101 243 109 q 315 87 281 94 q 400 74 348 80 q 520 50 472 66 q 595 12 567 33 q 634 -33 623 -8 q 645 -81 645 -57 q 631 -152 645 -118 q 593 -214 617 -185 q 536 -265 569 -242 q 466 -305 504 -288 q 389 -330 429 -321 q 310 -339 349 -339 q 246 -334 279 -339 q 180 -320 212 -330 q 118 -296 147 -311 q 67 -261 89 -282 q 32 -214 45 -240 q 20 -155 20 -188 q 26 -118 20 -137 q 51 -76 32 -99 q 105 -28 71 -54 q 197 28 140 -2 q 137 63 154 44 q 121 103 121 83 q 124 118 121 109 q 138 140 127 127 q 167 170 148 153 q 216 209 186 187 q 155 236 183 218 q 108 280 128 254 q 77 337 88 305 q 67 408 67 370 q 88 502 67 457 q 146 579 110 546 q 228 631 182 612 q 322 651 274 651 q 397 639 362 651 q 460 606 432 627 q 523 615 495 610 q 573 627 551 621 q 613 639 595 633 q 644 651 630 645 l 657 630 q 642 595 649 611 q 619 562 635 579 q 570 554 594 557 q 515 552 545 552 q 542 496 532 525 q 552 434 552 467 m 399 854 q 393 818 399 835 q 376 789 387 801 q 352 769 366 776 q 321 762 338 762 q 278 778 291 762 q 266 826 266 795 q 271 862 266 845 q 288 892 277 879 q 312 911 299 904 q 342 919 326 919 q 399 854 399 919 "},"±":{"x_min":40.953125,"x_max":517.046875,"ha":558,"o":"m 517 146 q 508 116 513 132 q 497 88 502 99 l 57 88 l 40 104 q 49 133 44 117 q 61 162 55 149 l 501 162 l 517 146 m 317 248 q 287 235 303 241 q 257 227 272 230 l 241 241 l 241 432 l 57 432 l 40 448 q 49 477 44 461 q 61 506 55 493 l 241 506 l 241 692 q 270 702 253 696 q 301 712 286 708 l 317 695 l 317 506 l 501 506 l 517 490 q 508 460 513 476 q 497 432 502 443 l 317 432 l 317 248 "},"ì":{"x_min":-5.5,"x_max":333,"ha":370,"o":"m 47 0 l 47 29 q 115 49 92 38 q 139 70 139 61 l 139 454 q 139 510 139 488 q 130 543 139 531 q 101 560 121 555 q 47 569 82 566 l 47 596 q 90 606 67 600 q 136 619 113 612 q 179 634 158 626 q 217 651 200 642 l 240 651 l 240 70 q 262 50 240 62 q 333 29 284 38 l 333 0 l 47 0 m 265 731 q 248 718 257 722 q 228 709 240 713 l -5 965 l 9 993 q 28 997 15 995 q 56 1002 41 1000 q 84 1007 70 1005 q 106 1009 98 1009 l 265 731 "},"|":{"x_min":120,"x_max":213,"ha":312,"o":"m 213 -239 q 180 -259 201 -250 q 143 -274 159 -269 l 120 -259 l 120 1099 q 154 1118 138 1110 q 189 1132 169 1127 l 213 1117 l 213 -239 "}}}
